<svg xmlns="http://www.w3.org/2000/svg" xmlns:xlink="http://www.w3.org/1999/xlink" width="41.572" height="41.573" viewBox="0 0 41.572 41.573">
  <defs>
    <clipPath id="clip-path">
      <rect id="Retângulo_82" data-name="Retângulo 82" width="41.572" height="41.573" fill="#fff"/>
    </clipPath>
  </defs>
  <g id="Grupo_141" data-name="Grupo 141" transform="translate(0 0)">
    <g id="Grupo_140" data-name="Grupo 140" transform="translate(0 0)" clip-path="url(#clip-path)">
      <path id="Caminho_93" data-name="Caminho 93" d="M0,24.029c0-2.192.052-6.892.063-7.051.221-3.207.4-6.418.672-9.62A7.325,7.325,0,0,1,6.8.836C9.322.478,11.88.367,14.424.166,15.459.084,16.5.054,17.535,0h6.495c.159.021.318.05.478.061,3.25.223,6.5.4,9.75.678a7.449,7.449,0,0,1,6.557,6.477c.28,2.852.513,5.712.642,8.574a121.445,121.445,0,0,1-.615,18.433,7.532,7.532,0,0,1-6.5,6.593c-2.838.278-5.685.511-8.533.64a120.677,120.677,0,0,1-18.433-.612,7.4,7.4,0,0,1-6.544-6.11C.473,32.222.366,29.675.166,27.142.084,26.106.054,25.067,0,24.029m17.706-6.48H17.22c-.758,0-1.515-.007-2.273,0a.662.662,0,0,0-.743.681q-.014,1.806.007,3.612c.005.45.284.7.767.7.622.01,1.244,0,1.866,0h.861v.54q0,4.991,0,9.983c0,.551.145.694.7.695q1.664,0,3.328,0c.631,0,.754-.125.755-.76q.006-4.971.011-9.942v-.516h.484c1.055,0,2.11,0,3.165,0,.479,0,.749-.209.8-.63.143-1.154.281-2.308.4-3.464.066-.625-.2-.9-.836-.907-1.191,0-2.381,0-3.571,0h-.424a1.185,1.185,0,0,1-.032-.169c0-1.041-.012-2.083.006-3.124a1.789,1.789,0,0,1,1.968-2.012c.648-.031,1.3-.011,1.947-.023.563-.01.8-.239.806-.785q.011-1.441,0-2.881a.669.669,0,0,0-.745-.759c-1.082-.005-2.165-.027-3.246.011a5.267,5.267,0,0,0-5.152,3.836,10.756,10.756,0,0,0-.348,2.436c-.057,1.132-.014,2.27-.014,3.471" transform="translate(0 0)" fill="#fff"/>
    </g>
  </g>
</svg>
