<svg id="Grupo_139" data-name="Grupo 139" xmlns="http://www.w3.org/2000/svg" xmlns:xlink="http://www.w3.org/1999/xlink" width="41.465" height="41.541" viewBox="0 0 41.465 41.541">
  <defs>
    <clipPath id="clip-path">
      <rect id="Retângulo_81" data-name="Retângulo 81" width="41.465" height="41.541" fill="#fff"/>
    </clipPath>
  </defs>
  <g id="Grupo_138" data-name="Grupo 138" transform="translate(0 0)" clip-path="url(#clip-path)">
    <path id="Caminho_90" data-name="Caminho 90" d="M14.514,0h12.42c.97.054,1.94.1,2.909.162a13.842,13.842,0,0,1,4.915,1.093,10.832,10.832,0,0,1,6.46,8.839c.111.717.166,1.443.247,2.164V28.981c-.024.185-.051.371-.073.557-.11.911-.154,1.837-.34,2.732a10.664,10.664,0,0,1-6.884,8.276,15.962,15.962,0,0,1-5.694.926c-4.4.045-8.793.086-13.189.062A27.775,27.775,0,0,1,8.831,41a10.646,10.646,0,0,1-7.514-6.007A14.856,14.856,0,0,1,.074,28.715c-.047-4.491-.1-8.982-.062-13.473A41.048,41.048,0,0,1,.417,9.586,10.533,10.533,0,0,1,4.627,2.479,12.614,12.614,0,0,1,11.522.166C12.518.1,13.516.054,14.514,0m6.264,37.891c0-.021,0-.043,0-.064,1.1,0,2.193.033,3.287-.007,2.35-.084,4.717-.057,7.043-.348a6.771,6.771,0,0,0,6.149-5.416,17.992,17.992,0,0,0,.45-3.976q.108-6.268.062-12.54a42.132,42.132,0,0,0-.3-5.057,6.916,6.916,0,0,0-5.8-6.252,24.41,24.41,0,0,0-4.352-.393C23.677,3.779,20.037,3.79,16.4,3.8a36.474,36.474,0,0,0-6.231.343A6.958,6.958,0,0,0,4.214,9.838a23.164,23.164,0,0,0-.4,4.147c-.071,3.327-.1,6.656-.06,9.983.026,2.351.088,4.709.313,7.047a6.874,6.874,0,0,0,3.3,5.413,8.872,8.872,0,0,0,4.445,1.233c2.987.107,5.976.157,8.964.231" transform="translate(0 0)" fill="#fff"/>
    <path id="Caminho_91" data-name="Caminho 91" d="M23.869,34.61A10.676,10.676,0,1,1,34.549,45.3,10.683,10.683,0,0,1,23.869,34.61m3.762,0a6.918,6.918,0,1,0,6.915-6.91,6.9,6.9,0,0,0-6.915,6.91" transform="translate(-13.788 -13.834)" fill="#fff"/>
    <path id="Caminho_92" data-name="Caminho 92" d="M72.082,17.058a2.486,2.486,0,0,1-.1,4.972,2.486,2.486,0,1,1,.1-4.972" transform="translate(-40.172 -9.854)" fill="#fff"/>
  </g>
</svg>
