<svg id="Grupo_143" data-name="Grupo 143" xmlns="http://www.w3.org/2000/svg" xmlns:xlink="http://www.w3.org/1999/xlink" width="41.564" height="41.564" viewBox="0 0 41.564 41.564">
  <defs>
    <clipPath id="clip-path">
      <rect id="Retângulo_83" data-name="Retângulo 83" width="41.564" height="41.564" fill="#fff"/>
    </clipPath>
  </defs>
  <g id="Grupo_142" data-name="Grupo 142" transform="translate(0 0)" clip-path="url(#clip-path)">
    <path id="Caminho_94" data-name="Caminho 94" d="M0,37.992V3.572a.987.987,0,0,0,.074-.179A4.224,4.224,0,0,1,1.547.946,5.172,5.172,0,0,1,3.572,0h34.42a.635.635,0,0,0,.139.069,4.177,4.177,0,0,1,3.431,4.218q0,16.5,0,32.994a4.638,4.638,0,0,1-.129,1.122,4.178,4.178,0,0,1-4.189,3.16q-16.457,0-32.913,0c-.122,0-.244,0-.365-.006a4.161,4.161,0,0,1-2.909-1.415A4.973,4.973,0,0,1,0,37.992m35.306-2.684c.007-.122.015-.2.015-.28,0-3.842.018-7.684-.006-11.526a7.035,7.035,0,0,0-3.181-5.984,6.293,6.293,0,0,0-7.437-.179,21.422,21.422,0,0,0-1.827,1.57V16.656h-6.2V35.3h6.2v-.5q0-5.032,0-10.065c0-.27.008-.541.034-.81a3.131,3.131,0,0,1,3.9-2.591,3.174,3.174,0,0,1,2.286,3.217q.007,5.134,0,10.268v.487ZM12.443,16.662H6.269V35.307h6.174Zm.637-7.313a3.735,3.735,0,1,0-3.738,3.732,3.742,3.742,0,0,0,3.738-3.732" transform="translate(0 0)" fill="#fff"/>
  </g>
</svg>
