<svg width="2245" height="570" viewBox="0 0 2245 570" fill="none" xmlns="http://www.w3.org/2000/svg">
<path d="M2072.66 527.018V485.663C2072.66 471.814 2082.12 464.808 2098.23 464.808L2126 464.808V443L2098.23 443C2067.03 443.16 2045.08 458.443 2045.08 485.346V527.018C2045.08 541.186 2035.62 548.19 2019.72 548.19H0V570H2019.72C2050.72 570 2072.66 553.921 2072.66 527.018Z" fill="#FFFF00"/>
<path d="M2207.49 41.5683V265.648C2207.49 279.557 2200.81 286.432 2189.59 286.432V286.459C2167.56 286.616 2152.08 301.619 2152.08 328.028V422.255C2152.08 436.164 2145.4 443.039 2134.17 443.039L2110 443.08L2110 465L2134.17 464.83C2156.05 464.83 2171.54 448.664 2171.54 422.255V328.341C2171.54 314.746 2178.22 307.869 2189.59 307.869V307.841C2211.47 307.841 2226.96 292.058 2226.96 265.648V41.8797C2226.96 28.2845 2233.63 21.4077 2245 21.4077V0C2222.98 0.156584 2207.49 15.1591 2207.49 41.5683H2207.49Z" fill="#FFFF00"/>
</svg>
