<svg id="Camada_1" data-name="Camada 1" xmlns="http://www.w3.org/2000/svg" xmlns:xlink="http://www.w3.org/1999/xlink" viewBox="0 0 1714 3322.83"><defs><style>.cls-1{fill:none;}.cls-2{clip-path:url(#clip-path);}.cls-3{fill:#fff;}.cls-4{clip-path:url(#clip-path-2);}.cls-5{clip-path:url(#clip-path-3);}</style><clipPath id="clip-path" transform="translate(-642 -1045.49)"><rect class="cls-1" x="1076.84" y="1045.49" width="596.41" height="1661.42"/></clipPath><clipPath id="clip-path-2" transform="translate(-642 -1045.49)"><rect class="cls-1" x="668.87" y="2629.84" width="1082.67" height="351.93"/></clipPath><clipPath id="clip-path-3" transform="translate(-642 -1045.49)"><rect class="cls-1" x="1076.84" y="2706.91" width="596.41" height="1661.42"/></clipPath></defs><g id="Grupo_3" data-name="Grupo 3"><g class="cls-2"><g id="Grupo_1" data-name="Grupo 1"><path id="Caminho_1" data-name="Caminho 1" class="cls-3" d="M1267.12,2616.74h214.42c120,0,191.71-77.39,191.71-186.73s-71.71-186.74-191.71-186.74H1267.12c-61.77,0-93-33.37-93-90.17s31.24-90.17,93-90.17h214.42c120,0,191.71-77.39,191.71-186.73s-71.71-186.73-191.71-186.73H1267.12c-61.77,0-93-33.37-93-90.17s31.24-90.17,93-90.17h214.42c120,0,191.71-77.39,191.71-186.74s-71.71-186.73-191.71-186.73H1267.12c-61.77,0-93-33.37-93-90.17h-97.27c.71,110,68.87,187.44,188.86,187.44h215.84c63.19,0,94.44,33.37,94.44,89.46s-31.24,89.46-94.44,89.46H1265.7c-120,0-188.15,77.4-188.86,187.45.71,110,68.87,187.44,188.86,187.44h215.84c63.19,0,94.44,33.37,94.44,89.46s-31.24,89.46-94.44,89.46H1265.7c-120,0-188.15,77.39-188.86,187.44.71,110.05,68.87,187.44,188.86,187.44h215.84c63.19,0,94.44,33.37,94.44,89.46s-31.24,89.46-94.44,89.46H1265.7c-120,0-188.15,77.39-188.86,187.45h97.27c0-56.81,31.24-90.18,93-90.18" transform="translate(-642 -1045.49)"/></g></g></g><image width="196" height="262" transform="translate(1079.98 90.64) scale(1.34)" xlink:href="Captura%20de%20Tela%202022-02-15%20a%CC%80s%2018.49.39.png"/><image width="230" height="256" transform="translate(77.91 404.96) scale(1.34)" xlink:href="Captura%20de%20Tela%202022-02-15%20a%CC%80s%2018.49.44.png"/><image width="262" height="270" transform="translate(1079.98 627.94) scale(1.34)" xlink:href="Captura%20de%20Tela%202022-02-15%20a%CC%80s%2018.49.50.png"/><image width="212" height="230" transform="translate(91.34 944.95) scale(1.34)" xlink:href="Captura%20de%20Tela%202022-02-15%20a%CC%80s%2018.49.56.png"/><image width="422" height="158" transform="translate(1147.14 1264.65) scale(1.34)" xlink:href="Captura%20de%20Tela%202022-02-15%20a%CC%80s%2018.50.01.png"/><image width="288" height="210" transform="translate(0 1487.63) scale(1.34)" xlink:href="Captura%20de%20Tela%202022-02-15%20a%CC%80s%2018.50.08.png"/><g class="cls-4"><g id="Grupo_2" data-name="Grupo 2"><g class="cls-5"><g id="Grupo_1-2" data-name="Grupo 1-2"><path id="Caminho_1-2" data-name="Caminho 1-2" class="cls-3" d="M1267.12,4278.16h214.42c120,0,191.71-77.39,191.71-186.73s-71.71-186.74-191.71-186.74H1267.12c-61.77,0-93-33.37-93-90.17s31.24-90.17,93-90.17h214.42c120,0,191.71-77.39,191.71-186.73s-71.71-186.73-191.71-186.73H1267.12c-61.77,0-93-33.37-93-90.17s31.24-90.17,93-90.17h214.42c120,0,191.71-77.39,191.71-186.74s-71.71-186.73-191.71-186.73H1267.12c-61.77,0-93-33.37-93-90.17h-97.27c.71,110.05,68.87,187.44,188.86,187.44h215.84c63.19,0,94.44,33.37,94.44,89.46s-31.24,89.46-94.44,89.46H1265.7c-120,0-188.15,77.39-188.86,187.45.71,110.05,68.87,187.44,188.86,187.44h215.84c63.19,0,94.44,33.37,94.44,89.46s-31.24,89.46-94.44,89.46H1265.7c-120,0-188.15,77.39-188.86,187.44.71,110.05,68.87,187.44,188.86,187.44h215.84c63.19,0,94.44,33.37,94.44,89.46s-31.24,89.46-94.44,89.46H1265.7c-120,0-188.15,77.39-188.86,187.44h97.27c0-56.8,31.24-90.17,93-90.17" transform="translate(-642 -1045.49)"/></g></g></g></g></svg>