<svg xmlns="http://www.w3.org/2000/svg" xmlns:xlink="http://www.w3.org/1999/xlink" width="108.699" height="104.793" viewBox="0 0 108.699 104.793">
  <defs>
    <clipPath id="clip-path">
      <rect id="Retângulo_122" data-name="Retângulo 122" width="108.699" height="104.793" fill="#3196ff"/>
    </clipPath>
  </defs>
  <g id="Grupo_272" data-name="Grupo 272" transform="translate(1 4)">
    <g id="Grupo_256" data-name="Grupo 256" transform="translate(-1 -4)" clip-path="url(#clip-path)">
      <path id="Caminho_137" data-name="Caminho 137" d="M222.274,176.082a5.677,5.677,0,1,0-5.656-5.7,5.584,5.584,0,0,0,5.656,5.7" transform="translate(-178.345 -135.623)" fill="#3196ff"/>
      <path id="Caminho_138" data-name="Caminho 138" d="M339.823,364.1a5.67,5.67,0,1,0,5.717,5.639,5.584,5.584,0,0,0-5.717-5.639" transform="translate(-275.141 -299.768)" fill="#3196ff"/>
      <path id="Caminho_139" data-name="Caminho 139" d="M106.521,45a28.672,28.672,0,0,0-3.363-3.989,9.305,9.305,0,0,1-2.552-8.463c.225-1.261.294-2.551.419-3.69-.079-.894-.081-1.649-.221-2.377C99.573,20.049,95.239,15.7,88.74,14.789c-4.329-.608-7.445-2.57-9.175-6.627a10.879,10.879,0,0,0-.727-1.3A13.73,13.73,0,0,0,64.265.309a21.723,21.723,0,0,0-5.211,1.933,9.62,9.62,0,0,1-9.506-.086A18.867,18.867,0,0,0,47.3,1.1a13.882,13.882,0,0,0-12.554.873A15.083,15.083,0,0,0,28.706,8.9a9.461,9.461,0,0,1-7.776,5.648A15,15,0,0,0,12.1,18.461c-4.042,3.907-5.037,8.7-4.039,14.06a9.085,9.085,0,0,1-2.539,8.455c-.725.743-1.477,1.467-2.138,2.265A13.8,13.8,0,0,0,.2,54.717c.581,3.632,2.568,6.406,5.127,8.879a9.374,9.374,0,0,1,2.754,8.747,19.667,19.667,0,0,0-.243,5.57A13.782,13.782,0,0,0,19.933,90c4.282.554,7.4,2.465,9.12,6.495a10.3,10.3,0,0,0,.845,1.522,13.9,13.9,0,0,0,12.045,6.742,16.786,16.786,0,0,0,8.03-2.333,9.039,9.039,0,0,1,8.7-.012c.848.434,1.7.871,2.583,1.222a13.842,13.842,0,0,0,14.109-1.795,16.942,16.942,0,0,0,4.838-6.39,8.933,8.933,0,0,1,5.595-4.8,29.049,29.049,0,0,1,3.168-.62c8.028-1.4,13.138-8.392,11.752-16.4-.758-4.386.086-8.057,3.56-10.982a8.953,8.953,0,0,0,1.015-1.1A13.868,13.868,0,0,0,106.521,45M43.971,23.955A10.85,10.85,0,1,1,33.116,34.747,10.793,10.793,0,0,1,43.971,23.955M38.054,72.284a15.614,15.614,0,0,1-2.3,1.555,12.185,12.185,0,0,1-2.126-1.725,2.2,2.2,0,0,1,.106-2.676,6.5,6.5,0,0,1,.84-.916Q52.536,50.548,70.529,32.6a3.77,3.77,0,0,1,2.306-1.2,3.489,3.489,0,0,1,2.2,1.289,2.15,2.15,0,0,1-.1,2.668,5.669,5.669,0,0,1-.752.828Q56.128,54.24,38.054,72.284m26.614,8.563A10.857,10.857,0,1,1,75.554,70.076,10.816,10.816,0,0,1,64.668,80.847" transform="translate(0 0)" fill="#3196ff"/>
    </g>
  </g>
</svg>
