<svg xmlns="http://www.w3.org/2000/svg" xmlns:xlink="http://www.w3.org/1999/xlink" width="345.209" height="343.176" viewBox="0 0 345.209 343.176">
  <defs>
    <clipPath id="clip-path">
      <rect id="Retângulo_58" data-name="Retângulo 58" width="240.61" height="250.936" fill="#a36fff"/>
    </clipPath>
  </defs>
  <g id="Grupo_102" data-name="Grupo 102" transform="matrix(0.602, 0.799, -0.799, 0.602, 200.406, 0)">
    <g id="Grupo_101" data-name="Grupo 101" clip-path="url(#clip-path)">
      <path id="Caminho_83" data-name="Caminho 83" d="M122.751,0c6.6,1.064,11.629,4.758,16.158,9.436,3.577,3.695,7.436,7.115,11.06,10.766a9.054,9.054,0,0,0,8.465,2.66c6.2-.992,12.419-1.922,18.654-2.69C190.7,18.5,200.6,25.911,203.023,39.5c1.074,6.022,2.124,12.05,3.1,18.09a9.127,9.127,0,0,0,5.209,7.188C217,67.657,222.611,70.664,228.2,73.7c11.636,6.316,15.512,18.262,9.811,30.233-2.7,5.669-5.429,11.328-8.293,16.916a9.465,9.465,0,0,0,.037,9.318c2.766,5.362,5.35,10.819,7.991,16.245,6.111,12.554,2.236,24.54-10.049,31.1-5.4,2.88-10.755,5.841-16.222,8.58a9.442,9.442,0,0,0-5.411,7.585c-.993,6.284-2.038,12.565-3.307,18.8-2.7,13.248-13.125,20.325-26.478,18.223-6.206-.975-12.436-1.8-18.654-2.7a8.269,8.269,0,0,0-7.356,2.472q-7,6.864-14.088,13.63c-9.559,9.122-22.221,9.116-31.783-.009-4.549-4.343-9.116-8.67-13.545-13.133a9.366,9.366,0,0,0-8.869-2.828c-6.2,1.036-12.419,1.937-18.658,2.662C49.6,232.385,39.777,224.8,37.505,211.055c-.985-5.955-2.077-11.893-3.053-17.85a8.974,8.974,0,0,0-5.1-6.994c-5.595-2.852-11.122-5.839-16.657-8.807-12-6.437-15.891-18.467-9.949-30.764,2.625-5.434,5.187-10.9,7.984-16.248a9.714,9.714,0,0,0,.044-9.751c-2.865-5.494-5.519-11.1-8.183-16.7C-3.1,91.987.779,80.007,12.4,73.7c5.519-3,11.039-6,16.659-8.8a9.579,9.579,0,0,0,5.5-7.786c.956-6.207,2.013-12.4,3.262-18.556C40.535,25.183,51,18.113,64.487,20.285c6.121.986,12.273,1.783,18.41,2.673a8.261,8.261,0,0,0,7.372-2.424c3.787-3.722,7.728-7.288,11.422-11.1,4.532-4.675,9.556-8.372,16.158-9.436Z" transform="translate(0)" fill="#a36fff"/>
    </g>
  </g>
</svg>
