<svg width="144" height="28" viewBox="0 0 144 28" fill="none" xmlns="http://www.w3.org/2000/svg">
<path d="M11.2682 4.38569C9.57398 4.38569 9.0815 5.14152 9.0815 6.8056V9.56765H13.6037L13.1514 14.0311H9.0846V27.577H3.6549V14.0311H0V9.56765H3.6549V6.88025C3.6549 2.37947 5.46377 0 10.5094 0C11.5656 0 12.6218 0.059098 13.6718 0.189736V4.3888L11.2682 4.38258V4.38569Z" fill="#1877F2"/>
<path d="M13.9784 18.0031C13.9784 12.9705 16.351 9.18196 21.3254 9.18196C24.0387 9.18196 25.6958 10.5816 26.4856 12.3235V9.56765H31.683V27.577H26.4856V24.8523C25.733 26.5941 24.0356 27.9565 21.3254 27.9565C16.351 27.9565 13.9784 24.1711 13.9784 19.1353V18.0031ZM19.405 19.2162C19.405 21.9005 20.3838 23.6796 22.9082 23.6796C25.1321 23.6796 26.2626 22.0529 26.2626 19.4806V17.6734C26.2626 15.1011 25.1321 13.4743 22.9082 13.4743C20.3838 13.4743 19.405 15.2535 19.405 17.9378V19.2162Z" fill="#1877F2"/>
<path d="M42.9915 9.18818C45.1009 9.18818 47.0987 9.6423 48.1889 10.3981L46.9841 14.2582C45.8535 13.717 44.6177 13.4339 43.3663 13.4246C40.4269 13.4246 39.1508 15.126 39.1508 18.0404V19.098C39.1508 22.0124 40.43 23.7138 43.3663 23.7138C44.6177 23.7045 45.8535 23.4215 46.9841 22.8802L48.1889 26.7372C47.0956 27.493 45.1009 27.9502 42.9915 27.9502C36.6233 27.9502 33.7211 24.507 33.7211 18.9829V18.1493C33.7211 12.6252 36.6203 9.18196 42.9915 9.18196V9.18818Z" fill="#1877F2"/>
<path d="M48.9044 17.6734C48.9044 12.5661 51.8036 9.20373 57.7227 9.20373C63.2979 9.20373 65.7479 12.6096 65.7479 17.605V20.4821H54.3279C54.4425 22.9425 55.5359 24.0404 58.5435 24.0404C60.5784 24.0404 62.728 23.6236 64.3108 22.9425L65.3019 26.675C63.8709 27.4339 60.9315 28 58.3328 28C51.466 28 48.9044 24.5568 48.9044 19.2659V17.6734ZM54.331 16.9145H60.8882V16.4603C60.8882 14.4946 60.0983 12.9331 57.7257 12.9331C55.2757 12.9331 54.331 14.4883 54.331 16.9082V16.9145Z" fill="#1877F2"/>
<path d="M85.8592 19.1415C85.8592 24.1742 83.4494 27.9627 78.4813 27.9627C75.768 27.9627 73.8848 26.6003 73.1321 24.8585V27.5832H68.009V0.522551L73.4325 0.0311042V12.0622C74.2224 10.4759 75.9569 9.18507 78.4813 9.18507C83.4556 9.18507 85.8592 12.9705 85.8592 18.0062V19.1415ZM80.4326 17.8911C80.4326 15.3561 79.4538 13.465 76.8551 13.465C74.6312 13.465 73.4263 15.0513 73.4263 17.6268V19.5179C73.4263 22.0902 74.6312 23.6796 76.8551 23.6796C79.4538 23.6796 80.4326 21.7885 80.4326 19.2535V17.8911Z" fill="#1877F2"/>
<path d="M87.6743 19.0264V18.1182C87.6743 12.9331 90.6137 9.18818 96.604 9.18818C102.594 9.18818 105.537 12.9331 105.537 18.1182V19.0264C105.537 24.2084 102.597 27.9565 96.6071 27.9565C90.6168 27.9565 87.6743 24.2084 87.6743 19.0264ZM100.11 17.7418C100.11 15.3593 99.1283 13.4681 96.5978 13.4681C94.0672 13.4681 93.0916 15.3593 93.0916 17.7418V19.4059C93.0916 21.7885 94.0734 23.6796 96.5978 23.6796C99.1221 23.6796 100.11 21.7885 100.11 19.4059V17.7418Z" fill="#1877F2"/>
<path d="M107.339 19.0264V18.1182C107.339 12.9331 110.279 9.18818 116.269 9.18818C122.26 9.18818 125.199 12.9331 125.199 18.1182V19.0264C125.199 24.2084 122.26 27.9565 116.269 27.9565C110.279 27.9565 107.339 24.2084 107.339 19.0264ZM119.775 17.7418C119.775 15.3593 118.794 13.4681 116.269 13.4681C113.745 13.4681 112.766 15.3593 112.766 17.7418V19.4059C112.766 21.7885 113.745 23.6796 116.269 23.6796C118.794 23.6796 119.775 21.7885 119.775 19.4059V17.7418Z" fill="#1877F2"/>
<path d="M132.661 18.1555L138.01 9.56765H143.774L138.161 18.4603L144 27.577H138.236L132.661 18.7558V27.577H127.234V0.522551L132.661 0.0311042V18.1555Z" fill="#1877F2"/>
</svg>
