<svg width="144" height="47" viewBox="0 0 144 47" fill="none" xmlns="http://www.w3.org/2000/svg">
<path d="M61.6205 24.7337C61.6205 31.4945 56.2866 36.4797 49.7387 36.4797C43.1908 36.4797 37.8568 31.4976 37.8568 24.7337C37.8568 17.9698 43.1908 12.9876 49.7387 12.9876C56.2866 12.9876 61.6205 17.9224 61.6205 24.7337ZM56.4172 24.7337C56.4172 20.5066 53.3265 17.6159 49.7355 17.6159C46.1445 17.6159 43.0538 20.5066 43.0538 24.7337C43.0538 28.9607 46.1445 31.8514 49.7355 31.8514C53.3265 31.8514 56.4172 28.9134 56.4172 24.7337Z" fill="#EA4335"/>
<path d="M87.2578 24.7337C87.2578 31.4945 81.9238 36.4797 75.3759 36.4797C68.828 36.4797 63.4941 31.4976 63.4941 24.7337C63.4941 17.9698 68.828 12.9876 75.3759 12.9876C81.9238 12.9876 87.2578 17.9224 87.2578 24.7337ZM82.0545 24.7337C82.0545 20.5066 78.9637 17.6159 75.3727 17.6159C71.7817 17.6159 68.691 20.5066 68.691 24.7337C68.691 28.9607 71.7817 31.8514 75.3727 31.8514C78.9637 31.8514 82.0545 28.9134 82.0545 24.7337Z" fill="#FBBC05"/>
<path d="M111.824 13.6985V34.7832C111.824 43.4553 106.666 47 100.567 47C94.8253 47 91.3713 43.1931 90.0681 40.0781L94.5959 38.2078C95.402 40.1192 97.3776 42.3749 100.561 42.3749C104.464 42.3749 106.882 39.9865 106.882 35.4909V33.8007H106.701C105.538 35.2255 103.295 36.4703 100.462 36.4703C94.5385 36.4703 89.1122 31.3554 89.1122 24.7716C89.1122 18.1877 94.5385 12.9845 100.462 12.9845C103.288 12.9845 105.531 14.2292 106.701 15.6098H106.882V13.6985H111.821V13.6921L111.824 13.6985ZM107.252 24.7748C107.252 20.6393 104.47 17.6159 100.93 17.6159C97.3903 17.6159 94.3346 20.6393 94.3346 24.7748C94.3346 28.9102 97.3425 31.8483 100.93 31.8483C104.518 31.8483 107.252 28.866 107.252 24.7748Z" fill="#4285F4"/>
<path d="M119.969 1.33952V35.7594H114.896V1.33952H119.969Z" fill="#34A853"/>
<path d="M139.74 28.6006L143.777 31.2701C142.474 33.1815 139.332 36.4766 133.909 36.4766C127.179 36.4766 122.154 31.3175 122.154 24.7305C122.154 17.7454 127.224 12.9845 133.326 12.9845C139.428 12.9845 142.48 17.8339 143.462 20.4561L144 21.7893L128.164 28.291C129.375 30.6478 131.261 31.8483 133.906 31.8483C136.55 31.8483 138.392 30.5562 139.737 28.5974L139.74 28.6006ZM127.313 24.3735L137.898 20.0169C137.315 18.5511 135.566 17.5275 133.504 17.5275C130.86 17.5275 127.183 19.84 127.313 24.3735Z" fill="#EA4335"/>
<path d="M18.6528 21.6787V16.6966H35.5882C35.7539 17.5654 35.8399 18.5921 35.8399 19.7042C35.8399 23.4416 34.8107 28.0667 31.4874 31.3586C28.2564 34.6948 24.1269 36.4734 18.6592 36.4734C8.52344 36.4734 0 28.2878 0 18.2383C0 8.18875 8.52026 0 18.656 0C24.2639 0 28.2596 2.18303 31.2611 5.02635L27.7147 8.54258C25.564 6.53963 22.6453 4.98528 18.6528 4.98528C11.2509 4.98528 5.46138 10.8994 5.46138 18.2383C5.46138 25.5772 11.2509 31.4913 18.6528 31.4913C23.4546 31.4913 26.1885 29.58 27.941 27.8424C29.3621 26.4334 30.2957 24.4209 30.6653 21.6724L18.6528 21.6787Z" fill="#4285F4"/>
</svg>
