<svg width="89" height="35" viewBox="0 0 89 35" fill="none" xmlns="http://www.w3.org/2000/svg">
<path d="M89 2.48978H74.1858L75.0981 0H89V2.48978Z" fill="#4F81C2"/>
<path d="M49.5086 0H63.2636L64.1646 2.49253C64.1703 2.48978 49.5142 2.49528 49.5142 2.49253C49.5142 2.48978 49.5057 0 49.5086 0Z" fill="#4F81C2"/>
<path d="M38.5836 0C40.8516 0.211838 42.8203 0.998664 44.5008 2.49253H19.5694V0H38.5836Z" fill="#4F81C2"/>
<path d="M17.3211 0H0.0016307V2.48703H17.3211V0Z" fill="#4F81C2"/>
<path d="M89 7.15847H72.4883C72.4883 7.15847 73.3893 4.68519 73.3836 4.68244H89V7.15847Z" fill="#4F81C2"/>
<path d="M65.8649 7.16122H49.5057V4.68244H64.9696L65.8649 7.16122Z" fill="#4F81C2"/>
<path d="M46.4412 4.67969C46.7688 5.49678 47.1586 6.19557 47.1586 7.15571H19.5722V4.67969H46.4412Z" fill="#4F81C2"/>
<path d="M17.3211 4.67969H0.0016307V7.15571H17.3211V4.67969Z" fill="#4F81C2"/>
<path d="M70.7993 11.8382L71.7059 9.35112L84.1024 9.35388V11.8327L70.7993 11.8382Z" fill="#4F81C2"/>
<path d="M66.6586 9.34837L67.5624 11.8382H54.3836V9.34837H66.6586Z" fill="#4F81C2"/>
<path d="M47.3789 9.34837C47.3789 10.2012 47.2688 11.0898 47.0146 11.8382H39.462V9.34837H47.3789Z" fill="#4F81C2"/>
<path d="M12.2767 9.36213H4.83144V11.8382H12.2767V9.36213Z" fill="#4F81C2"/>
<path d="M32.0168 9.34837H24.5856V11.8354H32.0168V9.34837Z" fill="#4F81C2"/>
<path d="M61.7045 14.5233C61.7045 14.5233 61.7045 16.405 61.7045 16.4105H54.3836V13.9345H68.3363L69.2034 16.2427C69.2034 16.2427 70.0395 13.929 70.0395 13.9345H84.0996V16.4105H76.8153L76.8097 14.5233L76.1375 16.4105H62.3796L61.7074 14.5233H61.7045Z" fill="#4F81C2"/>
<path d="M24.5856 13.9345H45.9187C45.4527 14.7626 44.6053 15.7723 43.8032 16.4105C43.8032 16.4105 24.5856 16.4133 24.5856 16.4105C24.5856 16.4078 24.5856 13.9373 24.5856 13.9345Z" fill="#4F81C2"/>
<path d="M12.2767 13.9345H4.83144V16.4105H12.2767V13.9345Z" fill="#4F81C2"/>
<path d="M84.0967 18.6032H76.8125V21.0792H84.0967V18.6032Z" fill="#4F81C2"/>
<path d="M54.3836 18.6032V21.0792H61.7074C61.7074 21.0792 61.7158 18.6032 61.7074 18.6032H54.3836Z" fill="#4F81C2"/>
<path d="M75.341 18.6032C75.3071 18.5977 74.488 21.0765 74.4541 21.0792L64.0771 21.0847C64.0771 21.0847 63.1648 18.6005 63.1648 18.606H75.3438L75.341 18.6032Z" fill="#4F81C2"/>
<path d="M24.5828 18.6005H43.7636C44.6392 19.313 45.4301 20.1879 46.0514 21.0765C46.0853 21.0765 24.5828 21.0765 24.5828 21.0765C24.5828 21.0765 24.5828 18.6032 24.5828 18.6005Z" fill="#4F81C2"/>
<path d="M12.2739 21.0792V18.6032H4.84274V21.0792C4.84274 21.0792 12.271 21.0792 12.2739 21.0792Z" fill="#4F81C2"/>
<path d="M84.0967 23.2719H76.8125V25.7479H84.0967V23.2719Z" fill="#4F81C2"/>
<path d="M61.7045 23.2719H54.3836V25.7479H61.7045V23.2719Z" fill="#4F81C2"/>
<path d="M72.7509 25.7589C72.7509 25.7589 73.6491 23.2691 73.6632 23.2719H64.8425C64.8255 23.2719 65.7463 25.7479 65.7463 25.7479C65.7463 25.7479 72.7481 25.7699 72.7509 25.7589Z" fill="#4F81C2"/>
<path d="M24.5828 25.7452V23.2691H32.1241C32.1241 23.2691 32.1297 25.7452 32.1241 25.7452C32.1184 25.7452 24.5828 25.7424 24.5828 25.7452Z" fill="#4F81C2"/>
<path d="M47.1106 23.2691C47.475 24.0147 47.5117 24.9033 47.5851 25.7562H39.5947V23.2691H47.1106Z" fill="#4F81C2"/>
<path d="M12.2739 23.2691H4.84274V25.7452H12.2739V23.2691Z" fill="#4F81C2"/>
<path d="M88.9972 27.8415H76.8125V30.3176H88.9972V27.8415Z" fill="#4F81C2"/>
<path d="M61.7045 27.8415H49.5057V30.3176H61.7045V27.8415Z" fill="#4F81C2"/>
<path d="M71.1099 30.3203H67.3901L66.4976 27.8415H71.9714L71.1099 30.3203Z" fill="#4F81C2"/>
<path d="M0.0016307 27.8415V30.3176H17.3099C17.3099 30.3176 17.3014 27.8443 17.3099 27.8443C17.3183 27.8443 -0.0181404 27.8443 0.0016307 27.8443V27.8415Z" fill="#4F81C2"/>
<path d="M47.2688 27.8415C47.0852 28.6586 46.9185 29.6545 46.3056 30.3176H19.5722V27.8415H47.2688Z" fill="#4F81C2"/>
<path d="M69.4237 34.9945H69.082L68.2121 32.5102H70.3163L69.4237 34.9945Z" fill="#4F81C2"/>
<path d="M88.9972 32.5102H76.8125V34.9972H88.9972V32.5102Z" fill="#4F81C2"/>
<path d="M19.5694 34.9945V32.5157C19.5694 32.5157 44.5743 32.5185 44.6477 32.5185C42.97 34.0839 40.6652 34.9642 38.1853 35L19.5751 34.9945" fill="#4F81C2"/>
<path d="M61.7045 32.5102H49.5057V34.9972H61.7045V32.5102Z" fill="#4F81C2"/>
<path d="M17.3099 32.5212C17.3099 32.5212 17.3014 34.9917 17.3099 34.9917C17.3183 34.9917 0.00727959 35.0028 0.0016307 34.9972C-0.0040182 34.9917 0.00727959 32.5157 0.0016307 32.5157C-0.0040182 32.5157 17.3014 32.5295 17.3099 32.524V32.5212Z" fill="#4F81C2"/>
</svg>
