<svg width="89" height="77" viewBox="0 0 89 77" fill="none" xmlns="http://www.w3.org/2000/svg">
<path d="M43.5711 9.15747C47.3717 9.15747 50.4702 12.2318 50.4702 16.0323C50.4702 19.8328 47.3959 22.9313 43.5954 22.9313C39.7948 22.9313 36.6963 19.857 36.6963 16.0565C36.6721 12.2318 39.7464 9.15747 43.5711 9.15747Z" fill="#3196FF"/>
<path d="M43.6072 34.9783L7.46594 35.0433L7.49069 48.793L43.632 48.7279L43.6072 34.9783Z" fill="#3196FF"/>
<path d="M79.7607 34.9139L79.8091 62.4617L62.5736 55.6111L62.5494 41.8372L79.7607 34.9139Z" fill="#3196FF"/>
<path d="M7.50243 69.9901C5.54165 69.9901 3.6777 69.2154 2.27369 67.8356C0.869673 66.4316 0.0950444 64.5919 0.0950444 62.6069L0.0466309 35.0591C0.0466309 33.0742 0.821258 31.2344 2.20107 29.8304C3.60508 28.4264 5.44483 27.6518 7.42981 27.6518L57.3692 27.5549C57.3692 27.5549 57.3692 27.5549 57.3934 27.5549C61.4602 27.5549 64.7766 30.8713 64.8008 34.9381L64.8492 62.4859C64.8492 64.4708 64.0745 66.3106 62.6947 67.7146C61.2907 69.1186 59.451 69.8932 57.466 69.8932L7.50243 69.9901ZM57.3934 32.009C57.3692 32.009 57.3692 32.009 57.3934 32.009L7.45402 32.1059C6.67939 32.1059 5.92897 32.4206 5.3722 32.9773C4.81544 33.5341 4.52495 34.2603 4.52495 35.0591L4.57337 62.5827C4.57337 63.3573 4.88806 64.1077 5.44482 64.6645C6.00159 65.2213 6.7278 65.5117 7.50243 65.5117L57.4418 65.4149C58.2164 65.4149 58.9668 65.1002 59.5236 64.5435C60.0804 63.9867 60.3708 63.2605 60.3708 62.4616L60.3224 34.9139C60.3224 33.3404 58.991 32.009 57.3934 32.009Z" fill="#020200"/>
<path d="M79.8092 64.6887C79.5429 64.6887 79.2524 64.6403 78.9862 64.5192L61.7507 57.6686C60.6129 57.2087 60.0562 55.9257 60.4919 54.7637C60.9518 53.626 62.2348 53.0692 63.3968 53.505L80.6323 60.3556C81.77 60.8155 82.3267 62.0985 81.891 63.2604C81.5521 64.1561 80.7049 64.6887 79.8092 64.6887Z" fill="#020200"/>
<path d="M62.5495 44.0641C61.6538 44.0641 60.8308 43.5316 60.4677 42.6601C60.0077 41.5224 60.5645 40.2152 61.7022 39.7553L78.9135 32.832C80.0512 32.3721 81.3584 32.9289 81.8184 34.0666C82.2783 35.2043 81.7215 36.5115 80.5838 36.9715L63.3725 43.8947C63.1304 44.0157 62.84 44.0641 62.5495 44.0641Z" fill="#020200"/>
<path d="M79.8092 64.6887C78.5746 64.6887 77.5821 63.6962 77.5821 62.4617C77.5821 61.2271 78.5746 60.2346 79.8092 60.2346H84.4569L84.4085 37.141H79.7608C78.5262 37.141 77.5337 36.1485 77.5337 34.9139C77.5337 33.6794 78.5262 32.6869 79.7608 32.6869L86.6356 32.6627C87.8701 32.6627 88.8626 33.6552 88.8626 34.8897L88.9111 62.4375C88.9111 63.672 87.9186 64.6645 86.684 64.6645L79.8092 64.6887Z" fill="#020200"/>
<path d="M43.5711 32.0332C39.3107 32.0332 35.2923 30.3872 32.2664 27.3613C29.2405 24.3354 27.5702 20.317 27.5702 16.0565C27.5702 11.7719 29.2163 7.75347 32.2422 4.72757C38.4634 -1.51787 48.6304 -1.54208 54.8759 4.67916C57.9017 7.70505 59.572 11.7234 59.5962 15.9839C59.5962 20.2686 57.9502 24.287 54.9243 27.3128C51.8984 30.3387 47.88 32.009 43.6195 32.0332C43.5953 32.0332 43.5711 32.0332 43.5711 32.0332ZM43.5711 4.50971C40.6178 4.50971 37.6404 5.64744 35.3891 7.89871C33.2105 10.0774 32.0243 12.9822 32.0243 16.0565C32.0243 19.1308 33.2347 22.0357 35.4133 24.2143C37.5919 26.393 40.4726 27.5791 43.5711 27.5791H43.5953C46.6696 27.5791 49.5745 26.3688 51.7531 24.1901C53.9318 22.0115 55.1179 19.1066 55.1179 16.0323C55.1179 12.958 53.9076 10.0531 51.7289 7.8745C49.4777 5.62324 46.5244 4.50971 43.5711 4.50971Z" fill="#020200"/>
<path d="M14.3047 32.1059C9.2938 32.1059 5.2028 28.0148 5.17859 23.004C5.17859 17.9689 9.24539 13.8779 14.2805 13.8779C14.2805 13.8779 14.2805 13.8779 14.3047 13.8779C19.3156 13.8779 23.4066 17.9689 23.4308 22.9798C23.455 27.9906 19.364 32.0816 14.3047 32.1059C14.3289 32.1059 14.3289 32.1059 14.3047 32.1059ZM14.3047 18.332C11.7387 18.332 9.65691 20.438 9.65691 23.004C9.65691 25.5699 11.7387 27.6517 14.3047 27.6517C16.8706 27.6517 18.9525 25.5457 18.9525 22.9798C18.9525 20.4138 16.8706 18.332 14.3047 18.332Z" fill="#020200"/>
<path d="M12.6585 63.0911C9.5358 63.0911 6.99406 60.5493 6.96985 57.4266C6.96985 55.9015 7.55082 54.4733 8.61593 53.4082C9.68105 52.3431 11.1093 51.7379 12.6343 51.7379C14.1352 51.7379 15.5634 52.3189 16.6285 53.384C17.6936 54.4491 18.2988 55.8773 18.2988 57.4024C18.2988 58.9274 17.7178 60.3557 16.6527 61.4208C15.6118 62.4859 14.1836 63.0911 12.6585 63.0911ZM12.6585 56.192C12.3196 56.192 12.0291 56.3131 11.7871 56.5551C11.5692 56.773 11.424 57.0877 11.424 57.4024C11.424 58.0802 11.9807 58.6127 12.6343 58.6127C12.949 58.6127 13.2637 58.4917 13.4816 58.2496C13.6994 58.0318 13.8447 57.7171 13.8447 57.4024C13.8447 57.0877 13.7236 56.773 13.4816 56.5551C13.2879 56.3373 12.9732 56.192 12.6585 56.192Z" fill="#020200"/>
<path d="M26.4324 63.0668C24.9316 63.0668 23.5034 62.4858 22.4382 61.4207C21.3731 60.3556 20.7679 58.9274 20.7679 57.4023C20.7679 55.8773 21.3489 54.449 22.414 53.3839C23.4791 52.3188 24.9074 51.7136 26.4324 51.7136C29.5551 51.7136 32.0969 54.2554 32.0969 57.3781C32.1211 60.5008 29.5794 63.0668 26.4324 63.0668ZM26.4324 56.1677C26.1177 56.1677 25.803 56.2888 25.5852 56.5308C25.3673 56.7487 25.2221 57.0634 25.2221 57.3781C25.2221 57.6928 25.3431 58.0075 25.5852 58.2253C25.803 58.4432 26.1177 58.5642 26.4324 58.5885C27.1102 58.5885 27.6428 58.0317 27.6428 57.3781C27.6428 56.7245 27.086 56.1677 26.4324 56.1677Z" fill="#020200"/>
<path d="M40.2063 63.0426C38.7055 63.0426 37.2773 62.4616 36.2122 61.3965C35.147 60.3314 34.5419 58.9032 34.5419 57.3781C34.5419 54.2554 37.0836 51.6895 40.2063 51.6895C43.3291 51.6895 45.8708 54.2312 45.8708 57.3539C45.8708 58.879 45.2898 60.3072 44.2247 61.3723C43.1596 62.4374 41.7314 63.0426 40.2063 63.0426ZM40.2063 56.1436C39.5285 56.1436 38.996 56.7003 38.996 57.3539C38.996 57.6686 39.117 57.9833 39.3591 58.2012C39.577 58.419 39.8916 58.5643 40.2063 58.5643C40.521 58.5643 40.8357 58.4432 41.0536 58.2012C41.2715 57.9833 41.4167 57.6686 41.4167 57.3539C41.4167 56.7003 40.8599 56.1436 40.2063 56.1436Z" fill="#020200"/>
<path d="M48.7756 38.9081C47.5411 38.9081 46.5486 37.9156 46.5486 36.681C46.5486 35.4464 47.5411 34.454 48.7756 34.454L55.6747 34.4297C56.9092 34.4297 57.9017 35.4222 57.9017 36.6568C57.9017 37.8914 56.9092 38.8839 55.6747 38.8839L48.7756 38.9081Z" fill="#020200"/>
<path d="M48.7998 46.9449C47.5653 46.9449 46.5728 45.9524 46.5728 44.7178C46.5728 43.4833 47.5653 42.4908 48.7998 42.4908L55.6989 42.4666C56.9334 42.4666 57.9259 43.459 57.9259 44.6936C57.9259 45.9282 56.9334 46.9207 55.6989 46.9207L48.7998 46.9449Z" fill="#020200"/>
<path d="M48.7998 54.9816C47.5653 54.9816 46.5728 53.9891 46.5728 52.7546C46.5728 51.52 47.5653 50.5275 48.7998 50.5275L55.6989 50.5033C56.9334 50.5033 57.9259 51.4958 57.9259 52.7303C57.9259 53.9649 56.9334 54.9574 55.6989 54.9574L48.7998 54.9816Z" fill="#020200"/>
<path d="M48.8241 63.0184C47.5895 63.0184 46.597 62.0259 46.597 60.7913C46.597 59.5567 47.5895 58.5642 48.8241 58.5642L55.7231 58.54C56.9577 58.54 57.9502 59.5325 57.9502 60.7671C57.9502 62.0017 56.9577 62.9942 55.7231 62.9942L48.8241 63.0184Z" fill="#020200"/>
<path d="M7.52665 76.8649C6.94568 76.8649 6.36471 76.6228 5.95319 76.2113C5.54167 75.7997 5.2996 75.2188 5.2996 74.6378L5.27539 67.7388C5.27539 66.5042 6.26788 65.5117 7.50245 65.5117C8.73701 65.5117 9.72951 66.5042 9.72951 67.7388V72.3865L55.1905 72.3139V67.6661C55.1905 66.4316 56.183 65.4391 57.4176 65.4391C58.6522 65.4391 59.6447 66.4316 59.6447 67.6661L59.6689 74.5652C59.6689 75.1462 59.4268 75.7271 59.0153 76.1387C58.6037 76.5502 58.0228 76.7922 57.4418 76.7922L7.52665 76.8649Z" fill="#020200"/>
<path d="M14.3046 18.332C13.4816 18.332 12.7069 17.8721 12.2954 17.0974C11.7387 15.9839 12.1986 14.6525 13.2879 14.0957L32.7989 4.31605C33.9124 3.75929 35.2438 4.21922 35.8006 5.30855C36.3573 6.42208 35.8974 7.75347 34.8081 8.31023L15.2971 18.0899C14.9824 18.2352 14.6435 18.332 14.3046 18.332Z" fill="#020200"/>
</svg>
