<svg width="99" height="74" viewBox="0 0 99 74" fill="none" xmlns="http://www.w3.org/2000/svg">
<path d="M20.3046 37.8049C19.8112 37.8049 19.3179 37.6232 18.9544 37.2337C18.2014 36.4807 18.2014 35.2863 18.9544 34.5333C21.4989 31.9888 24.9004 30.5867 28.5095 30.5867C32.1186 30.5867 35.52 31.9888 38.0646 34.5333C38.8175 35.2863 38.8175 36.4807 38.0646 37.2337C37.3116 37.9867 36.1172 37.9867 35.3642 37.2337C33.5467 35.4161 31.106 34.4035 28.5095 34.4035C25.913 34.4035 23.4982 35.4161 21.6547 37.2337C21.2912 37.6232 20.7979 37.8049 20.3046 37.8049Z" fill="#020200"/>
<path d="M78.0245 57.5642C72.0007 57.5642 67.0673 52.6568 67.0673 46.607C67.0673 45.5425 67.9242 44.6856 68.9888 44.6856C70.0533 44.6856 70.9102 45.5425 70.9102 46.607C70.9102 50.5277 74.1038 53.7214 78.0245 53.7214C81.9452 53.7214 85.1389 50.5277 85.1389 46.607C85.1389 46.2954 85.113 45.9579 85.061 45.6463C84.9312 44.7116 85.5024 43.8547 86.3852 43.5691C91.007 42.1151 94.1228 37.8568 94.1228 33.0014C94.1228 27.8344 90.6175 23.3944 85.5803 22.2C84.7495 21.9923 84.1523 21.2653 84.1003 20.4084C83.8407 14.4625 78.9852 9.81474 73.0393 9.81474C71.4294 9.81474 69.8975 10.1523 68.4435 10.8014C67.5087 11.2168 66.3923 10.8274 65.9509 9.9186C64.0554 6.15368 60.2645 3.81684 56.0582 3.81684C50.1642 3.81684 45.2828 8.4386 44.9972 14.3326C44.9712 14.9039 44.6856 15.4232 44.2442 15.7607C43.8028 16.0982 43.2056 16.2281 42.6603 16.0982C41.8294 15.9165 40.9726 15.8126 40.1417 15.8126C35.7796 15.8126 31.807 18.3832 30.0414 22.3558C29.6 23.3165 28.4835 23.7579 27.5228 23.3165C26.5621 22.8751 26.1207 21.7586 26.5621 20.7979C28.9768 15.4491 34.2996 11.9958 40.1677 11.9958C40.6091 11.9958 41.0505 12.0218 41.4659 12.0477C42.8161 5.14105 48.8659 0 56.1102 0C61.1993 0 65.821 2.5186 68.5473 6.69895C70.0014 6.23158 71.5333 5.9979 73.0912 5.9979C80.621 5.9979 86.8526 11.5284 87.8652 18.8505C93.8891 20.8758 98.0175 26.4842 98.0175 32.9754C98.0175 38.9993 94.4603 44.3221 89.0337 46.659C88.9558 52.6828 84.0484 57.5642 78.0245 57.5642Z" fill="#020200"/>
<path d="M11.035 31.4435C10.1522 31.4435 9.34732 30.8204 9.16557 29.9376C8.10101 24.9523 9.45118 19.4997 12.7228 15.7607C15.3193 12.7748 18.7986 11.139 22.6154 11.0611C24.5368 7.60774 27.6266 5.06317 31.4435 3.86879C36.2729 2.33686 41.9073 3.01194 46.5031 5.68633C47.4119 6.23159 47.7235 7.40002 47.1782 8.30879C46.6329 9.21756 45.4645 9.52914 44.5557 8.98388C40.8947 6.82879 36.4028 6.28352 32.5859 7.50387C30.327 8.23089 27.2631 9.89265 25.4975 13.7874C25.16 14.5144 24.407 14.9558 23.6021 14.9039C20.5122 14.6702 17.6561 15.8646 15.5789 18.2793C13.0863 21.1355 12.0477 25.3158 12.8785 29.1586C13.1122 30.1972 12.4371 31.2098 11.3986 31.4435C11.3207 31.4176 11.1649 31.4435 11.035 31.4435Z" fill="#020200"/>
<path d="M42.4526 72.0526C40.9207 72.0526 39.4407 71.8449 38.0386 71.4814C34.793 70.6245 32.0147 68.8589 29.9895 66.4182C26.1726 66.7038 22.0442 65.2498 18.7467 62.4196C15.5011 59.6414 13.6316 56.0323 13.6316 52.527C13.6316 51.4624 14.4884 50.6056 15.553 50.6056C16.6176 50.6056 17.4744 51.4624 17.4744 52.527C17.4744 54.8638 18.9025 57.4603 21.2653 59.5116C23.2126 61.1733 25.4976 62.2119 27.7046 62.5235C26.9256 60.6021 26.5362 58.473 26.5362 56.24C26.5362 55.1754 27.393 54.3186 28.4576 54.3186C29.5221 54.3186 30.379 55.1754 30.379 56.24C30.379 63.0428 34.8709 66.6779 39.0772 67.7944C43.8807 69.0666 50.2681 67.7165 53.6695 61.7705C54.007 61.1733 54.6302 60.8098 55.3312 60.8098C56.0063 60.8098 56.6555 61.1733 56.993 61.7705C58.6807 64.7045 61.8484 66.548 65.2498 66.548C67.7944 66.548 70.1832 65.5614 72.0007 63.7438C72.7537 62.9909 73.9481 62.9909 74.7011 63.7438C75.4541 64.4968 75.4541 65.6912 74.7011 66.4442C72.1825 68.9628 68.833 70.3649 65.2498 70.3649C61.459 70.3649 57.9018 68.7551 55.3832 66.0287C51.8779 70.287 46.9965 72.0526 42.4526 72.0526Z" fill="#020200"/>
<path d="M80.5693 74C76.8563 74 72.7019 72.6758 68.911 68.7551C68.184 68.0021 68.21 66.7818 68.9629 66.0547C69.7159 65.3277 70.9363 65.3537 71.6633 66.1067C76.7784 71.4295 82.3608 70.4947 85.4507 69.1705C83.5033 67.0674 83.4254 64.7046 83.3475 62.5755C83.2696 60.3684 83.1917 58.2653 81.2703 55.7986C80.6212 54.9677 80.777 53.7734 81.6079 53.1242C82.4387 52.4751 83.6331 52.6309 84.2822 53.4618C86.9566 56.8891 87.0605 59.979 87.1643 62.4456C87.2682 65.0162 87.2942 66.3144 89.7608 67.7165C90.3061 68.0281 90.6436 68.5733 90.6956 69.1965C90.7475 69.8197 90.5138 70.4169 90.0464 70.8323C88.3328 72.3123 84.7496 74 80.5693 74Z" fill="#020200"/>
<path d="M66.8856 24.2772C61.0695 24.2772 56.3179 19.5516 56.3179 13.7095C56.3179 12.6449 57.1747 11.7881 58.2393 11.7881C59.3038 11.7881 60.1607 12.6449 60.1607 13.7095C60.1607 17.4225 63.1726 20.4344 66.8856 20.4344C68.6772 20.4344 70.3649 19.7334 71.6372 18.4611C72.3902 17.7081 73.5845 17.7081 74.3375 18.4611C75.0905 19.2141 75.0905 20.4084 74.3375 21.1614C72.3642 23.1607 69.7158 24.2772 66.8856 24.2772Z" fill="#020200"/>
<path d="M76.908 41.9852C76.8301 41.9852 76.7782 41.9852 76.7003 41.9852C75.6617 41.8814 74.8828 40.9466 74.9866 39.8821C75.0126 39.7263 75.0126 39.5445 75.0126 39.3887C75.0126 36.7144 72.8316 34.5333 70.1572 34.5333C69.3003 34.5333 68.4694 34.767 67.7424 35.1824C66.8337 35.7017 65.6652 35.3901 65.12 34.4814C64.6007 33.5726 64.9122 32.4042 65.821 31.8589C67.1452 31.1059 68.6512 30.6905 70.1572 30.6905C74.9347 30.6905 78.8294 34.5852 78.8294 39.3628C78.8294 39.6484 78.8035 39.96 78.7775 40.2456C78.6996 41.2582 77.8687 41.9852 76.908 41.9852Z" fill="#020200"/>
<path d="M75.6099 36.3249C75.1165 36.3249 74.6232 36.1432 74.2597 35.7537C73.5067 35.0007 73.5067 33.8063 74.2597 33.0534C77.4534 29.8597 82.0492 28.5874 86.2814 29.7299C87.2941 30.0155 87.9172 31.0541 87.6316 32.0667C87.346 33.0793 86.3074 33.7025 85.2948 33.4169C82.3867 32.6379 79.193 33.5207 76.986 35.7537C76.5965 36.1172 76.1032 36.3249 75.6099 36.3249Z" fill="#020200"/>
<path d="M12.567 53.7733C19.5076 53.7733 25.134 48.1469 25.134 41.2063C25.134 34.2657 19.5076 28.6393 12.567 28.6393C5.62645 28.6393 0 34.2657 0 41.2063C0 48.1469 5.62645 53.7733 12.567 53.7733Z" fill="#A36FFF"/>
<path d="M44.4518 53.7733C51.3924 53.7733 57.0188 48.1469 57.0188 41.2063C57.0188 34.2657 51.3924 28.6393 44.4518 28.6393C37.5112 28.6393 31.8848 34.2657 31.8848 41.2063C31.8848 48.1469 37.5112 53.7733 44.4518 53.7733Z" fill="#A36FFF"/>
</svg>
