<svg width="31" height="31" viewBox="0 0 31 31" fill="none" xmlns="http://www.w3.org/2000/svg">
<g clip-path="url(#clip0_40_328)">
<path d="M30.3555 19.6477L24.709 17.6828V4.36523H26.1621C26.419 4.36523 26.6654 4.26317 26.8471 4.08149C27.0288 3.89982 27.1309 3.65341 27.1309 3.39648C27.1309 3.13956 27.0288 2.89315 26.8471 2.71147C26.6654 2.5298 26.419 2.42773 26.1621 2.42773H24.709V0.974609C24.709 0.717681 24.6069 0.471276 24.4252 0.2896C24.2436 0.107924 23.9972 0.00585938 23.7402 0.00585938C23.4833 0.00585938 23.2369 0.107924 23.0552 0.2896C22.8735 0.471276 22.7715 0.717681 22.7715 0.974609V2.42773H4.36523V0.974609C4.36523 0.717681 4.26317 0.471276 4.08149 0.2896C3.89982 0.107924 3.65341 0.00585938 3.39648 0.00585938C3.13956 0.00585938 2.89315 0.107924 2.71147 0.2896C2.5298 0.471276 2.42773 0.717681 2.42773 0.974609V2.42773H0.974609C0.717681 2.42773 0.471276 2.5298 0.2896 2.71147C0.107924 2.89315 0.00585938 3.13956 0.00585938 3.39648C0.00585938 3.65341 0.107924 3.89982 0.2896 4.08149C0.471276 4.26317 0.717681 4.36523 0.974609 4.36523H2.42773V22.7715H0.974609C0.717681 22.7715 0.471276 22.8736 0.2896 23.0552C0.107924 23.2369 0.00585938 23.4833 0.00585938 23.7402C0.00585938 23.9972 0.107924 24.2436 0.2896 24.4252C0.471276 24.6069 0.717681 24.709 0.974609 24.709H2.42773V26.1621C2.42773 26.419 2.5298 26.6654 2.71147 26.8471C2.89315 27.0288 3.13956 27.1309 3.39648 27.1309C3.65341 27.1309 3.89982 27.0288 4.08149 26.8471C4.26317 26.6654 4.36523 26.419 4.36523 26.1621V24.709H17.6828L19.6476 30.3555C19.7168 30.5437 19.8424 30.7061 20.0073 30.8204C20.1721 30.9346 20.3682 30.9953 20.5688 30.9939C20.7694 30.9926 20.9647 30.9294 21.1281 30.813C21.2914 30.6966 21.4149 30.5326 21.4816 30.3434L23.6972 23.697L30.3436 21.4816C30.5328 21.4148 30.6967 21.2913 30.8131 21.128C30.9295 20.9646 30.9926 20.7693 30.9939 20.5688C30.9952 20.3682 30.9346 20.1721 30.8203 20.0073C30.7061 19.8424 30.5437 19.7168 30.3555 19.6477ZM13.5684 22.7715H4.36523V4.36523H22.7715V17.0086L20.5168 16.224L22.4877 14.2533C22.668 14.0709 22.7692 13.8248 22.7692 13.5684C22.7692 13.3119 22.668 13.0658 22.4877 12.8834L14.2533 4.64905C14.1634 4.55907 14.0566 4.4877 13.9391 4.439C13.8215 4.3903 13.6956 4.36524 13.5684 4.36524C13.4411 4.36524 13.3152 4.3903 13.1977 4.439C13.0801 4.4877 12.9734 4.55907 12.8834 4.64905L4.64905 12.8834C4.55907 12.9734 4.4877 13.0801 4.439 13.1977C4.3903 13.3152 4.36524 13.4411 4.36524 13.5684C4.36524 13.6956 4.3903 13.8215 4.439 13.9391C4.4877 14.0566 4.55907 14.1634 4.64905 14.2533L12.8834 22.4877C12.9734 22.5777 13.0801 22.649 13.1977 22.6977C13.3152 22.7464 13.4411 22.7715 13.5684 22.7715C13.6956 22.7715 13.8215 22.7464 13.9391 22.6977C14.0566 22.649 14.1634 22.5777 14.2533 22.4877L16.224 20.5171L17.0086 22.7715L13.5684 22.7715ZM15.8242 14.591C15.6525 14.5339 15.4682 14.5257 15.292 14.5673C15.1159 14.6089 14.9548 14.6988 14.8268 14.8268C14.6988 14.9548 14.6089 15.1159 14.5673 15.292C14.5257 15.4682 14.5339 15.6525 14.591 15.8242L15.5168 18.4846L13.5684 20.4326L6.70386 13.5684L13.5684 6.7041L20.4329 13.5684L18.4843 15.5167L15.8242 14.591ZM22.6248 22.0121C22.4822 22.0597 22.3526 22.1399 22.2463 22.2462C22.14 22.3526 22.0599 22.4822 22.0123 22.6249L20.5426 27.033L17.0791 17.0791L27.0329 20.5428L22.6248 22.0121Z" fill="black"/>
<path d="M13.084 14.0527C13.619 14.0527 14.0527 13.619 14.0527 13.084C14.0527 12.549 13.619 12.1152 13.084 12.1152C12.549 12.1152 12.1152 12.549 12.1152 13.084C12.1152 13.619 12.549 14.0527 13.084 14.0527Z" fill="black"/>
</g>
<defs>
<clipPath id="clip0_40_328">
<rect width="31" height="31" fill="white"/>
</clipPath>
</defs>
</svg>
