<svg width="29" height="29" viewBox="0 0 29 29" fill="none" xmlns="http://www.w3.org/2000/svg">
<path fill-rule="evenodd" clip-rule="evenodd" d="M18.9452 10.0547C20.1695 11.279 22.1545 11.279 23.3789 10.0547C24.6032 8.83031 24.6032 6.84525 23.3789 5.6209C22.1545 4.39655 20.1695 4.39655 18.9452 5.6209C17.7207 6.84525 17.7207 8.83031 18.9452 10.0547ZM20.0536 8.94621C20.6658 9.55839 21.6583 9.55839 22.2705 8.94621C22.8826 8.33405 22.8826 7.34151 22.2705 6.72934C21.6583 6.11718 20.6658 6.11718 20.0536 6.72934C19.4413 7.34151 19.4413 8.33405 20.0536 8.94621Z" fill="black"/>
<path d="M15.5683 19.0215C15.7463 19.4566 16.2254 19.6995 16.6714 19.5509C17.1174 19.4023 17.3608 18.9185 17.1863 18.482C15.9203 15.3152 13.6847 13.0798 10.5178 11.8136C10.0814 11.6391 9.59771 11.8827 9.44907 12.3285C9.30042 12.7745 9.54336 13.2536 9.97844 13.4316C12.6313 14.517 14.4829 16.3686 15.5683 19.0215Z" fill="black"/>
<path fill-rule="evenodd" clip-rule="evenodd" d="M21.215 0.508651C23.4411 0.0117965 25.5379 -0.0293948 26.8287 0.0122726C28.0168 0.0506223 28.9497 0.983548 28.9879 2.17162C29.0296 3.46226 28.9884 5.55917 28.4916 7.78525C27.9959 10.0061 27.032 12.4203 25.1794 14.2729L25.1428 14.3095C23.6454 15.8069 22.4693 16.983 21.4968 17.825L21.8872 21.3388C21.9424 21.8346 21.7691 22.3286 21.4163 22.6814L17.9305 26.167C17.0969 27.0009 15.6823 26.7105 15.2442 25.6157L13.6296 21.579L8.44757 22.4426C7.33599 22.6279 6.37227 21.6643 6.55753 20.5525L7.42121 15.3705L3.38448 13.7559C2.28973 13.318 1.99935 11.9034 2.8331 11.0696L6.31879 7.58392C6.67159 7.23112 7.16562 7.05783 7.66151 7.11292L11.1751 7.50333C12.0173 6.53086 13.1932 5.35483 14.6908 3.85731L14.7272 3.8208C16.5798 1.96819 18.9941 1.00436 21.215 0.508651ZM21.5727 2.1116C19.5232 2.56908 17.4409 3.42983 15.8885 4.98215C14.1667 6.70406 12.9498 7.92224 12.1536 8.88972L11.8709 9.23313L7.48012 8.74527L3.99445 12.2309L8.03118 13.8457C8.74778 14.1323 9.16814 14.8792 9.04125 15.6405L8.17756 20.8225L13.3596 19.959C14.121 19.832 14.868 20.2523 15.1546 20.969L16.7692 25.0057L20.2548 21.5201L19.7671 17.1293L20.1105 16.8467C21.078 16.0503 22.2962 14.8334 24.018 13.1115C25.5704 11.5593 26.4312 9.47704 26.8886 7.42745C27.3449 5.38306 27.3854 3.43539 27.3465 2.2246C27.336 1.90202 27.0982 1.66422 26.7756 1.65381C25.5649 1.61472 23.6171 1.65528 21.5727 2.1116Z" fill="black"/>
<path fill-rule="evenodd" clip-rule="evenodd" d="M8.09531 28.7794C7.75209 28.4853 7.75209 28.0083 8.09531 27.714L11.824 24.5179C12.1673 24.2238 12.7238 24.2238 13.0669 24.5179C13.4102 24.8122 13.4102 25.2892 13.0669 25.5833L9.33823 28.7794C8.995 29.0736 8.43852 29.0736 8.09531 28.7794Z" fill="black"/>
<path fill-rule="evenodd" clip-rule="evenodd" d="M0.22064 20.9048C-0.0735466 20.5617 -0.0735466 20.0052 0.22064 19.6619L3.4167 15.9331C3.7109 15.59 4.18788 15.59 4.48206 15.9331C4.77625 16.2764 4.77625 16.8329 4.48206 17.176L1.286 20.9048C0.991813 21.2481 0.514826 21.2481 0.22064 20.9048Z" fill="black"/>
<path fill-rule="evenodd" clip-rule="evenodd" d="M1.78802 27.1751C1.49384 26.8319 1.49384 26.2754 1.78802 25.9321L4.98409 22.2034C5.27827 21.8603 5.75524 21.8603 6.04945 22.2034C6.34363 22.5467 6.34363 23.1032 6.04945 23.4463L2.85338 27.1751C2.55918 27.5184 2.08221 27.5184 1.78802 27.1751Z" fill="black"/>
</svg>
