<svg width="106" height="80" viewBox="0 0 106 80" fill="none" xmlns="http://www.w3.org/2000/svg">
<path d="M16.6196 10.8701H89.3521V64.9024H16.6196V10.8701Z" fill="#46BEAA"/>
<path d="M103.916 62.834H99.7505V2.56836C99.7505 1.43501 98.8155 0.5 97.6822 0.5H8.31787C7.18453 0.5 6.24951 1.43501 6.24951 2.56836V62.834H2.08447C0.951124 62.834 0.0161133 63.769 0.0161133 64.9024C0.0161133 72.9208 6.53285 79.4375 14.5513 79.4375H91.4488C99.4672 79.4375 105.984 72.9208 105.984 64.9024C105.984 63.769 105.049 62.834 103.916 62.834ZM10.3862 4.63671H95.6138V62.834H10.3862V4.63671ZM91.4488 75.3008H14.5513C9.53622 75.3008 5.31451 71.7308 4.35116 66.9707H101.621C100.686 71.7308 96.4638 75.3008 91.4488 75.3008Z" fill="black"/>
<path d="M35.8015 45.1255C41.1566 43.8788 47.7016 45.1822 51.5833 48.7805C52.3767 49.5172 53.595 49.5172 54.3884 48.7805C58.2701 45.2105 64.8151 43.8505 70.1702 45.1255C71.4736 45.4372 72.7202 44.4455 72.7202 43.1138V19.7385C72.7202 18.7752 72.0686 17.9535 71.1335 17.7269C65.2402 16.3385 58.0717 17.4435 52.9717 21.2402C47.7583 17.4435 40.6465 16.2535 34.8098 17.7552C33.9031 17.9819 33.2515 18.8035 33.2515 19.7669V43.1421C33.2798 44.4455 34.4981 45.4372 35.8015 45.1255ZM68.5835 21.4669V40.6771C64.0501 40.1671 59.1201 41.0171 55.0684 43.2555V24.8386C58.6667 21.9769 63.9651 20.8152 68.5835 21.4669ZM37.4165 21.4386C41.9782 20.7586 47.1916 21.9202 50.9317 24.8669V43.2555C46.8799 41.0171 41.9499 40.1671 37.4165 40.6771V21.4386Z" fill="black"/>
<path d="M81.0503 54.5322H24.9497C23.8164 54.5322 22.8813 55.4672 22.8813 56.6006C22.8813 57.7339 23.8164 58.6689 24.9497 58.6689H81.0503C82.1837 58.6689 83.1187 57.7339 83.1187 56.6006C83.1187 55.4389 82.212 54.5322 81.0503 54.5322Z" fill="black"/>
</svg>
