<svg width="76" height="87" viewBox="0 0 76 87" fill="none" xmlns="http://www.w3.org/2000/svg">
<path d="M33.3505 56.3662C45.8877 56.3662 56.0512 46.3043 56.0512 33.8925C56.0512 21.4806 45.8877 11.4188 33.3505 11.4188C20.8132 11.4188 10.6498 21.4806 10.6498 33.8925C10.6498 46.3043 20.8132 56.3662 33.3505 56.3662Z" fill="#3196FF"/>
<path fill-rule="evenodd" clip-rule="evenodd" d="M61.9758 31.8169C60.897 17.0483 48.4013 5.41537 33.1823 5.5002C17.3636 5.6078 4.5396 18.5064 4.66905 34.1513L4.66907 34.1534C4.73375 42.9325 8.84924 50.7784 15.245 55.9602C18.1402 58.2853 19.7703 61.7959 19.7703 65.4529V82.2618H46.9385V69.6147C46.9385 68.3377 47.9835 67.3026 49.2726 67.3026H59.3323C60.837 67.3026 62.0397 66.102 62.0397 64.6205V49.6613C62.0397 48.3843 63.0847 47.3492 64.3738 47.3492H70.2045L63.8483 37.3946L63.8435 37.387C62.7908 35.7242 62.1219 33.8137 61.9758 31.8172L61.9758 31.8169ZM66.6317 31.4832C65.3765 14.2991 50.8448 0.776667 33.1545 0.876094L33.1518 0.876111C14.7545 1.00042 -0.148914 15.9848 0.00112299 34.1881C0.0767761 44.4121 4.87547 53.535 12.2945 59.5436L12.3028 59.5503C14.0732 60.9708 15.1023 63.1464 15.1023 65.4529V84.5739C15.1023 85.8509 16.1473 86.886 17.4363 86.886H49.2726C50.5616 86.886 51.6066 85.8509 51.6066 84.5739V71.9268H59.3323C63.4292 71.9268 66.7078 68.6419 66.7078 64.6205V51.9734H70.699C74.1615 51.9734 76.2686 48.2207 74.4269 45.3116L74.4221 45.304L67.7983 34.9302C67.7976 34.9291 67.7968 34.928 67.7961 34.9269C67.123 33.8624 66.719 32.676 66.6317 31.4832Z" fill="black"/>
<path fill-rule="evenodd" clip-rule="evenodd" d="M38.9202 19.3047C39.8254 18.4085 41.293 18.4085 42.1982 19.3047L48.0857 25.1333C48.9909 26.0294 48.9909 27.4824 48.0857 28.3785L33.9464 42.3763C33.0412 43.2725 31.5736 43.2725 30.6684 42.3763C29.7632 41.4802 29.7632 40.0272 30.6684 39.1311L43.1686 26.7559L40.5592 24.1725L28.059 36.5477C27.1538 37.4439 25.6861 37.4439 24.7809 36.5477C23.8758 35.6516 23.8758 34.1986 24.7809 33.3025L38.9202 19.3047Z" fill="black"/>
<path fill-rule="evenodd" clip-rule="evenodd" d="M27.453 32.6773C28.6329 33.1569 29.1966 34.4927 28.712 35.6608L26.7244 40.4524L31.5644 38.4846C32.7442 38.0049 34.0935 38.5629 34.578 39.731C35.0626 40.899 34.4989 42.2348 33.319 42.7145L23.3653 46.7613C22.5036 47.1117 21.5137 46.9152 20.855 46.2631C20.1963 45.611 19.9978 44.6309 20.3517 43.7778L24.4394 33.9236C24.9239 32.7556 26.2732 32.1976 27.453 32.6773Z" fill="black"/>
<path fill-rule="evenodd" clip-rule="evenodd" d="M34.3178 23.752C35.2339 22.8451 36.7191 22.8451 37.6352 23.752L43.5934 29.6507C44.5095 30.5576 44.5095 32.028 43.5934 32.9349C42.6773 33.8418 41.1921 33.8418 40.276 32.9349L34.3178 27.0362C33.4017 26.1293 33.4017 24.6589 34.3178 23.752Z" fill="black"/>
</svg>
