<svg width="96" height="35" viewBox="0 0 96 35" fill="none" xmlns="http://www.w3.org/2000/svg">
<path d="M3.91662 2.85975C3.91486 2.91187 3.91486 2.97388 3.91486 3.09791V3.55985C3.91486 3.68387 3.91486 3.74589 3.91662 3.79802C3.97387 5.35281 5.26855 6.60024 6.88205 6.65596C6.93666 6.65776 7.00095 6.65776 7.13042 6.65776C7.25901 6.65776 7.3233 6.65776 7.37703 6.65596C8.99141 6.60024 10.287 5.35281 10.3433 3.79802C10.346 3.74589 10.346 3.68387 10.346 3.55985V3.09791C10.346 2.97388 10.346 2.91187 10.3433 2.85975C10.287 1.30495 8.99141 0.0566186 7.37791 0.00179673C7.3233 2.5917e-07 7.25901 0 7.13042 0C7.00095 0 6.93666 2.5917e-07 6.88205 0.00179673C5.26855 0.0566186 3.97387 1.30495 3.91662 2.85975ZM46.043 13.8853V26.6302C46.043 28.8464 46.8815 29.8449 49.5289 29.8449C50.6378 29.8449 51.7281 29.5303 52.3808 29.2931V34.4293C51.271 34.8095 49.5747 35 48.1867 35C42.6222 35 39.9844 32.1555 39.9844 27.2386V1.52154H46.043V9.70085H52.3808V13.8862H46.043V13.8853Z" fill="#FF7A00"/>
<path fill-rule="evenodd" clip-rule="evenodd" d="M54.4311 21.6323C54.4311 14.083 59.0964 8.94053 66.5623 8.94053C74.5392 8.94053 78.4928 14.8793 78.0753 23.4909H60.6553C60.9706 27.909 63.0024 30.1496 66.6011 30.1496C69.6432 30.1496 71.2575 28.6523 71.9533 26.5349H77.8718C76.7216 31.7259 72.6931 35 66.5632 35C58.9942 35 54.4311 29.906 54.4311 22.2597V21.6314V21.6323ZM66.5165 13.888C63.1962 13.888 61.2119 15.7016 60.6553 19.3073L71.9903 19.2121C71.6644 15.8481 69.8836 13.888 66.5165 13.888Z" fill="#FF7A00"/>
<path d="M27.8215 8.94053C23.9251 8.94053 21.5207 11.2898 20.3176 13.6004L20.0385 9.70085H14.2608V34.2388H20.3185V20.4478C20.3185 16.3775 22.4341 13.8862 25.6311 13.8862C28.8282 13.8862 30.0119 16.045 30.0119 19.7819V34.2388H36.0696V18.4509C36.0793 12.9731 33.7488 8.94053 27.8215 8.94053ZM87.5185 13.6004C89.0563 10.5286 92.197 8.94053 94.5556 8.94053C94.9748 8.94053 95.6363 8.99715 96 9.08253V13.8862C95.4147 13.8256 94.8268 13.7938 94.2385 13.791C89.9326 13.791 87.5185 16.435 87.5185 20.9241V34.2388H81.4591V9.70085H87.3309L87.5176 13.6004H87.5185ZM0 9.70085V13.8808H4.09894V34.2388H10.1593V9.70085H0Z" fill="#FF7A00"/>
</svg>
