<svg width="97" height="29" viewBox="0 0 97 29" fill="none" xmlns="http://www.w3.org/2000/svg">
<g clip-path="url(#clip0_155_2)">
<path d="M22.8381 16.5205V18.4845C22.9893 18.3862 23.1185 18.2577 23.2177 18.1071C23.3168 17.9565 23.3837 17.7871 23.4143 17.6093C23.4589 17.3892 23.4258 17.1605 23.3208 16.962C23.2158 16.7635 23.0452 16.6075 22.8381 16.5205Z" fill="#A36FFF"/>
<path d="M21.1986 13.7195C21.1546 13.8514 21.1585 13.9946 21.2097 14.1238C21.261 14.253 21.3563 14.3599 21.4787 14.4257V13.2139C21.3352 13.3493 21.2373 13.526 21.1986 13.7195Z" fill="#A36FFF"/>
<path d="M22.2031 9.28857C20.9036 9.28857 19.6333 9.67392 18.5529 10.3959C17.4724 11.1178 16.6302 12.144 16.133 13.3445C15.6357 14.5451 15.5055 15.8662 15.7591 17.1407C16.0126 18.4152 16.6383 19.5859 17.5572 20.5048C18.4761 21.4237 19.6468 22.0494 20.9213 22.303C22.1958 22.5565 23.5169 22.4264 24.7175 21.9291C25.918 21.4318 26.9442 20.5896 27.6661 19.5092C28.3881 18.4287 28.7734 17.1584 28.7734 15.8589C28.7714 14.1169 28.0786 12.4469 26.8468 11.2152C25.6151 9.98345 23.9451 9.29058 22.2031 9.28857ZM24.7551 17.8345C24.6677 18.331 24.4412 18.7926 24.1019 19.1655C23.7625 19.5384 23.3243 19.8073 22.8381 19.941V20.3902C22.8381 20.5704 22.7665 20.7433 22.639 20.8708C22.5116 20.9982 22.3387 21.0698 22.1584 21.0698C21.9782 21.0698 21.8053 20.9982 21.6778 20.8708C21.5504 20.7433 21.4787 20.5704 21.4787 20.3902V20.0157C20.9174 19.9609 20.3806 19.7579 19.9233 19.4277C19.7725 19.329 19.667 19.1744 19.6301 18.998C19.5932 18.8215 19.6279 18.6376 19.7266 18.4867C19.8253 18.3359 19.9799 18.2304 20.1564 18.1935C20.3329 18.1566 20.5168 18.1913 20.6676 18.29C20.9075 18.4693 21.1848 18.5918 21.4787 18.6485V15.9717C20.3946 15.4709 19.6076 14.8231 19.8631 13.468C19.9342 13.0506 20.1245 12.6627 20.4112 12.351C20.6979 12.0394 21.0687 11.8175 21.4787 11.712V11.3276C21.4787 11.1474 21.5503 10.9745 21.6778 10.847C21.8053 10.7196 21.9782 10.6479 22.1584 10.6479C22.3387 10.6479 22.5116 10.7196 22.639 10.847C22.7665 10.9745 22.8381 11.1474 22.8381 11.3276V11.6654C23.2912 11.7507 23.7143 11.9523 24.0661 12.2503C24.1982 12.3719 24.2768 12.5408 24.2847 12.7202C24.2926 12.8995 24.2293 13.0747 24.1084 13.2075C23.9876 13.3403 23.8191 13.4199 23.6398 13.4289C23.4605 13.4378 23.2849 13.3755 23.1514 13.2554C23.0555 13.1822 22.9501 13.1222 22.8381 13.0772V15.0613C22.9458 15.1012 23.0533 15.1402 23.1589 15.1776C23.7023 15.3511 24.1639 15.7164 24.4577 16.2053C24.7514 16.6942 24.8571 17.2733 24.7551 17.8345Z" fill="#A36FFF"/>
<path d="M1.28325 8.72152L3.625 7.16041L5.66406 8.51975V28.0929C5.66417 28.2108 5.69491 28.3266 5.75325 28.429C5.8116 28.5314 5.89555 28.6168 5.99688 28.677C6.09821 28.7372 6.21344 28.77 6.33126 28.7722C6.44909 28.7744 6.56547 28.746 6.66899 28.6896L8.83815 27.5077L11.0073 28.6896C11.1071 28.7441 11.219 28.7726 11.3327 28.7726C11.4463 28.7726 11.5582 28.7441 11.658 28.6896L13.8249 27.508L15.9899 28.6894C16.0898 28.744 16.2017 28.7726 16.3156 28.7727C16.4294 28.7727 16.5414 28.7442 16.6413 28.6896L18.8078 27.5078L20.9734 28.6896C21.0733 28.7441 21.1853 28.7726 21.2991 28.7726C21.4129 28.7726 21.5248 28.7441 21.6248 28.6896L23.79 27.508L25.9556 28.6896C26.0591 28.746 26.1755 28.7745 26.2934 28.7723C26.4113 28.7701 26.5265 28.7373 26.6279 28.6771C26.7293 28.617 26.8133 28.5315 26.8717 28.4291C26.93 28.3267 26.9608 28.2108 26.9609 28.0929V23.5618C26.9609 23.3816 26.8893 23.2087 26.7619 23.0812C26.6344 22.9537 26.4615 22.8821 26.2812 22.8821C26.101 22.8821 25.9281 22.9537 25.8006 23.0812C25.6732 23.2087 25.6016 23.3816 25.6016 23.5618V26.9478L24.1156 26.1369C24.0157 26.0825 23.9037 26.054 23.7899 26.054C23.6762 26.054 23.5642 26.0825 23.4643 26.1369L21.2991 27.3186L19.1335 26.1369C19.0335 26.0825 18.9216 26.054 18.8078 26.054C18.694 26.054 18.582 26.0825 18.4821 26.1369L16.3156 27.3186L14.1509 26.1372C14.051 26.0826 13.9391 26.054 13.8253 26.0539C13.7115 26.0539 13.5996 26.0824 13.4997 26.1369L11.3323 27.3188L9.1634 26.1369C9.06364 26.0825 8.9518 26.054 8.83816 26.054C8.72451 26.054 8.61268 26.0825 8.51291 26.1369L7.02344 26.9484V3.6249C7.0242 2.88923 6.78503 2.17337 6.3422 1.5859H23.5625C24.1031 1.58648 24.6214 1.80149 25.0037 2.18375C25.3859 2.56601 25.601 3.0843 25.6016 3.6249V8.15602C25.6016 8.33628 25.6732 8.50916 25.8006 8.63663C25.9281 8.7641 26.101 8.83571 26.2812 8.83571C26.4615 8.83571 26.6344 8.7641 26.7619 8.63663C26.8893 8.50916 26.9609 8.33628 26.9609 8.15602V3.6249C26.9599 2.72389 26.6016 1.86008 25.9645 1.22298C25.3273 0.585879 24.4635 0.227533 23.5625 0.226562H3.625C2.72399 0.227533 1.86017 0.585879 1.22305 1.22298C0.585931 1.86008 0.227559 2.72389 0.226562 3.6249V8.15602C0.226713 8.27898 0.260195 8.3996 0.323447 8.50504C0.386698 8.61049 0.477353 8.69681 0.585764 8.75483C0.694175 8.81285 0.816287 8.84039 0.939107 8.83452C1.06193 8.82866 1.18086 8.78961 1.28325 8.72152ZM1.58594 3.6249C1.58594 3.08411 1.80077 2.56546 2.18317 2.18307C2.56556 1.80067 3.08421 1.58584 3.625 1.58584C4.16579 1.58584 4.68444 1.80067 5.06683 2.18307C5.44923 2.56546 5.66406 3.08411 5.66406 3.6249V6.88607L4.002 5.77807C3.89036 5.70363 3.75917 5.66391 3.62499 5.66391C3.4908 5.66391 3.35962 5.70363 3.24797 5.77807L1.58594 6.88607V3.6249Z" fill="black"/>
<path d="M19.9375 3.85107H12.6875C12.5072 3.85107 12.3344 3.92268 12.2069 4.05015C12.0794 4.17762 12.0078 4.3505 12.0078 4.53076C12.0078 4.71103 12.0794 4.88391 12.2069 5.01137C12.3344 5.13884 12.5072 5.21045 12.6875 5.21045H19.9375C20.1178 5.21045 20.2906 5.13884 20.4181 5.01137C20.5456 4.88391 20.6172 4.71103 20.6172 4.53076C20.6172 4.3505 20.5456 4.17762 20.4181 4.05015C20.2906 3.92268 20.1178 3.85107 19.9375 3.85107Z" fill="black"/>
<path d="M12.0078 23.562C12.0078 23.6513 12.0254 23.7397 12.0595 23.8221C12.0937 23.9046 12.1437 23.9795 12.2069 24.0427C12.27 24.1058 12.3449 24.1558 12.4274 24.19C12.5098 24.2241 12.5982 24.2417 12.6875 24.2417H19.9375C20.1178 24.2417 20.2906 24.1701 20.4181 24.0426C20.5456 23.9152 20.6172 23.7423 20.6172 23.562C20.6172 23.3817 20.5456 23.2089 20.4181 23.0814C20.2906 22.9539 20.1178 22.8823 19.9375 22.8823H12.6875C12.5982 22.8823 12.5098 22.8999 12.4274 22.934C12.3449 22.9682 12.27 23.0183 12.2069 23.0814C12.1437 23.1445 12.0937 23.2194 12.0595 23.3019C12.0254 23.3844 12.0078 23.4728 12.0078 23.562Z" fill="black"/>
<path d="M10.875 10.1948H9.51562C9.33536 10.1948 9.16248 10.2664 9.03501 10.3939C8.90755 10.5214 8.83594 10.6942 8.83594 10.8745C8.83594 11.0548 8.90755 11.2277 9.03501 11.3551C9.16248 11.4826 9.33536 11.5542 9.51562 11.5542H10.875C11.0553 11.5542 11.2281 11.4826 11.3556 11.3551C11.4831 11.2277 11.5547 11.0548 11.5547 10.8745C11.5547 10.6942 11.4831 10.5214 11.3556 10.3939C11.2281 10.2664 11.0553 10.1948 10.875 10.1948Z" fill="black"/>
<path d="M13.1406 11.5542H15.4062C15.5865 11.5542 15.7594 11.4826 15.8869 11.3551C16.0143 11.2277 16.0859 11.0548 16.0859 10.8745C16.0859 10.6942 16.0143 10.5214 15.8869 10.3939C15.7594 10.2664 15.5865 10.1948 15.4062 10.1948H13.1406C12.9604 10.1948 12.7875 10.2664 12.66 10.3939C12.5325 10.5214 12.4609 10.6942 12.4609 10.8745C12.4609 11.0548 12.5325 11.2277 12.66 11.3551C12.7875 11.4826 12.9604 11.5542 13.1406 11.5542Z" fill="black"/>
<path d="M10.875 13.8198H9.51562C9.42637 13.8198 9.33798 13.8374 9.25552 13.8716C9.17306 13.9057 9.09813 13.9558 9.03501 14.0189C8.9719 14.082 8.92183 14.1569 8.88768 14.2394C8.85352 14.3219 8.83594 14.4103 8.83594 14.4995C8.83594 14.5888 8.85352 14.6772 8.88768 14.7596C8.92183 14.8421 8.9719 14.917 9.03501 14.9801C9.09813 15.0432 9.17306 15.0933 9.25552 15.1275C9.33798 15.1616 9.42637 15.1792 9.51562 15.1792H10.875C11.0553 15.1792 11.2281 15.1076 11.3556 14.9801C11.4831 14.8527 11.5547 14.6798 11.5547 14.4995C11.5547 14.3192 11.4831 14.1464 11.3556 14.0189C11.2281 13.8914 11.0553 13.8198 10.875 13.8198Z" fill="black"/>
<path d="M13.1406 15.1792H14.0469C14.2271 15.1792 14.4 15.1076 14.5275 14.9801C14.655 14.8527 14.7266 14.6798 14.7266 14.4995C14.7266 14.3192 14.655 14.1464 14.5275 14.0189C14.4 13.8914 14.2271 13.8198 14.0469 13.8198H13.1406C12.9604 13.8198 12.7875 13.8914 12.66 14.0189C12.5325 14.1464 12.4609 14.3192 12.4609 14.4995C12.4609 14.6798 12.5325 14.8527 12.66 14.9801C12.7875 15.1076 12.9604 15.1792 13.1406 15.1792Z" fill="black"/>
<path d="M10.875 17.4448H9.51562C9.33536 17.4448 9.16248 17.5164 9.03501 17.6439C8.90755 17.7714 8.83594 17.9442 8.83594 18.1245C8.83594 18.3048 8.90755 18.4777 9.03501 18.6051C9.16248 18.7326 9.33536 18.8042 9.51562 18.8042H10.875C11.0553 18.8042 11.2281 18.7326 11.3556 18.6051C11.4831 18.4777 11.5547 18.3048 11.5547 18.1245C11.5547 17.9442 11.4831 17.7714 11.3556 17.6439C11.2281 17.5164 11.0553 17.4448 10.875 17.4448Z" fill="black"/>
<path d="M13.1406 18.8042H14.0469C14.2271 18.8042 14.4 18.7326 14.5275 18.6051C14.655 18.4777 14.7266 18.3048 14.7266 18.1245C14.7266 17.9442 14.655 17.7714 14.5275 17.6439C14.4 17.5164 14.2271 17.4448 14.0469 17.4448H13.1406C12.9604 17.4448 12.7875 17.5164 12.66 17.6439C12.5325 17.7714 12.4609 17.9442 12.4609 18.1245C12.4609 18.3048 12.5325 18.4777 12.66 18.6051C12.7875 18.7326 12.9604 18.8042 13.1406 18.8042Z" fill="black"/>
</g>
<path d="M38.962 5.818C37.912 5.818 37.184 6.378 36.862 7.176H36.722L36.806 6.672L37.114 6.182V2.92H35.784V13H36.806V12.426L36.722 11.74H36.862C37.184 12.538 37.912 13.112 38.976 13.112C40.586 13.112 41.44 11.768 41.44 9.472C41.44 7.134 40.586 5.818 38.962 5.818ZM38.584 12.02C37.618 12.02 37.114 11.166 37.1 9.458C37.058 7.848 37.576 6.896 38.584 6.896C39.564 6.896 40.068 7.75 40.082 9.458C40.096 11.04 39.592 12.02 38.584 12.02ZM42.3907 9.458C42.3907 11.796 43.3847 13.112 45.2887 13.112C47.1927 13.112 48.1867 11.796 48.1867 9.458C48.1867 7.106 47.1927 5.818 45.2887 5.818C43.3847 5.818 42.3907 7.106 42.3907 9.458ZM46.8427 9.458C46.8427 11.166 46.3247 12.02 45.2887 12.02C44.2527 12.02 43.7347 11.166 43.7347 9.458C43.7347 7.764 44.2527 6.91 45.2887 6.91C46.3247 6.91 46.8427 7.764 46.8427 9.458ZM50.748 13V2.92H49.432V13H50.748ZM57.5215 9.332C57.5215 6.98 56.6115 5.804 54.8055 5.804C52.9155 5.804 51.8795 7.12 51.8795 9.472C51.8795 11.81 52.8595 13.112 54.7635 13.112C56.3875 13.112 57.3675 12.188 57.4935 10.718H56.1915C56.0655 11.628 55.6035 12.076 54.7915 12.076C53.7835 12.076 53.2655 11.264 53.2375 9.626H57.5215V9.332ZM54.7495 6.784C55.6455 6.784 56.1215 7.442 56.1915 8.772H53.2655C53.3775 7.442 53.8675 6.784 54.7495 6.784ZM61.282 11.964C60.624 11.964 60.288 11.628 60.288 10.942V10.466V6.91H61.898V5.93H60.288V4.082H58.958V5.93H57.936V6.91H58.958V10.578V11.194C58.958 12.468 59.588 13.112 60.848 13.112C61.24 13.112 61.604 13.07 61.926 12.972V11.88C61.688 11.936 61.464 11.964 61.282 11.964ZM62.6672 9.458C62.6672 11.796 63.6612 13.112 65.5652 13.112C67.4692 13.112 68.4632 11.796 68.4632 9.458C68.4632 7.106 67.4692 5.818 65.5652 5.818C63.6612 5.818 62.6672 7.106 62.6672 9.458ZM67.1192 9.458C67.1192 11.166 66.6012 12.02 65.5652 12.02C64.5292 12.02 64.0112 11.166 64.0112 9.458C64.0112 7.764 64.5292 6.91 65.5652 6.91C66.6012 6.91 67.1192 7.764 67.1192 9.458ZM38.962 19.818C37.912 19.818 37.184 20.378 36.862 21.176H36.722L36.806 20.672L37.114 20.182V16.92H35.784V27H36.806V26.426L36.722 25.74H36.862C37.184 26.538 37.912 27.112 38.976 27.112C40.586 27.112 41.44 25.768 41.44 23.472C41.44 21.134 40.586 19.818 38.962 19.818ZM38.584 26.02C37.618 26.02 37.114 25.166 37.1 23.458C37.058 21.848 37.576 20.896 38.584 20.896C39.564 20.896 40.068 21.75 40.082 23.458C40.096 25.04 39.592 26.02 38.584 26.02ZM45.1207 19.818C43.4407 19.818 42.4607 20.658 42.4467 22.24H43.7207C43.7347 21.302 44.1827 20.826 45.0507 20.826C45.9607 20.826 46.4087 21.316 46.4087 22.31V22.856L44.5607 23.122C42.9787 23.388 42.3067 24.06 42.3067 25.222C42.3067 26.384 43.0627 27.112 44.4067 27.112C45.5827 27.112 46.3247 26.538 46.6467 25.754H46.8007L46.6887 26.398V27H47.7107V22.338C47.7107 20.658 46.8427 19.818 45.1207 19.818ZM44.7567 26.132C44.0287 26.132 43.5947 25.74 43.5947 25.054C43.5947 24.452 44.0147 24.074 44.8407 23.948L46.4087 23.724V24.41C46.4087 25.474 45.7647 26.132 44.7567 26.132ZM52.2812 19.818C51.1612 19.818 50.3912 20.364 50.0692 21.134H49.9432L50.0412 20.476V19.93H49.0052V27H50.3212V22.646C50.3212 21.568 50.9232 20.924 51.8752 20.924C52.7012 20.924 53.1072 21.386 53.1072 22.296V27H54.4232V22.044C54.4232 20.602 53.6252 19.818 52.2812 19.818ZM58.5116 27.112C60.1776 27.112 61.1716 26.174 61.2696 24.508H59.9116C59.8136 25.53 59.3376 26.048 58.4976 26.048C57.4336 26.048 56.9016 25.18 56.9016 23.458C56.9016 21.736 57.4336 20.868 58.4976 20.868C59.3376 20.868 59.8136 21.386 59.9116 22.408H61.2696C61.1716 20.742 60.1496 19.818 58.5116 19.818C56.5656 19.818 55.5436 21.106 55.5436 23.458C55.5436 25.81 56.5516 27.112 58.5116 27.112ZM66.6215 16.92H65.4315L63.9615 18.852V19.062H64.8855L66.6215 17.13V16.92ZM64.8295 19.818C63.1495 19.818 62.1695 20.658 62.1555 22.24H63.4295C63.4435 21.302 63.8915 20.826 64.7595 20.826C65.6695 20.826 66.1175 21.316 66.1175 22.31V22.856L64.2695 23.122C62.6875 23.388 62.0155 24.06 62.0155 25.222C62.0155 26.384 62.7715 27.112 64.1155 27.112C65.2915 27.112 66.0335 26.538 66.3555 25.754H66.5095L66.3975 26.398V27H67.4195V22.338C67.4195 20.658 66.5515 19.818 64.8295 19.818ZM64.4655 26.132C63.7375 26.132 63.3035 25.74 63.3035 25.054C63.3035 24.452 63.7235 24.074 64.5495 23.948L66.1175 23.724V24.41C66.1175 25.474 65.4735 26.132 64.4655 26.132ZM71.6681 19.818C70.7021 19.818 70.0161 20.378 69.7781 21.218H69.6521L69.7501 20.448V19.93H68.7141V27H70.0301V23.136C70.0301 21.89 70.6601 21.134 71.7101 21.134C71.9201 21.134 72.1721 21.176 72.4661 21.246V19.944C72.2561 19.86 71.9901 19.818 71.6681 19.818ZM74.7036 18.698L74.7176 16.92H73.2476V18.698H74.7036ZM74.6476 27V19.93H73.3316V27H74.6476ZM75.8748 23.458C75.8748 25.796 76.8688 27.112 78.7728 27.112C80.6768 27.112 81.6708 25.796 81.6708 23.458C81.6708 21.106 80.6768 19.818 78.7728 19.818C76.8688 19.818 75.8748 21.106 75.8748 23.458ZM80.3268 23.458C80.3268 25.166 79.8088 26.02 78.7728 26.02C77.7368 26.02 77.2188 25.166 77.2188 23.458C77.2188 21.764 77.7368 20.91 78.7728 20.91C79.8088 20.91 80.3268 21.764 80.3268 23.458Z" fill="black"/>
<defs>
<clipPath id="clip0_155_2">
<rect width="29" height="29" fill="white"/>
</clipPath>
</defs>
</svg>
