<svg width="953" height="366" viewBox="0 0 953 366" fill="none" xmlns="http://www.w3.org/2000/svg">
<path d="M0 0H105.351C197.996 0 237.701 44.0261 237.701 134.73C237.701 225.965 196.937 269.991 105.351 269.991H95.2922V366H0V0ZM95.2922 191.487H104.292C132.35 191.487 142.409 176.104 142.409 135.261C142.409 93.3566 131.821 79.0348 104.292 79.0348H95.2922V191.487Z" fill="white"/>
<path d="M355.857 0V273.704H443.737V366H260.564V0H355.857Z" fill="white"/>
<path d="M527.147 0H644.144L716.143 345.313V366H627.203L620.851 325.157H549.911L543.558 366H455.148V345.313L527.147 0ZM574.263 170.27L562.617 246.122H608.145L596.498 170.27L591.204 103.435H579.028L574.263 170.27Z" fill="white"/>
<path d="M860.355 0H953V21.2174L868.296 251.957V366H773.004V253.017L688.829 21.2174V0H783.062L809.003 93.3566L815.356 142.157H828.062L833.885 93.3566L860.355 0Z" fill="white"/>
</svg>
