<svg width="39" height="39" viewBox="0 0 39 39" fill="none" xmlns="http://www.w3.org/2000/svg">
<rect width="39" height="39" rx="2" fill="#F6EB2A"/>
<g clip-path="url(#clip0_41_431)">
<mask id="path-2-inside-1_41_431" fill="white">
<path d="M14.2495 28.6674L20.5409 22.376C22.3533 20.5636 22.2909 18.6678 20.6244 17.0013L14.1073 10.4842L16.9612 7.63037L23.478 14.1472C26.6862 17.3972 26.9569 21.6677 23.4363 25.1883L17.1034 31.5212L14.2495 28.6674Z"/>
</mask>
<path d="M14.2495 28.6674L20.5409 22.376C22.3533 20.5636 22.2909 18.6678 20.6244 17.0013L14.1073 10.4842L16.9612 7.63037L23.478 14.1472C26.6862 17.3972 26.9569 21.6677 23.4363 25.1883L17.1034 31.5212L14.2495 28.6674Z" fill="black"/>
<path d="M14.2495 28.6674L3.64293 39.274L-6.96367 28.6674L3.64293 18.0608L14.2495 28.6674ZM14.1073 10.4842L3.50074 21.0908L-7.10586 10.4842L3.50074 -0.122394L14.1073 10.4842ZM16.9612 7.63037L6.35458 -2.97623L16.9612 -13.5828L27.5678 -2.97623L16.9612 7.63037ZM23.478 14.1472L34.0846 3.54062L34.1189 3.5749L34.153 3.6094L23.478 14.1472ZM17.1034 31.5212L27.71 42.1278L17.1034 52.7344L6.49677 42.1278L17.1034 31.5212ZM3.64293 18.0608L9.93434 11.7694L31.1475 32.9826L24.8561 39.274L3.64293 18.0608ZM9.93434 11.7694C8.99377 12.7099 6.89959 15.3632 6.88731 19.5904C6.875 23.8274 8.96266 26.5527 10.0178 27.6079L31.231 6.3947C33.9527 9.11635 36.9048 13.6228 36.8872 19.6775C36.8696 25.7223 33.9005 30.2297 31.1475 32.9826L9.93434 11.7694ZM10.0178 27.6079L3.50074 21.0908L24.7139 -0.122395L31.231 6.3947L10.0178 27.6079ZM3.50074 -0.122394L6.35458 -2.97623L27.5678 18.237L24.7139 21.0908L3.50074 -0.122394ZM27.5678 -2.97623L34.0846 3.54062L12.8714 24.7538L6.35458 18.237L27.5678 -2.97623ZM34.153 3.6094C37.9071 7.41234 40.8813 12.8238 40.9788 19.3421C41.078 25.983 38.1589 31.6789 34.0429 35.7949L12.8297 14.5817C12.2343 15.1771 10.9401 16.9775 10.9821 19.7905C11.0223 22.4809 12.2572 24.132 12.8031 24.685L34.153 3.6094ZM34.0429 35.7949L27.71 42.1278L6.49677 20.9146L12.8297 14.5817L34.0429 35.7949ZM6.49677 42.1278L3.64293 39.274L24.8561 18.0608L27.71 20.9146L6.49677 42.1278Z" fill="black" mask="url(#path-2-inside-1_41_431)"/>
</g>
<defs>
<clipPath id="clip0_41_431">
<rect width="16.7928" height="16.9939" fill="white" transform="matrix(-0.707107 0.707107 0.707107 0.707107 17.8091 7.63037)"/>
</clipPath>
</defs>
</svg>
