<svg width="129" height="46" viewBox="0 0 129 46" fill="none" xmlns="http://www.w3.org/2000/svg">
<path fill-rule="evenodd" clip-rule="evenodd" d="M120.223 8.94895C120.226 10.5325 119.678 13.0015 117.964 14.7454C117.498 15.2232 116.98 15.6441 116.421 16.005C115.615 16.5362 115.031 16.907 115.361 17.7923C115.682 18.6576 116.679 18.387 117.624 18.1699C117.927 18.093 123.85 16.6431 123.922 16.6397C125.508 16.3324 127.05 17.3413 127.43 18.9283L127.915 20.9562C128.295 22.5431 127.38 24.1534 125.835 24.6212C125.769 24.6512 119.298 26.2448 119.285 26.2482C118.056 26.5689 117.336 27.1903 117.343 28.3931C117.343 28.9309 117.65 29.5123 118.03 29.9967C118.03 29.9967 125.085 38.8234 125.121 38.8902C126.079 40.2065 125.851 42.0473 124.603 43.0864L123.004 44.406C121.756 45.4384 119.926 45.2981 118.846 44.0853C118.79 44.0352 114.407 38.6029 113.941 38.0249C113.475 37.4503 112.894 36.5716 112.081 36.5749C111.275 36.5749 110.694 37.4569 110.232 38.0349C109.769 38.6129 105.413 44.0719 105.357 44.1187C104.283 45.3381 102.453 45.4918 101.198 44.4628C101.185 44.4495 99.5998 43.1532 99.5965 43.1499C98.3447 42.1175 98.1069 40.28 99.0548 38.957C99.0878 38.8868 106.103 30.0268 106.103 30.0268C106.48 29.5423 106.784 28.9577 106.784 28.4198C106.78 27.217 106.06 26.599 104.828 26.2849C104.818 26.2849 98.3381 24.718 98.272 24.6913C96.723 24.2303 95.7982 22.6233 96.1714 21.0364C96.1714 21.0163 96.6437 19.0118 96.647 19.0051C97.0202 17.4182 98.5561 16.4025 100.145 16.6999C100.217 16.6999 106.146 18.1264 106.453 18.1999C107.398 18.4104 108.399 18.681 108.712 17.8124C109.036 16.9237 108.452 16.5562 107.642 16.0317C107.081 15.6742 106.559 15.2533 106.093 14.7788C104.369 13.0449 103.811 10.5726 103.808 8.99238C103.801 4.45209 107.523 0.767062 111.999 0.753698C116.474 0.740335 120.213 4.412 120.223 8.94895ZM11.4986 36.3912C11.1452 36.3912 9.79105 36.2041 9.0446 34.8243L0.338195 19.1822C-0.553584 17.5251 0.496734 16.1185 1.42815 15.7711L3.74347 14.7187C4.98866 14.1541 6.48486 14.7521 7.04635 16.0718L12.506 27.207H12.5886L18.0549 16.0718C18.6164 14.7521 20.1126 14.1541 21.3578 14.7187L23.6731 15.7711C24.6045 16.1185 25.6548 17.5251 24.763 19.1822L16.0599 34.8243C15.5678 35.7464 14.6364 36.3377 13.6026 36.3912H11.4986ZM49.7394 36.3912C48.7056 36.3377 47.7742 35.7464 47.2821 34.8243L38.579 19.1822C37.6839 17.5251 38.7375 16.1185 39.6689 15.7711L41.9843 14.7187C43.2295 14.1541 44.7257 14.7521 45.2872 16.0718L50.7501 27.207H50.8294L56.2957 16.0718C56.8572 14.7521 58.3534 14.1541 59.5986 14.7187L61.9139 15.7711C62.8453 16.1185 63.8956 17.5251 63.0038 19.1822L54.3007 34.8243C53.8086 35.7464 52.8772 36.3411 51.8434 36.3912H49.7394ZM75.2773 14.5784C81.2787 14.5784 86.1405 19.5096 86.1405 25.5934C86.1405 31.6772 81.2787 36.6117 75.2773 36.6117C69.276 36.6117 64.4142 31.6772 64.4142 25.5934C64.4142 19.5096 69.2793 14.5784 75.2773 14.5784ZM35.9202 8.3075C35.9202 10.6929 34.0144 12.624 31.6628 12.624C29.3111 12.624 27.402 10.6929 27.4053 8.31084C27.4053 8.31084 27.4053 8.31084 27.4053 8.3075C27.4053 5.92209 29.3111 3.99104 31.6628 3.99104C34.0177 3.99104 35.9235 5.92543 35.9202 8.3075ZM75.2773 29.9432C77.6488 29.9399 79.5678 27.9921 79.5645 25.5934C79.5645 23.1946 77.6488 21.2502 75.2773 21.2468C72.9059 21.2468 70.9869 23.1946 70.9902 25.5934C70.9869 27.9921 72.9059 29.9399 75.2773 29.9432ZM27.9602 17.4683C27.9602 15.9983 29.1327 14.8056 30.586 14.8056H32.7824C34.2324 14.8056 35.4082 15.9983 35.4082 17.4683V33.7251C35.4082 35.1951 34.2324 36.3878 32.7824 36.3878H30.586C29.136 36.3878 27.9602 35.1951 27.9602 33.7285C27.9602 33.7285 27.9602 33.7285 27.9602 33.7251V17.4716V17.4683Z" fill="#660099"/>
</svg>
