<svg xmlns="http://www.w3.org/2000/svg" viewBox="0 0 1080 1080" style="enable-background:new 0 0 1080 1080" xml:space="preserve"><switch><g><path d="M894.076 451.853c-41.5-163.9-179.4-280-338.7-287.1v-15.8c0-8.5-6.9-15.4-15.4-15.4s-15.4 6.9-15.4 15.4v15.8c-159.2 7.2-297.2 123.2-338.7 287.1-1.7 6.8 1.4 13.9 7.5 17.3 2.3 1.3 4.8 1.9 7.4 1.9 4.2 0 8.3-1.7 11.2-4.8 14.6-15.8 35.1-24.9 56.6-24.9 21.5.1 42 9.1 56.6 24.9 2.9 3.1 7 4.8 11.2 4.8 4.2 0 8.3-1.7 11.2-4.8 14.6-15.8 35.1-24.9 56.6-24.9 21.5.1 42 9.1 56.6 24.9 2.9 3.1 7 4.8 11.2 4.8 4.2 0 8.3-1.7 11.2-4.8 14.6-15.8 35.1-24.9 56.6-24.9 21.5.1 42 9.1 56.6 24.9 2.9 3.1 7 4.8 11.2 4.8 4.2 0 8.3-1.7 11.2-4.8 14.6-15.8 35.1-24.9 56.6-24.9 21.5.1 42 9.1 56.6 24.9 2.9 3.1 7 4.8 11.2 4.8 4.2 0 8.3-1.7 11.2-4.8 14.6-15.8 35.1-24.9 56.6-24.9 21.5.1 42 9.1 56.6 24.9 4.8 5.1 12.5 6.3 18.6 2.9 6.6-3.3 9.7-10.5 7.9-17.3zm-665.4-33.5c34.2-92.2 106-165.6 197.4-201.8-9.1 9-17.6 18.7-25.3 29-38.2 54.2-63.9 116.2-75.1 181.6-17.1-10.8-36.9-16.6-57.1-16.7-13.6.1-27.2 2.7-39.9 7.9zm129.9 2.5c24.1-110.2 77.1-191.4 139.4-217-6.4 15.3-11.6 31-15.4 47.2-13.1 57.2-21.2 115.5-24.4 174.1-16.4-9.5-34.9-14.6-53.9-14.7-15.8.1-31.4 3.6-45.7 10.4zm130.6 2.6c3.1-53.3 10.4-106.3 21.8-158.4 13.7-57.6 26.7-68 29.1-69.5 2.4 1.5 15.4 11.8 29.1 69.5 11.3 52.2 18.6 105.2 21.7 158.5-15.6-8.4-33-12.9-50.8-13-17.8 0-35.3 4.4-50.9 12.9zm132.6 1.7c-3.1-58.6-11.3-116.9-24.4-174.1-3.8-16.1-9-31.9-15.4-47.2 62.3 25.6 115.2 106.8 139.4 217-14.3-6.8-29.9-10.4-45.7-10.4-18.9.1-37.5 5.2-53.9 14.7zm189.6-14.7c-20.2.1-40 5.9-57.1 16.7-11.2-65.4-36.8-127.4-75.1-181.6-7.7-10.3-16.1-20-25.3-29 91.4 36.2 163.2 109.6 197.4 201.8-12.7-5.2-26.3-7.8-39.9-7.9zM757.676 650.153l-46.1-79.8c-4.4-7.6-13.8-10.7-21.9-7.2l-40.8 17.9c-12.5-9.6-26.1-17.5-40.7-23.5l-4.9-44.2c-1-8.8-8.4-15.4-17.2-15.4h-92.2c-8.8 0-16.2 6.6-17.2 15.4l-4.9 44.2c-14.6 6-28.2 13.9-40.7 23.5l-40.8-17.9c-8.1-3.5-17.5-.4-21.9 7.2l-46.1 79.8c-4.4 7.6-2.3 17.3 4.7 22.5l35.9 26.4c-1 7.8-1.5 15.6-1.5 23.5s.5 15.7 1.5 23.5l-35.8 26.4c-7.1 5.2-9.1 14.9-4.7 22.5l46.1 79.8c4.4 7.6 13.8 10.7 21.9 7.2l40.8-17.9c12.5 9.6 26.1 17.5 40.7 23.5l4.9 44.2c1 8.8 8.4 15.4 17.2 15.4h92.2c8.8 0 16.2-6.6 17.2-15.4l4.9-44.2c14.6-6 28.2-13.9 40.7-23.5l40.8 17.9c8.1 3.5 17.5.4 21.9-7.2l46.1-79.8c4.4-7.6 2.3-17.3-4.7-22.5l-35.9-26.4c1-7.8 1.5-15.6 1.5-23.5s-.5-15.7-1.5-23.5l35.9-26.4c7-5.1 9-14.8 4.6-22.5zm-69.6 27.4c-5.4 4-8 10.7-6.7 17.3 1.8 9.2 2.7 18.5 2.7 27.8s-.9 18.7-2.7 27.8c-1.3 6.6 1.3 13.3 6.7 17.3l31.9 23.5-30.6 53-36.3-15.9c-6.1-2.7-13.3-1.6-18.3 2.8-14.1 12.3-30.4 21.8-48.2 27.8-6.3 2.2-10.9 7.8-11.6 14.5l-4.4 39.4h-61.3l-4.4-39.4c-.7-6.7-5.2-12.3-11.6-14.5-17.7-6-34.1-15.5-48.2-27.8-5-4.4-12.2-5.5-18.3-2.8l-36.3 15.9-30.6-53 31.9-23.5c5.4-4 8-10.7 6.7-17.3-1.8-9.2-2.7-18.5-2.7-27.8s.9-18.7 2.7-27.8c1.3-6.6-1.3-13.3-6.7-17.3l-31.9-23.5 30.6-53 36.4 15.9c6.1 2.7 13.3 1.6 18.3-2.8 14.1-12.3 30.4-21.8 48.2-27.8 6.3-2.2 10.8-7.8 11.6-14.5l4.4-39.4h61.3l4.4 39.4c.7 6.7 5.3 12.3 11.6 14.5 17.7 6 34.1 15.5 48.2 27.8 5 4.4 12.2 5.5 18.3 2.8l36.3-15.9 30.6 53-32 23.5z"/><path d="M539.976 636.253c-22.9-.1-44.9 9.1-61.1 25.3-33.7 33.8-33.7 88.5 0 122.2 16.2 16.3 38.2 25.4 61.1 25.3 22.9.1 45-9.1 61.1-25.3 33.7-33.8 33.7-88.5 0-122.2-16.2-16.3-38.2-25.4-61.1-25.3zm36.6 123.1c-9.7 9.8-22.9 15.2-36.7 15.2-13.8 0-27-5.4-36.7-15.2-20.2-20.3-20.2-53.1 0-73.3 9.7-9.8 22.9-15.2 36.7-15.2 13.8 0 27 5.4 36.7 15.2 20.3 20.2 20.3 53 0 73.3z"/></g></switch></svg>