<svg xmlns="http://www.w3.org/2000/svg" viewBox="0 0 1080 1080" style="enable-background:new 0 0 1080 1080" xml:space="preserve"><switch><g><path d="M538.4 867.9c-64.5 0-126.9-22.4-176.6-63.5V615.5H109.5v252.3h252.3v-1.1c98.6 62.9 223.2 68.7 327.1 15.1L665.7 837c-39.3 20.5-83 31.1-127.3 30.9zm-227.1-50.5H160V666h151.4l-.1 151.4zM468.8 322l71.3 114.1 171.7-274.7H368.4L441 277.6c-117.2 37.3-203.8 136.9-224.4 258.1l49.8 8.3c18.5-107.1 97.5-193.8 202.4-222zm152-110.2-80.6 129-80.6-129h161.2zM868.7 617.9c.8-9.2 1.1-18.4 1.1-27.6.1-115.4-60.6-222.4-159.7-281.6L684.2 352c83.6 50.4 134.9 140.7 135.2 238.4 0 9.3-.5 18.8-1.4 28.1-68.1 14.7-111.4 81.8-96.7 150 14.7 68.1 81.8 111.4 150 96.7 68.1-14.7 111.4-81.8 96.7-150-10.8-49.4-49.8-87.6-99.3-97.3zm-24.1 199.5c-41.8 0-75.7-33.9-75.7-75.7 0-41.8 33.9-75.7 75.7-75.7 41.8 0 75.7 33.9 75.7 75.7-.1 41.8-33.9 75.7-75.7 75.7z"/></g></switch></svg>