<svg height="800" width="800" xmlns="http://www.w3.org/2000/svg" viewBox="0 0 512 512" xml:space="preserve"><path d="m396.726 161.772.024-.025c30.634-30.737 30.6-80.664-.097-111.361-30.8-30.802-80.655-30.806-111.459 0l-29.191 29.191-29.193-29.192c-30.802-30.802-80.655-30.803-111.459 0-30.73 30.728-30.73 80.729 0 111.459l116.148 116.148c13.512 13.512 35.496 13.512 49.008 0l116.207-116.207a.03.03 0 0 1 .012-.013zm-15.927-15.756c-.003.003-.006.008-.01.01L264.664 262.152c-4.785 4.785-12.537 4.79-17.324.002L131.192 146.003c-21.994-21.996-21.994-57.783 0-79.777 22.045-22.045 57.729-22.048 79.777 0l37.112 37.112c4.373 4.375 11.466 4.375 15.841 0l37.113-37.112c22.046-22.046 57.729-22.048 79.777 0 21.994 21.996 21.994 57.781 0 79.777l-.013.013zM204.55 329.282l-102.876-49.534-20.408-94.618c-2.313-10.724-8.664-19.906-17.884-25.855-30.87-19.912-70.057 7.75-62.416 43.174L25.61 316.701c2.69 12.477 10.83 22.808 22.332 28.348l97.717 47.048v73.952c0 10.294 8.374 18.669 18.669 18.669h44.807c10.295 0 18.669-8.376 18.669-18.669v-99.76c.001-15.679-9.128-30.206-23.254-37.007zm.852 133.034h-37.339v-77.257c0-4.303-2.464-8.226-6.343-10.092L57.661 324.864c-5.227-2.518-8.927-7.214-10.15-12.885L22.869 197.727c-3.472-16.097 14.334-28.678 28.369-19.625a18.55 18.55 0 0 1 8.129 11.753l21.562 99.972a11.206 11.206 0 0 0 6.091 7.731l107.812 51.908c6.421 3.092 10.57 9.695 10.57 16.822v96.028zM448.619 159.277c-9.22 5.947-15.572 15.13-17.885 25.855l-20.406 94.616-102.876 49.534c-14.128 6.802-23.255 21.328-23.255 37.006v99.76c0 10.294 8.374 18.669 18.669 18.669h44.807c10.295 0 18.669-8.376 18.669-18.669v-73.952l97.717-47.048c11.502-5.538 19.64-15.87 22.332-28.348l24.642-114.251c7.638-35.402-31.523-63.1-62.414-43.172zm40.514 38.452L464.491 311.98c-1.223 5.671-4.923 10.367-10.15 12.885l-104.059 50.103a11.2 11.2 0 0 0-6.343 10.092v77.257H306.6V366.29c0-7.127 4.149-13.729 10.57-16.822l107.811-51.908a11.199 11.199 0 0 0 6.091-7.731l21.561-99.971a18.551 18.551 0 0 1 8.129-11.753c14.032-9.052 31.845 3.519 28.371 19.624z"/></svg>