<?xml version="1.0" encoding="iso-8859-1"?>
<!-- Uploaded to: SVG Repo, www.svgrepo.com, Generator: SVG Repo Mixer Tools -->
<svg fill="#000000" height="800px" width="800px" version="1.1" id="Layer_1" xmlns="http://www.w3.org/2000/svg" xmlns:xlink="http://www.w3.org/1999/xlink" 
	 viewBox="0 0 512 512" xml:space="preserve">
<g>
	<g>
		<g>
			<path d="M396.726,161.772c0.008-0.009,0.016-0.016,0.024-0.025c30.634-30.737,30.6-80.664-0.097-111.361
				c-30.8-30.802-80.655-30.806-111.459,0l-29.191,29.191L226.81,50.385c-30.802-30.802-80.655-30.803-111.459,0
				c-30.73,30.728-30.73,80.729,0,111.459l116.148,116.148c13.512,13.512,35.496,13.512,49.008,0l116.207-116.207
				C396.717,161.779,396.721,161.775,396.726,161.772z M380.799,146.016c-0.003,0.003-0.006,0.008-0.01,0.01L264.664,262.152
				c-4.785,4.785-12.537,4.79-17.324,0.002L131.192,146.003c-21.994-21.996-21.994-57.783,0-79.777
				c22.045-22.045,57.729-22.048,79.777,0l37.112,37.112c4.373,4.375,11.466,4.375,15.841,0l37.113-37.112
				c22.046-22.046,57.729-22.048,79.777,0c21.994,21.996,21.994,57.781,0,79.777C380.808,146.007,380.803,146.012,380.799,146.016z"
				/>
			<path d="M204.55,329.282l-102.876-49.534l-20.408-94.618c-2.313-10.724-8.664-19.906-17.884-25.855
				c-30.87-19.912-70.057,7.75-62.416,43.174L25.61,316.701c2.69,12.477,10.83,22.808,22.332,28.348l97.717,47.048v73.952
				c0,10.294,8.374,18.669,18.669,18.669h44.807c10.295,0,18.669-8.376,18.669-18.669v-99.76
				C227.805,350.61,218.676,336.083,204.55,329.282z M205.402,462.316h-37.339v-77.257c0-4.303-2.464-8.226-6.343-10.092
				L57.661,324.864c-5.227-2.518-8.927-7.214-10.15-12.885L22.869,197.727c-3.472-16.097,14.334-28.678,28.369-19.625
				c4.191,2.705,7.078,6.878,8.129,11.753l21.562,99.972c0.729,3.378,2.977,6.231,6.091,7.731l107.812,51.908
				c6.421,3.092,10.57,9.695,10.57,16.822V462.316z"/>
			<path d="M448.619,159.277c-9.22,5.947-15.572,15.13-17.885,25.855l-20.406,94.616l-102.876,49.534
				c-14.128,6.802-23.255,21.328-23.255,37.006v99.76c0,10.294,8.374,18.669,18.669,18.669h44.807
				c10.295,0,18.669-8.376,18.669-18.669v-73.952l97.717-47.048c11.502-5.538,19.64-15.87,22.332-28.348l24.642-114.251
				C518.671,167.047,479.51,139.349,448.619,159.277z M489.133,197.729L464.491,311.98c-1.223,5.671-4.923,10.367-10.15,12.885
				l-104.059,50.103c-3.877,1.865-6.343,5.789-6.343,10.092v77.257H306.6V366.29c0-7.127,4.149-13.729,10.57-16.822l107.811-51.908
				c3.116-1.5,5.362-4.352,6.091-7.731l21.561-99.971c1.052-4.875,3.938-9.049,8.129-11.753
				C474.794,169.053,492.607,181.624,489.133,197.729z"/>
		</g>
	</g>
</g>
</svg>