<svg xmlns="http://www.w3.org/2000/svg" viewBox="0 0 1080 1080" style="enable-background:new 0 0 1080 1080" xml:space="preserve"><switch><g><g style="opacity:.35"><path d="M384 980h417.7V685.8c67.4-64.6 105.2-154.1 104.6-247.4-.4-90.6-37.3-177.2-102.4-240.3-64.6-63.7-152.1-98.7-242.8-97-162.8 2.7-300.7 120.5-329 280.8-9.7 55-23.5 109.2-41.4 162l-39.8 117.8 97.5 24.1L267 868.2h117V980zm366.2-51.5H435.5V816.7h-122L296 644.4l-78.3-19.3 21.9-64.7c18.8-55.4 33.3-112.1 43.4-169.7 23.9-136 141-235.9 279.1-238.2 76.9-1.4 151.2 28.3 206 82.4 55.2 53.5 86.5 127 86.9 203.8.5 82.6-34.5 161.5-96.1 216.6l-8.6 7.7-.1 265.5z"/><path d="M311.1-98c12.9-21.3 36.7-33.4 61.5-31.4l23.4-72.1c2.6-7.9 11.1-12.2 19-9.6 1.7.5 3.3 1.4 4.7 2.5l148.8 118L622.3-73c45.9 14.9 71 64.2 56.1 110.1-12.8 39.5-51.7 64.6-93 59.9l-25.8 79.5c-7.5 22.4-31.7 34.5-54.1 27h-.1c-22.1-7.4-34.2-31.2-27.2-53.4l24-73.8-177.5 7.5c-8.3.4-15.3-6.1-15.6-14.3-.1-1.8.2-3.6.7-5.3l23.4-72.1c-31-18.8-40.9-59.1-22.1-90.1-.1.1-.1.1 0 0zm195.7 257.4c-2.2 6.7 1.5 13.9 8.2 16 6.7 2.2 13.8-1.5 16-8.2l25.3-77.9-24.2-7.9-25.3 78zM541.3 53l36.2 11.8c30.2 9.6 62.4-7 72.1-37.1 9.6-30-6.8-62.1-36.7-72l-36.2-11.8L541.3 53zm-139.2-2.5 110-4.7L549-67.6 462.7-136 402.1 50.5zm-57 2.4 25-1.1L437.6-156 418-171.4 345.1 52.9zM343-37.9l19.9-61.3c-13.7 1.7-25.2 11.2-29.5 24.3-4.2 13.1-.6 27.5 9.6 37z" style="stroke:#000;stroke-width:1.9999;stroke-miterlimit:3.9998" transform="translate(76.125 443.212)"/></g></g></switch></svg>