<svg xmlns="http://www.w3.org/2000/svg" viewBox="0 0 1080 1080" style="enable-background:new 0 0 1080 1080" xml:space="preserve"><switch><g><path d="M299.8 888.9c-2.9 0-5.9-.3-8.8-.8-15.1-2.9-27.7-13-33.8-27.1l-76-149.4c-8.1-17.8-4.4-38.8 9.5-52.7l122-98.6c12.7-12 29.5-18.6 46.9-18.4h301c24 0 46.2 12.4 58.9 32.8l63.6-71.3c12.5-13.7 29.8-21.8 48.3-22.6 18.4-.9 36.4 5.7 49.9 18.3 14.2 13.2 22.4 31.8 22.4 51.2 0 17.4-6.6 34.2-18.4 46.9L695.6 798.1c-17.5 18.4-41.7 28.8-67.1 28.8h-225L330.8 877c-8.5 7.7-19.5 11.9-31 11.9zM223.2 692l76 149.4c1-1 2.7-.6 3.9-1.4l80.1-55.1c3.9-2.7 8.4-4.1 13.1-4.1h232c12.7 0 24.8-5.2 33.5-14.4l189.7-200.6c3.8-4.2 5.9-9.7 5.9-15.3 0-6.6-2.8-12.9-7.7-17.3-4.5-4-10.3-6.1-16.4-6-6.2.3-12 3-16.1 7.5l-93 104.3c-11 25.5-36 41.9-63.7 42h-185c-12.8 0-23.1-10.4-23.1-23.1 0-12.8 10.4-23.1 23.1-23.1h185c12.8 0 23.1-10.4 23.1-23.1 0-12.8-10.4-23.1-23.1-23.1h-301c-6.1 0-11.9 2.4-16.2 6.6L223.2 692zM546 310.7c-38.3 0-69.3-31.1-69.4-69.4 0-38.3 31.1-69.3 69.4-69.4 38.3 0 69.3 31.1 69.4 69.4-.1 38.3-31.1 69.4-69.4 69.4zm0-92.5c-12.8 0-23.1 10.4-23.1 23.1 0 12.8 10.4 23.1 23.1 23.1 12.8 0 23.1-10.4 23.1-23.1 0-12.7-10.3-23.1-23.1-23.1z"/><path d="M615.4 310.7H476.6c-12.8 0-23.1-10.3-23.1-23.1s10.4-23.1 23.1-23.1h138.8c12.8 0 23.1 10.4 23.1 23.1 0 12.7-10.3 23.1-23.1 23.1zM638.5 495.7h-185c-12.8 0-23.1-10.3-23.1-23.1s10.4-23.1 23.1-23.1h185c12.8 0 23.1 10.4 23.1 23.1 0 12.8-10.3 23.1-23.1 23.1z"/><path d="M615.4 495.7H476.6c-6.9 0-13.4-3.1-17.8-8.4-4.4-5.3-6.2-12.3-4.9-19l34.7-185c2.1-10.9 11.6-18.9 22.7-18.9h69.4c11.1 0 20.7 7.9 22.7 18.9l34.7 185c1.3 6.8-.5 13.7-4.9 19-4.4 5.4-10.9 8.4-17.8 8.4zm-110.9-46.2h83l-26-138.8h-31l-26 138.8z"/></g></switch></svg>