<svg xmlns="http://www.w3.org/2000/svg" viewBox="0 0 1080 1080" style="enable-background:new 0 0 1080 1080" xml:space="preserve"><switch><g><path d="M382.9 973.4h411.5V683.7C860.7 620 898 531.9 897.4 440c-.4-89.3-36.8-174.6-100.9-236.8-63.6-62.7-149.8-97.2-239.2-95.6-160.3 2.7-296.2 118.7-324 276.6-9.5 54.2-23.1 107.5-40.8 159.6l-39.2 116 96 23.7 18.3 179.7h115.3v110.2zm360.7-50.7h-310V812.5H313.5l-17.3-169.7-77.2-19 21.6-63.7c18.5-54.5 32.8-110.4 42.7-167.1 23.6-134 138.9-232.4 274.9-234.6 75.8-1.3 148.9 27.9 202.9 81.1 54.4 52.7 85.2 125.1 85.6 200.8.5 81.4-34 159.1-94.6 213.4l-8.4 7.5-.1 261.5z"/><path d="m376.524 566.749 39.7-93.4 93.4 39.7 19.9-46.7-140-59.6-59.6 140 46.6 20zM726.1 473.351l59.6-140-46.7-19.9-39.8 93.4-93.3-39.7-19.9 46.7 140.1 59.5z"/><path d="M557.746 620.379c64.4-.1 123.8-34.4 156.1-90.1l-43.8-25.4c-23.2 40-66 64.7-112.2 64.8-71.5-.1-129.4-58-129.5-129.5h-50.7c0 99.4 80.6 180.1 180.1 180.2zM687.282 440.073h50.7c-.1-99.5-80.8-180.2-180.3-180.3-64.4.1-123.8 34.4-156.1 90.1l43.9 25.4c23.2-40 65.9-64.7 112.2-64.8 71.6.1 129.6 58.1 129.6 129.6z"/></g></switch></svg>