<svg xmlns="http://www.w3.org/2000/svg" viewBox="0 0 1080 1080" style="enable-background:new 0 0 1080 1080" xml:space="preserve"><switch><g><path d="M736.6 204.5c-4.5-4.6-10.7-7.1-17.1-7.1-6.4 0-12.6 2.6-17.1 7.1l-71.2 71.7c-4.7 4.7-11 7.4-17.6 7.4H466.3c-6.6 0-13-2.7-17.7-7.4L378.7 206c-4.5-4.5-10.7-7.1-17.1-7.1-6.4 0-12.6 2.6-17.1 7.1L136.2 416c-9.4 9.4-9.4 24.6 0 34l59.7 59.8c11.3 11.4 17.6 26.7 17.5 42.7 0 20.6 5.8 40.7 16.8 58.1-23.9 29.3-21.9 71.9 4.6 98.8 12.8 13 30 20.7 48.2 21.5.8 18.2 8.4 35.5 21.3 48.4 12.8 13 30 20.7 48.2 21.5.8 18.2 8.4 35.5 21.3 48.4 20 20.2 49.8 26.9 76.5 17.3 3.6 10.4 9.5 19.9 17.3 27.7 28.3 28.6 74.5 28.9 103.1.6l.6-.6 10.2-10.2c6.2-6.2 11.2-13.5 14.8-21.5 29 25.6 72.9 24.1 100-3.4 12.9-12.9 20.4-30.2 21.3-48.4 18.2-.9 35.4-8.5 48.2-21.5 12.9-12.9 20.4-30.2 21.3-48.4 18.2-.9 35.4-8.5 48.2-21.5 26.4-26.7 28.5-69 5-98.3 17.1-24.1 26.2-52.9 26.2-82.5 0-7 2.8-13.8 7.7-18.8l70.8-71.4c9.3-9.4 9.3-24.6 0-34L736.6 204.5zm-467.5 435 34.7-35c9.6-9.7 25.2-9.8 35-.3l.3.3c9.9 10 9.9 26 0 36l-34.7 35c-9.6 9.7-25.3 9.8-35 .2l-.2-.2c-9.9-10-9.9-26.1-.1-36zm69.4 69.9 69.4-69.9c9.6-9.7 25.3-9.8 35-.2l.2.2c9.8 10 9.8 26 0 36l-69.4 69.9c-9.6 9.7-25.2 9.8-35 .3l-.3-.3c-9.7-10-9.7-26 .1-36zM408 815.3c-9.8-10-9.8-26 0-36l34.7-35c9.6-9.7 25.3-9.8 35-.2l.2.2c9 9.1 9.9 23.5 2.1 33.6-2.1 2 1-1.2-36.8 37.4-9.6 9.7-25.2 9.9-35 .3-.1-.1-.2-.2-.2-.3zm139.2 34.8L537 860.4c-9.6 9.7-25.2 9.8-34.9.3l-.3-.3c-8.8-9-9.8-23.1-2.4-33.2 13.2-13.4 12.6-12.6 14.9-15.1 9.9-7.8 24-6.9 32.9 2.1 9.8 9.9 9.8 25.9 0 35.9zm253.7-164.7c-9.6 9.7-25.3 9.8-35 .2l-.2-.2-44.9-45.2c-9.4-9.4-24.6-9.5-34.1-.1-9.4 9.4-9.5 24.6-.1 34.1l44.9 45.2c9.8 10 9.8 26 0 36-9.6 9.7-25.2 9.8-34.9.3l-.3-.3-44.9-45.2c-9.4-9.5-24.6-9.5-34.1-.1-9.4 9.4-9.5 24.6-.1 34.1l44.9 45.2c9.8 10 9.8 26 0 36-9.6 9.7-25.3 9.8-35 .2l-.2-.2c-47.2-47.2-45-46.2-49.7-49-12.2-10.5-27.6-16.7-43.7-17.5-.9-18.2-8.5-35.3-21.3-48.2-6.7-6.7-14.6-12.1-23.3-15.8 16.7-28.9 12.1-65.3-11.4-89.1-23.4-23.6-59.8-28.4-88.6-11.7-3.6-8.7-8.9-16.6-15.6-23.3-28.3-28.6-74.5-28.9-103.1-.5l-.5.5-3.8 3.9c-2.7-7-4-14.4-4-21.9.1-28.8-11.3-56.4-31.6-76.7l-42.8-42.9 174.3-175.6 52.8 53c11.6 11.8 26.9 19.2 43.3 21.1L350 460.6c-8.5 10.2-7.1 25.4 3.1 33.9 24.5 20.5 56.2 30.4 88.1 27.5 31.8-2.8 61.2-18.3 81.6-42.9 8.6-10.3 23.2-13.5 35.3-7.6 24.5 11.9 52 16.4 79 13l163.7 164.9c7.6 9.4 5.2 24.7.1 36zm38.9-199.6c-14 14-21.8 33-21.7 52.8 0 16.5-4.3 32.8-12.5 47.1L688.4 467.6c24.2-13.5 43.8-33.7 56.6-58.2 6.2-11.8 1.6-26.3-10.1-32.5-11.8-6.2-26.3-1.6-32.5 10.1a93.318 93.318 0 0 1-60.7 47.7c-1.1.2-2.2.4-3.3.7-20 4.1-40.8 1.5-59.2-7.4-32.1-15.5-70.6-7.2-93.3 20.2-12.2 14.8-29.9 24-49 25.7-10.7 1-21.6-.4-31.7-4.2l111.6-133.9c8.7-2.7 17.8-4.1 27-4.2h69.9c19.4.1 38.1-7.6 51.8-21.4l54.1-54.5 174.3 175.6-54.1 54.5z" style="enable-background:new"/></g></switch></svg>