<svg xmlns="http://www.w3.org/2000/svg" viewBox="0 0 1080 1080" style="enable-background:new 0 0 1080 1080" xml:space="preserve"><switch><g><path d="M820.5 488c-35.8.2-68.5 20.4-84.8 52.4l-94.8-17.5c.1-14.3-4.3-28.2-12.5-39.9l124.7-124.7c9.3 4.8 19.5 7.3 29.9 7.4 39.9 0 72.3-32.4 72.3-72.3s-32.4-72.3-72.3-72.3-72.3 32.4-72.3 72.3c.1 10.4 2.6 20.7 7.4 29.9L596 445.6c-29.4-16.6-65.4-16.6-94.8 0L356.7 303.5c9-15.1 14.2-32.3 15-49.9-1.2-52.8-44.4-95-97.3-94.8-52.3 0-94.8 42.4-94.8 94.8s42.4 94.8 94.8 94.8c15.8.1 31.4-4.3 44.9-12.5L461.4 478c-4.3 7-7.7 14.5-10 22.4h-74.8c-15.1-37.1-57.3-55-94.4-39.9s-55 57.3-39.9 94.4c11.1 27.3 37.6 45.2 67 45.2 30.1-.4 56.8-19.2 67.3-47.4h77.3c2.3 7.9 5.6 15.5 10 22.4L311.7 727.5c-14.6-7.9-30.8-12.2-47.4-12.5-52.9-.8-96.5 41.5-97.2 94.4v2.9c-.9 51.4 40.1 93.9 91.5 94.8h3.2c52.3 0 94.7-42.4 94.8-94.7v-.1c-.3-16.6-4.6-32.8-12.5-47.4l152.2-152.2c14.6 7.9 30.8 12.2 47.4 12.5h4.9L591 757.4c-16 13.7-25.1 33.8-24.9 54.9 0 39.9 32.4 72.3 72.3 72.3s72.3-32.4 72.3-72.3-32.4-72.3-72.3-72.3l-39.9-132.2c14-9.3 25.2-22.2 32.5-37.4l92.3 20c4.1 52.3 49.7 91.3 102 87.3 52.3-4.1 91.3-49.7 87.3-102-3.8-48.5-43.5-86.3-92.1-87.7zM663.4 812.3c0 12.4-10.1 22.4-22.5 22.4s-22.4-10.1-22.4-22.5 10-22.4 22.4-22.4c12.3-.1 22.4 9.9 22.5 22.2v.3zm119.7-543.7c12.4 0 22.4 10 22.4 22.4s-10 22.4-22.4 22.4c-12.4 0-22.4-10-22.4-22.4 0-12.3 9.9-22.4 22.3-22.4h.1zm-192 259.3c0 24.8-20.1 44.9-44.9 44.9s-44.9-20.1-44.9-44.9c0-24.8 20.1-44.9 44.9-44.9 24.7-.1 44.8 19.8 44.9 44.5v.4zM229.5 253.6c-.4-24.8 19.4-45.2 44.1-45.6 24.8-.4 45.2 19.4 45.6 44.1v1.5c.3 25.3-19.6 46.3-44.9 47.4-25-.2-45.1-20.7-44.9-45.7 0-.6 0-1.1.1-1.7zm79.8 296.8c-12.4 0-22.4-10-22.4-22.4 0-12.4 10-22.4 22.4-22.4 12.4 0 22.4 10 22.4 22.4 0 12.3-9.9 22.4-22.3 22.4h-.1zm-47.4 306.8c-24.8 0-44.9-20.1-44.9-44.9s20.1-44.9 44.9-44.9 44.9 20.1 44.9 44.9c.9 23.8-17.7 43.9-41.5 44.8-1.2.1-2.3.1-3.4.1zm558.6-229.5c-24.8 0-44.9-20.1-44.9-44.9 0-24.8 20.1-44.9 44.9-44.9 24.8 0 44.9 20.1 44.9 44.9.1 24.7-19.8 44.8-44.5 44.9h-.4z" style="enable-background:new"/></g></switch></svg>