<svg xmlns="http://www.w3.org/2000/svg" viewBox="0 0 1080 1080" style="enable-background:new 0 0 1080 1080" xml:space="preserve"><switch><g><path d="M711.864 288.736c-4.6-24.8-16.4-47.7-34.1-65.7-23-23.9-54.8-37.4-88-37.4-17.1 0-34.1 3.7-49.7 10.7-15.6-7.1-32.6-10.7-49.7-10.7-33.2 0-65 13.5-88 37.4-17.7 18-29.6 40.9-34.1 65.7-58.9 11-101.5 62.3-101.5 122.1.1 26.9 8.9 53.1 25.3 74.5-16.4 21.4-25.3 47.6-25.3 74.6-.2 33.8 13.7 66.2 38.2 89.6 16.9 16.3 38.1 27.5 61.2 32.1v2.4c.1 35.4 19 68.1 49.7 85.7v162.7h248.4v-162.6c30.7-17.7 49.6-50.3 49.7-85.7v-1.4c0-.7.5-1.2 1.1-1.3 27.6-5.9 52.3-21 70.2-42.8 18.1-22.2 28.1-50 28.1-78.7-.1-26.9-8.9-53.1-25.3-74.5 16.4-21.4 25.2-47.6 25.3-74.5-.2-59.9-42.8-111.2-101.5-122.2zm-262.9 441.9c-19.8-7-33.1-25.6-33.2-46.6 0-5.7 1-11.3 2.8-16.6l12.3-34.7-36.7 1.6c-20.3.9-40.2-6.5-54.8-20.6-14.7-14-23-33.5-23-53.8 0-18.4 6.9-36.2 19.5-49.7h33.3c11.4 43.8 50.9 74.5 96.2 74.5v-49.7c-27.4 0-49.6-22.3-49.7-49.7.1-27.4 22.3-49.6 49.7-49.7v-49.7c-45.3.1-84.8 30.7-96.2 74.5h-33.3c-12.6-13.5-19.5-31.3-19.5-49.7 0-41.1 33.4-74.5 74.5-74.5h24.8v-24.8c.1-41.4 33.1-75.2 74.5-76.2 8.5 0 16.9 1.6 24.8 4.5v543.6h-49.5v-46.9l-16.5-5.8zm165.6 152.1h-149.1v-49.7h149v49.7zm129.5-422.3h-33.3c-11.4-43.8-50.9-74.5-96.2-74.5v49.7c27.4 0 49.6 22.3 49.7 49.7 0 27.4-22.3 49.6-49.7 49.7v49.7c45.3-.1 84.8-30.7 96.2-74.5h33.3c12.6 13.5 19.5 31.3 19.5 49.7-.1 35.1-24.6 65.4-58.9 72.8-23.8 5.1-40.7 26.3-40.4 50.6v.7c-.1 21-13.4 39.6-33.2 46.6l-16.5 5.9v46.8h-49.7v-543.6c7.9-3 16.4-4.5 24.8-4.5 41.4 1 74.4 34.8 74.5 76.2v24.8h24.8c41.1 0 74.5 33.4 74.5 74.5.1 18.5-6.8 36.3-19.4 49.7zM116.064 460.536h124.2v49.7h-124.2zM131.404 333.689l22.226-44.452 99.368 49.684-22.226 44.452zM131.411 637.003l99.368-49.684 22.226 44.452-99.368 49.684zM839.764 460.536h124.2v49.7h-124.2zM826.987 338.9l99.368-49.684 22.226 44.452-99.368 49.684zM826.969 631.758l22.226-44.452 99.367 49.684-22.225 44.452z"/></g></switch></svg>