<svg version="1.1" id="Apaptabilidade" xmlns="http://www.w3.org/2000/svg" xmlns:xlink="http://www.w3.org/1999/xlink" x="0" y="0" viewBox="0 0 1080 1080" style="enable-background:new 0 0 1080 1080" xml:space="preserve"><style>.st0{clip-path:url(#SVGID_00000155830420533929287280000013642043914200719021_)}</style><switch><g><g id="g1617" transform="translate(-110.576 1059.4)"><g id="g1619" transform="translate(110.576 -1059.4)"><g id="Group_1746"><defs><path id="SVGID_1_" d="M122.1 138h804.1v804.1H122.1z"/></defs><clipPath id="SVGID_00000157287628738042104440000008683868481904307129_"><use xlink:href="#SVGID_1_" style="overflow:visible"/></clipPath><g id="Group_1745" style="clip-path:url(#SVGID_00000157287628738042104440000008683868481904307129_)"><g id="g1621"><g id="g1627" transform="translate(10.737 10.737)"><g id="path1629"><path id="Path_781" d="M513.4 797.8c-148.3-.1-268.4-120.3-268.6-268.5.2-148.3 120.3-268.4 268.6-268.6 148.2.2 268.4 120.3 268.6 268.6-.2 148.2-120.4 268.4-268.6 268.5zm0-490C391.2 308 292.1 407 292 529.3c.1 122.2 99.2 221.3 221.4 221.4 122.2-.1 221.3-99.2 221.4-221.4-.1-122.3-99.2-221.3-221.4-221.5z"/></g></g><g id="g1631" transform="translate(22.105 22.105)"><g id="path1633"><path id="Path_782" d="M502 645.1c-70.2-.1-127.1-57-127.2-127.2.1-70.2 57-127.1 127.2-127.2 70.2.1 127.1 57 127.2 127.2 0 70.2-56.9 127.1-127.2 127.2zm0-207.3c-44.2 0-80 35.9-80.1 80.1 0 44.2 35.9 80 80.1 80.1 44.2 0 80-35.9 80.1-80.1 0-44.2-35.9-80.1-80.1-80.1z"/></g></g><g id="g1635" transform="translate(30.442 16.508)"><g id="path1637"><path id="Path_783" d="M493.7 547c-6.3 0-12.2-2.5-16.7-6.9-9.2-9.2-9.2-24.1 0-33.3l173.2-173.2c9.2-9.2 24.1-9.2 33.3 0 9.2 9.2 9.2 24.1 0 33.3L510.3 540.1c-4.4 4.5-10.4 7-16.6 6.9z"/></g></g><g id="g1639" transform="translate(43.75 1.056)"><g id="path1641"><path id="Path_784" d="M745.8 397c-.7 0-1.3 0-2-.1l-92.2-7.8c-11.4-1-20.5-10-21.5-21.5l-7.8-92.2c-.6-6.9 1.9-13.7 6.8-18.6l99.9-99.9c6.5-6.5 16.1-8.6 24.7-5.5 8.6 3.1 14.6 11 15.4 20.1l6.1 72.3 72.3 6.1c9.1.8 17 6.8 20.2 15.4 3.1 8.6 1 18.3-5.5 24.7l-99.9 99.9c-4.3 4.6-10.3 7.1-16.5 7.1zm-70.4-53.1 61.4 5.2 56.3-56.3-41.6-3.5c-11.5-1-20.5-10-21.5-21.5l-3.5-41.6-56.4 56.3 5.3 61.4z"/></g></g><g id="g1643"><g id="path1645"><path id="Path_785" d="M524.1 942c-53.8.1-107-10.6-156.5-31.6-47.8-20.2-91.2-49.4-127.8-86.1-36.7-36.6-66-80-86.1-127.8-21-49.5-31.7-102.7-31.6-156.5-.1-53.8 10.7-107 31.6-156.5 20.2-47.8 49.4-91.2 86.1-127.8 36.6-36.7 80-66 127.8-86.1 49.5-21 102.7-31.7 156.5-31.6 80.7-.2 159.6 24.1 226.3 69.6 5.8 3.9 9.5 10.3 10.2 17.3.6 7-1.8 13.9-6.8 18.9L714 283.5l5.2 61.5 61.4 5.2 39.8-39.8c5-5 11.9-7.4 18.9-6.8 7 .7 13.3 4.4 17.3 10.2 45.5 66.7 69.8 145.6 69.6 226.3.1 53.8-10.7 107-31.6 156.5-20.2 47.8-49.4 91.2-86.1 127.8-36.6 36.7-80 66-127.8 86.1-49.6 20.9-102.8 31.6-156.6 31.5zm0-756.9c-195.9.2-354.7 159-354.9 354.9.2 195.9 159 354.7 354.9 354.9C720 894.7 878.8 735.9 879 540c.1-61.5-15.9-121.9-46.3-175.4l-26.6 26.6c-4.9 4.9-11.7 7.4-18.6 6.8l-92.2-7.8c-11.4-1-20.5-10-21.5-21.5l-7.8-92.2c-.6-6.9 1.9-13.7 6.8-18.6l26.6-26.6c-53.3-30.4-113.8-46.3-175.3-46.2z"/></g></g></g></g></g></g></g></g></switch></svg>