<svg xmlns="http://www.w3.org/2000/svg" viewBox="0 0 1080 1080" style="enable-background:new 0 0 1080 1080" xml:space="preserve"><switch><g><path d="M854.547 272.698h-23.4v-54.7c0-38.8-31.5-70.3-70.3-70.3s-70.3 31.5-70.3 70.3v19.2c-.1 24.4-16.2 45.8-39.7 52.6l-22.8 6.5v-.2c0-12.9-10.5-23.4-23.4-23.4h-93.7c-12.9 0-23.4 10.5-23.4 23.4v104.7h-276.7c-38.8 0-70.3 31.5-70.3 70.3v453.1c0 8.6 4.8 16.6 12.4 20.7 3.4 1.8 7.2 2.8 11 2.8 4.6 0 9.2-1.4 13-3.9l87.8-58.6h446c38.8 0 70.3-31.5 70.3-70.3v-245.4h73.4c47.4-.1 85.9-38.5 85.9-85.9v-125c.1-47.5-38.4-85.9-85.8-85.9zm-320.3 46.8h46.9v203.1h-46.9v-203.1zm200 495.3c0 12.9-10.5 23.4-23.4 23.4h-453.1c-4.6 0-9.2 1.4-13 3.9l-57.3 38.2v-409.3c0-12.9 10.5-23.4 23.4-23.4h276.6v98.4c0 12.9 10.5 23.4 23.4 23.4h93.7c11.9 0 21.9-8.9 23.3-20.8 21.2 13.5 45.8 20.7 70.9 20.8h35.5v245.4zm159.4-331.2c-.1 21.5-17.5 39-39.1 39h-155.8c-28.4 0-55-14.2-70.8-37.9v-139.6l35.7-10.2c43.5-12.6 73.5-52.3 73.7-97.6v-19.3c0-12.9 10.5-23.4 23.4-23.4 12.9 0 23.4 10.5 23.4 23.4v78.1c0 12.9 10.5 23.4 23.4 23.4h46.9c21.6 0 39 17.5 39.1 39.1l.1 125z"/><path d="M257.747 588.298h156.2c12.9 0 23.4-10.5 23.4-23.4 0-12.9-10.5-23.4-23.4-23.4h-156.2c-12.9 0-23.4 10.5-23.4 23.4-.1 12.9 10.4 23.4 23.4 23.4zM663.947 635.098h-406.2c-12.9 0-23.4 10.5-23.4 23.4 0 12.9 10.5 23.4 23.4 23.4h406.2c12.9 0 23.4-10.5 23.4-23.4 0-12.9-10.5-23.4-23.4-23.4zM663.947 728.898h-406.2c-12.9 0-23.4 10.5-23.4 23.4 0 12.9 10.5 23.4 23.4 23.4h406.2c12.9 0 23.4-10.5 23.4-23.4 0-12.9-10.5-23.4-23.4-23.4z"/></g></switch></svg>