<svg xmlns="http://www.w3.org/2000/svg" viewBox="0 0 1080 1080" style="enable-background:new 0 0 1080 1080" xml:space="preserve"><switch><g><path d="M783.7 509c59.6 59.6 59.6 156.2 0 215.7L567.9 940.5c-14.9 14.9-39 14.9-53.9 0L298.2 724.7c-60.1-59.1-60.8-155.7-1.7-215.8 59.1-60.1 155.7-60.8 215.8-1.7.6.6 1.2 1.1 1.7 1.7l26.9 27 27-27c59.6-59.5 156.2-59.5 215.8.1zm-431.6 53.8c-29.7 29.8-29.7 78.1 0 107.9l188.8 188.8 188.8-188.8c29.8-29.8 29.8-78.1-.1-107.9-29.8-29.8-78.1-29.8-107.9.1l-81 80.8-80.7-80.9c-29.8-29.7-78.1-29.7-107.9 0zm188.8-434.5c84.3 0 152.6 68.3 152.6 152.6s-68.3 152.6-152.6 152.6-152.6-68.3-152.6-152.6c-.1-84.2 68.2-152.5 152.4-152.6h.2zm0 76.2c-42.1 0-76.2 34.1-76.2 76.2s34.1 76.2 76.2 76.2 76.2-34.1 76.2-76.2c.1-42-34.1-76.1-76.2-76.2z"/></g></switch></svg>