<svg xmlns="http://www.w3.org/2000/svg" viewBox="0 0 1080 1080" style="enable-background:new 0 0 1080 1080" xml:space="preserve"><switch><g><path d="M432.923 410.02h206c14.2 0 25.7-11.5 25.7-25.7v-34.4c0-44.8-23.3-86.4-61.5-109.8 12.1-15.1 18.6-33.9 18.6-53.3 0-47.4-38.5-85.8-85.8-85.8-47.4 0-85.8 38.5-85.8 85.8 0 19.4 6.6 38.1 18.6 53.3-38.2 23.4-61.5 65-61.5 109.8v34.3c-.1 14.2 11.4 25.8 25.7 25.8zm68.7-223.2c0-19 15.4-34.3 34.3-34.3 19 0 34.3 15.4 34.3 34.3 0 19-15.4 34.3-34.3 34.3s-34.3-15.3-34.3-34.3zm-42.9 163.1c.1-42.6 34.6-77.2 77.3-77.2 42.6.1 77.2 34.6 77.3 77.2v8.6h-154.6v-8.6zM353.923 456.42v-34.4c0-44.8-23.3-86.4-61.5-109.8 12.1-15.1 18.6-33.9 18.6-53.3 0-47.4-38.5-85.8-85.8-85.8-47.4.1-85.8 38.5-85.8 85.8 0 19.4 6.6 38.1 18.6 53.3-38.2 23.4-61.5 65-61.5 109.8v34.3c0 14.2 11.5 25.7 25.7 25.8h206c14.2 0 25.7-11.5 25.7-25.7zm-163.1-197.5c0-19 15.4-34.3 34.3-34.3 19 0 34.3 15.4 34.3 34.3 0 19-15.4 34.3-34.3 34.3s-34.3-15.3-34.3-34.3zm111.7 171.7h-154.6v-8.6c.1-42.6 34.6-77.2 77.3-77.3 42.6.1 77.2 34.6 77.3 77.3v8.6zM913.823 312.22c12.1-15.1 18.6-33.9 18.6-53.3-.1-47.4-38.5-85.8-85.8-85.8-47.4.1-85.8 38.5-85.8 85.8 0 19.4 6.6 38.1 18.6 53.3-38.2 23.4-61.5 65-61.6 109.8v34.3c0 14.2 11.5 25.8 25.8 25.8h206c14.2 0 25.8-11.5 25.8-25.8v-34.3c0-44.8-23.3-86.4-61.6-109.8zm-101.4-53.2c0-19 15.4-34.3 34.3-34.3 19 0 34.3 15.4 34.3 34.3 0 19-15.4 34.3-34.3 34.3-19 0-34.4-15.4-34.3-34.3-.1-.1-.1-.1 0 0zm111.6 171.6h-154.5v-8.6c.1-42.6 34.6-77.2 77.3-77.3 42.6.1 77.2 34.6 77.3 77.3v8.6zM759.123 516.52h-120.2c-14.2 0-25.7 11.5-25.8 25.7v188.8c-.1 42.6-34.6 77.2-77.3 77.3-42.6-.1-77.2-34.6-77.3-77.3v-188.8c0-14.2-11.5-25.8-25.8-25.8h-120c-14.2 0-25.8 11.5-25.8 25.8v188.8c.2 137.4 111.5 248.8 248.9 248.9 137.5-.1 248.9-111.5 249-248.9v-188.8c0-14.2-11.5-25.7-25.7-25.7zm-25.8 51.5v51.5h-68.7v-51.5h68.7zm-326.2 0v51.5h-68.7v-51.5h68.7zm128.8 360.5c-109-.1-197.3-88.4-197.4-197.4v-60.1h68.7v60c.1 71.1 57.7 128.7 128.8 128.8 71.1-.1 128.7-57.7 128.7-128.8v-60h68.7v60c-.2 109-88.5 197.3-197.5 197.5z"/></g></switch></svg>