<svg version="1.1" id="Apaptabilidade" xmlns="http://www.w3.org/2000/svg" x="0" y="0" viewBox="0 0 1080 1080" style="enable-background:new 0 0 1080 1080" xml:space="preserve"><style>.st0{fill-rule:evenodd;clip-rule:evenodd}</style><switch><g><g id="Group_1792" transform="translate(172.929 557.154)"><path id="Path_840" class="st0" d="M311 52.5 524.5-161l58.7 58.7L311 169.9 150.9 9.8l58.7-58.7L311 52.5z"/><path id="Path_841" class="st0" d="M367.1-340.5C183.6-340.5 34.9-191.8 34.9-8.4 35 175 183.6 323.7 367.1 323.7c183.4 0 332.1-148.7 332.1-332.1 0-183.4-148.7-332.1-332.1-332.1zM-48.1-8.4c0-229.3 185.8-415.1 415.1-415.2 229.3 0 415.2 185.9 415.2 415.2 0 229.3-185.9 415.1-415.2 415.2-229.2 0-415.1-185.9-415.1-415.2z"/></g></g></switch></svg>