<svg xmlns="http://www.w3.org/2000/svg" viewBox="0 0 1080 1080" style="enable-background:new 0 0 1080 1080" xml:space="preserve"><switch><g><path d="M851.5 390.9v-56.8h-95.6V189.6H612.5v102.2h-47.7V179.4h.1v-23.9l-.1-23.9H517v.7c-99.7 5.9-193.7 48.4-263.9 119.3-76.9 76.1-120.1 179.7-120 287.9 0 108.1 43.2 211.8 120 287.8 76.1 76.8 179.8 120 287.9 120 108.2 0 211.9-43.1 288-120 76.9-76 120.2-179.7 120.2-287.9V390.8l-97.7.1zm-47.8-9v133.7h-47.8V381.9h47.8zM660.3 237.4h47.8v278.2h-47.8V237.4zm-47.8 102.2v175.9h-47.7V339.7l47.7-.1zm-95.4 559.1c-66-4.3-129.4-26.8-183.4-65L517.1 607v291.7zM180.8 539.5C181.1 350 328 193 517.1 180.2V531L296.6 803.7c-73.8-68-115.8-163.8-115.8-264.2zm384.1 359.2V563.4h335.7c-12.2 180-155.7 323.3-335.7 335.3zm336.6-383.1h-50v-76.9h49.9l.1 76.9z" style="enable-background:new"/></g></switch></svg>