<svg xmlns="http://www.w3.org/2000/svg" viewBox="0 0 1080 1080" style="enable-background:new 0 0 1080 1080" xml:space="preserve"><switch><g><path d="M887.745 542.041c-29.6-25.1-73.8-22.4-100.2 6.1l-53.8 57.8c-12.7-23.6-37.3-38.2-64.1-38.1h-112.2c-4.1 0-5.1-.6-15.5-8.7l-4.9-3.8c-59.9-52-149-51.8-208.7.5l-37 32.5c-19.7-8.6-42.1-7.9-61.3 1.8l-47.3 23.6c-14.8 7.4-20.8 25.5-13.4 40.3l128.4 256.7c5.1 10.2 15.6 16.6 26.9 16.6 4.6 0 9.2-1.1 13.4-3.1l47.3-23.7c22.6-11.3 37.7-33.6 40-58.7h244.4c49.8-.1 96.7-23.6 126.7-63.4l102.7-136.9c23.4-30.9 18.4-74.7-11.4-99.5zm-529.3 304.8-20.4 10.2-101.5-203 20.4-10.2c6.3-3.1 13.9-.6 17.1 5.7l90.1 180.2c3.1 6.3.5 13.9-5.7 17.1zm311.3-193.5h-109.3c-16.6 0-30 13.5-30.1 30.1 0 16.6 13.5 30 30.1 30.1h123.6c20.2 0 39.5-8.4 53.3-23.2l94.2-101.1c4.8-5 12.7-5.4 17.8-.8 4.9 4.4 5.6 11.8 1.7 17.1l-102.7 137c-18.6 24.7-47.7 39.3-78.7 39.3h-262.4l-74.8-149.7 35.5-31.2c37.2-32.6 92.7-32.6 129.9 0 25.5 22.4 42.2 27 59.6 27h112.3c7 0 12.7 5.7 12.7 12.7 0 7-5.7 12.7-12.7 12.7zM454.345 499.541h215.4c16.6 0 30-13.5 30.1-30.1v-21.4c-.1-46.5-23.3-89.9-62-115.7 12.5-16.3 19.2-36.3 19.2-56.9.3-52.4-41.8-95.2-94.2-95.7-52.5.7-94.9 43.1-95.6 95.7 0 20.7 7 40.9 19.8 57.1-38.9 25.6-62.4 68.9-62.6 115.4v21.4c-.1 16.7 13.3 30.1 29.9 30.2zm108.3-129.8c39.5.4 72.5 30.4 76.5 69.7h-154.3c4.9-39.4 38.2-69.2 77.8-69.7zm0-60.1c-19.1.1-34.9-15-35.5-34.1.7-19.3 16.2-34.8 35.5-35.6 19.1.6 34.3 16.4 34.1 35.6 0 18.8-15.2 34-34.1 34.1z"/></g></switch></svg>