<svg xmlns="http://www.w3.org/2000/svg" viewBox="0 0 1080 1080" style="enable-background:new 0 0 1080 1080" xml:space="preserve"><switch><g><path d="M760.086 610.337c-28.3 0-56.2 6.9-81.3 20.1v-170.2h103.4l-262.3-339.5-288.4 339.5h100.9v40.7l-160.7 210.1h78.7v248.2h428.4v-20.1c25 13.3 53 20.2 81.3 20.1 96.3-.1 174.3-78.1 174.4-174.4-.1-96.3-78.1-174.4-174.4-174.5zm-357.6 51.8v246.9h-103.2v-246.9h-28.7l86.3-112.8 79.4 112.8h-33.8zm48.9 246.9v-198h79.2l-149.3-212v-87.7h-44.1l180.8-212.9 164.5 212.9h-52.7v257.5c-28.5 31.9-44.3 73.2-44.3 116s15.7 84.1 44.3 116v8.2h-178.4zm308.7 1.3c-69.3-.1-125.4-56.2-125.5-125.5.1-69.3 56.2-125.5 125.5-125.5 69.3.1 125.4 56.2 125.5 125.5 0 69.3-56.2 125.5-125.5 125.5z"/><path d="m739.886 795.537-30.5-30.5-34.5 34.6 65 65 105.4-105.4-34.5-34.5-70.9 70.8z"/></g></switch></svg>