<svg xmlns="http://www.w3.org/2000/svg" viewBox="0 0 1080 1080" style="enable-background:new 0 0 1080 1080" xml:space="preserve"><switch><g><path d="M540.404 271.961c-148.2.2-268.4 120.3-268.5 268.5 0 37.6 8.1 74.9 23.5 109.2 4.3 9.7 15.6 14 25.3 9.7 9.7-4.3 14-15.6 9.7-25.3-13.3-29.4-20.2-61.3-20.2-93.5 0-127.1 103.1-230.1 230.2-230.1s230.2 103 230.2 230.2c0 32.3-6.9 64.1-20.2 93.5-4.3 9.7 0 21 9.7 25.3 9.7 4.3 21 0 25.3-9.6 15.5-34.3 23.5-71.5 23.5-109.2-.1-148.4-120.2-268.5-268.5-268.7z"/><path d="M540.404 156.861c-211.4-.5-383.1 170.5-383.6 381.9v.1c-.2 77.5 23.2 153.2 66.9 217.1 5.7 8.9 17.6 11.5 26.5 5.8 8.9-5.7 11.5-17.6 5.7-26.5l-.6-.9c-39.2-57-60.2-124.5-60.2-193.7 0-190.7 154.6-345.3 345.3-345.3s345.3 154.6 345.3 345.3c0 69.2-21 136.7-60.2 193.7-6.2 8.6-4.4 20.6 4.2 26.8h.1c8.6 6.2 20.5 4.4 26.8-4.2 0 0 0-.1.1-.1l.6-.9c119.4-174.4 74.8-412.6-99.6-532-64-43.9-139.7-67.3-217.3-67.1z"/><path d="M627.104 666.861c69.9-47.9 87.7-143.4 39.9-213.3-47.9-69.9-143.4-87.8-213.3-39.9s-87.8 143.4-39.9 213.3v.1c10.7 15.6 24.2 29.1 39.8 39.8-85.6 29-143.3 109.3-143.4 199.7v38.4c0 10.6 8.6 19.2 19.2 19.2h422c10.6 0 19.2-8.6 19.2-19.2v-38.4c-.1-90.4-57.8-170.7-143.5-199.7zm-201.8-126.4c0-63.6 51.5-115.1 115.1-115.1 63.6 0 115.1 51.5 115.1 115.1 0 63.6-51.5 115.1-115.1 115.1-63.5-.1-115-51.6-115.1-115.1zm306.9 345.3h-383.6v-19.2c.1-95.3 77.3-172.5 172.6-172.6h38.4c95.3.1 172.6 77.3 172.6 172.6v19.2z"/></g></switch></svg>