<svg version="1.1" id="Apaptabilidade" xmlns="http://www.w3.org/2000/svg" x="0" y="0" viewBox="0 0 1080 1080" style="enable-background:new 0 0 1080 1080" xml:space="preserve"><style>.st0{fill-rule:evenodd;clip-rule:evenodd;stroke:#000}</style><switch><g><g id="Group_1744" transform="translate(-16.151 1058.042)"><path id="Path_775" class="st0" d="M662-625.3c34.5 34.4 90.3 34.4 124.8 0 34.4-34.5 34.4-90.3 0-124.8-34.5-34.4-90.3-34.4-124.8 0-34.5 34.5-34.5 90.4 0 124.8zm31.2-31.2c17.2 17.2 45.2 17.2 62.4 0 17.2-17.2 17.2-45.2 0-62.4-17.2-17.2-45.2-17.2-62.4 0-17.3 17.2-17.3 45.2 0 62.4z"/><path id="Path_776" d="M571-389.4c4.5 11.4 16.9 17.3 28.6 13.7 11.1-3.5 17.3-15.4 13.8-26.5-.1-.4-.3-.8-.4-1.2-30.3-79.6-93.2-142.5-172.8-172.8-10.9-4.2-23.1 1.2-27.3 12.1-.2.4-.3.8-.4 1.2-3.6 11.7 2.4 24.1 13.7 28.6 66.4 25.8 118.9 78.4 144.8 144.9z" style="stroke:#000"/><g id="Group_1743" transform="translate(16.652 -1057.54)"><path id="Path_777" class="st0" d="M710.4 171.7c49.5-10.6 100.2-15.1 150.8-13.3 31.7.8 57.2 26.3 58 58 1.7 50.6-2.7 101.3-13.3 150.8-13.3 59.6-39.2 124.5-89 174.3l-1 1c-40.2 40.2-71.8 71.8-97.9 94.4l10.5 94.4c1.5 13.3-3.2 26.6-12.7 36.1L622.2 861c-17.2 17.2-45.2 17.2-62.4 0-4.2-4.2-7.5-9.2-9.7-14.8l-43.4-108.4L367.5 761c-24 4-46.8-12.2-50.8-36.3-.8-4.8-.8-9.7 0-14.5L339.9 571l-108.4-43.4c-22.6-9.1-33.6-34.7-24.6-57.4 2.2-5.5 5.5-10.6 9.7-14.8l93.6-93.6c9.5-9.5 22.8-14.1 36.1-12.7l94.4 10.5c22.6-26.1 54.2-57.7 94.4-97.9l1-1c49.7-49.8 114.6-75.7 174.3-89zm9.6 43.1c-55 12.2-111 35.4-152.7 77.1-46.3 46.2-79 79-100.3 104.9l-7.6 9.2-117.9-13-93.6 93.6L356.3 530c19.2 7.7 30.5 27.8 27.1 48.2l-23.2 139.2 139.3-23.2c20.5-3.4 40.5 7.9 48.2 27.1L591 829.8l93.6-93.6-13.2-117.9 9.2-7.6c26-21.4 58.7-54.1 105-100.3 41.7-41.7 64.8-97.6 77.1-152.7 9.8-45.9 13.9-92.8 12.3-139.7-.1-8.4-6.9-15.3-15.3-15.3-46.9-1.8-93.8 2.3-139.7 12.1z"/><path id="Path_778" class="st0" d="M360.1 934c-8.6-8.6-8.6-22.6 0-31.2l93.6-93.5c8.6-8.6 22.6-8.6 31.2 0 8.6 8.6 8.6 22.6 0 31.2L391.3 934c-8.6 8.6-22.6 8.6-31.2 0z"/><path id="Path_779" class="st0" d="M141.7 715.6c-8.6-8.6-8.6-22.6 0-31.2l93.6-93.6c8.6-8.6 22.6-8.6 31.2 0 8.6 8.6 8.6 22.6 0 31.2l-93.6 93.6c-8.6 8.6-22.6 8.6-31.2 0z"/><path id="Path_780" class="st0" d="M188.4 887.1c-8.6-8.6-8.6-22.6 0-31.2l93.6-93.6c8.6-8.6 22.6-8.6 31.2 0 8.6 8.6 8.6 22.6 0 31.2l-93.6 93.6c-8.6 8.6-22.5 8.6-31.2 0z"/></g></g></g></switch></svg>