<svg xmlns="http://www.w3.org/2000/svg" viewBox="0 0 1080 1080" style="enable-background:new 0 0 1080 1080" xml:space="preserve"><switch><g><path d="M395 979.999h418.9v-295.1c67.6-64.8 105.5-154.5 104.9-248.1-.4-90.9-37.5-177.7-102.7-241-64.8-63.9-152.6-99-243.5-97.3-163.2 2.7-301.6 120.8-329.9 281.6-9.7 55.2-23.6 109.5-41.5 162.5l-40 118.2 97.8 24.1 18.6 183H395v112.1zm367.2-51.7H446.6v-112.1H324.3l-17.6-172.7-78.6-19.3 22-64.9c18.8-55.5 33.4-112.4 43.5-170.2 24-136.4 141.4-236.6 279.9-238.9 77.2-1.4 151.6 28.4 206.6 82.6 55.4 53.6 86.8 127.3 87.2 204.4.5 82.9-34.6 162-96.3 217.3l-8.6 7.7-.2 266.1z"/><path d="M580.75 303.168c-16.2-13.2-35.6-21.9-56.3-25.1-36.8-5.2-73.8 7.1-100.2 33.3-45.9 46-45.9 120.5 0 166.5l156.5 156.5 156.5-156.5c45.9-46 45.9-120.5 0-166.5-26.3-26.2-63.4-38.5-100.2-33.3-20.6 3.2-40 11.9-56.3 25.1zm0 70.2 18-18c28.4-28.4 71.1-39.3 102.5-7.9 26 26.1 26 68.4 0 94.6l-120.5 120.4-120.5-120.5c-26-26.1-26-68.4 0-94.6 31.4-31.4 74.1-20.5 102.5 7.9l18 18.1z"/></g></switch></svg>