<svg xmlns="http://www.w3.org/2000/svg" viewBox="0 0 1080 1080" style="enable-background:new 0 0 1080 1080" xml:space="preserve"><switch><g><path d="M394.5 683.3c25.8-45.9 9.5-104-36.4-129.8-45.9-25.8-104-9.5-129.8 36.4a95.12 95.12 0 0 0 0 93.3C191.5 712.5 170 757 170.1 804v105.8h282.6V804c.1-47-21.4-91.5-58.2-120.7zm-83.1-96.8c27.8 0 50.3 22.5 50.3 50.3S339.2 687 311.4 687s-50.3-22.5-50.3-50.3c0-27.7 22.5-50.2 50.3-50.2zm96.3 278.4H215.1V804c-.2-34.6 16.2-67.2 44.1-87.6 31.7 20.8 72.7 20.8 104.4 0 27.9 20.5 44.2 53.1 44.1 87.6v60.9zM410.1 193.4l31.9 31.9h-6c-104.8.1-189.8 85.1-189.9 189.9V461h45v-45.8c.1-80 64.9-144.8 144.9-144.9h3.6l-28.5 28.5 31.8 31.8 84.1-84.1-85-85-31.9 31.9zM789.5 627.3c-.1 80-64.9 144.8-144.9 144.9H641l28.5-28.5-31.8-31.8-84.1 84.1 85 85 31.8-31.8-31.9-31.9h6c104.8-.1 189.8-85.1 189.9-189.9v-45.8h-45l.1 45.7zM850.9 284.5c25.8-45.9 9.5-104-36.4-129.8-45.9-25.8-104-9.5-129.8 36.4a95.12 95.12 0 0 0 0 93.3c-36.8 29.3-58.2 73.7-58.2 120.7V511h282.6V405.2c0-47-21.4-91.5-58.2-120.7zm-83.1-96.9c27.8 0 50.3 22.5 50.3 50.3s-22.5 50.3-50.3 50.3-50.3-22.5-50.3-50.3c0-27.8 22.5-50.3 50.3-50.3zM864.1 466H671.5v-60.8c-.2-34.6 16.2-67.1 44.1-87.6 31.7 20.8 72.7 20.8 104.4 0 27.9 20.5 44.2 53.1 44.1 87.6V466z"/></g></switch></svg>