<svg xmlns="http://www.w3.org/2000/svg" viewBox="0 0 1080 1080" style="enable-background:new 0 0 1080 1080" xml:space="preserve"><switch><g><path d="M796.1 804.1h-39.7v-71.5c0-13.2-10.7-23.8-23.8-23.8h-39.7v-71.5c0-13.2-10.7-23.8-23.8-23.8h-41.3v-118c27.3-4 47.6-27.4 47.6-55v-60.3c0-46.4-26.6-86.5-65.3-106.2 11.1-14.6 17.6-32.9 17.7-52.6-.1-48.2-39.2-87.3-87.4-87.3-48.2.1-87.3 39.1-87.3 87.3 0 19.8 6.6 38 17.7 52.6-38.7 19.7-65.2 59.8-65.3 106.2v60.3c0 27.6 20.3 51 47.6 55v118.1h-41.3c-13.2 0-23.8 10.7-23.8 23.8v71.5h-39.7c-13.2 0-23.8 10.7-23.8 23.8v71.5h-39.7c-13.2 0-23.8 10.7-23.8 23.8v95.3c0 13.2 10.7 23.8 23.8 23.8h511.3c13.2 0 23.8-10.7 23.8-23.8V828c.1-13.3-10.6-23.9-23.8-23.9zM540.5 181.7c21.9 0 39.7 17.8 39.7 39.7 0 21.9-17.8 39.7-39.7 39.7-21.9 0-39.7-17.8-39.7-39.7 0-22 17.8-39.7 39.7-39.7zm-87.4 258.8v-60.3c0-39.5 32-71.4 71.5-71.5h31.8c39.4 0 71.4 32 71.5 71.5v60.3c0 4.4-3.6 7.9-7.9 7.9h-16c-13.2 0-23.8 10.7-23.8 23.8v141.3h-79.4V472.2c0-13.2-10.7-23.8-23.8-23.8h-15.9c-4.4 0-8-3.5-8-7.9zm-17.4 220.7h209.5v47.6H435.7v-47.6zm-63.5 95.2h336.6V804H372.2v-47.6zm400.1 143H308.7v-47.7h463.6v47.7z"/></g></switch></svg>