<svg xmlns="http://www.w3.org/2000/svg" viewBox="0 0 1080 1080" style="enable-background:new 0 0 1080 1080" xml:space="preserve"><switch><g><path d="M744.556 456.278h-73.7c-26.7 0-52.7 8.8-74 25v-19.5c17.6-14.4 49.2-45.9 49.2-86 0-52.3-53.9-90.1-60.1-94.2l-13.7-9.2-13.7 9.2c-6.2 4.1-60.1 41.9-60.1 94.2 0 40.2 31.7 71.7 49.2 86v19.5c-21.3-16.2-47.2-24.9-74-24.9h-73.7v24.5c-.1 32.7 13 64.1 36.2 87 22.9 23.1 54 36 86.5 36h25v53.6h49v-53.6h25c32.5 0 63.6-12.9 86.5-36 23.3-23 36.3-54.3 36.2-87l.2-24.6zm-221.5 98.5h-.2c-19.5 0-38.1-7.8-51.8-21.6-7.9-7.8-13.9-17.3-17.7-27.8h20.6c31.4 0 59.3 19.8 69.8 49.4h-20.7zm49.3-221.3c13.2 10.5 22 25.6 24.7 42.3-2.7 16.7-11.5 31.7-24.7 42.3-13.2-10.5-22-25.6-24.7-42.3 2.6-16.7 11.4-31.8 24.7-42.3zm101.3 199.7c-13.7 13.8-32.3 21.6-51.8 21.6h-20.9c10.5-29.6 38.4-49.4 69.8-49.4h20.6c-3.7 10.5-9.8 20-17.7 27.8z"/><path d="M395.4 980h417.7V685.8c67.3-64.6 105.2-154.1 104.6-247.4-.4-90.6-37.3-177.2-102.4-240.3-64.6-63.7-152.1-98.6-242.8-97-162.8 2.7-300.7 120.5-328.9 280.8-9.7 55-23.5 109.2-41.4 162l-39.8 117.8 97.5 24.1 18.6 182.4h117l-.1 111.8zm366.1-51.5H446.9V816.6h-122l-17.5-172.3-78.4-19.2 21.9-64.7c18.8-55.4 33.3-112.1 43.4-169.7 24-135.9 141-235.8 279-238.1 76.9-1.4 151.2 28.3 206 82.4 55.2 53.5 86.5 127 86.9 203.8.5 82.6-34.5 161.5-96 216.6l-8.6 7.7v265.4z"/></g></switch></svg>