<svg xmlns="http://www.w3.org/2000/svg" viewBox="0 0 1080 1080" style="enable-background:new 0 0 1080 1080" xml:space="preserve"><switch><g><path d="M648.34 363.289h38.5l-87.1 87.1-72.9-72.9-163 163 34.3 34.3 128.6-128.6 72.9 72.9 121.5-121.5v38.5h48.6v-121.3h-121.3l-.1 48.5z"/><path d="M395.6 977.999h417.2v-293.9c67.2-64.5 105-153.9 104.5-247.1-.5-90.5-37.3-177-102.3-240-64.5-63.6-151.9-98.5-242.5-96.9-162.6 2.7-300.4 120.4-328.6 280.5-9.6 54.9-23.5 109-41.4 161.8l-39.8 117.7 97.4 24 18.5 182.2h116.9l.1 111.7zm365.7-51.5H447v-111.7H325.2l-17.5-172.1-78.3-19.3 21.9-64.6c18.7-55.3 33.2-112 43.3-169.5 23.9-135.8 140.8-235.6 278.7-237.9 76.8-1.4 151 28.3 205.7 82.3 55.1 53.4 86.4 126.8 86.8 203.6.5 82.6-34.4 161.4-96 216.5l-8.6 7.7.1 265z"/></g></switch></svg>