<svg xmlns="http://www.w3.org/2000/svg" viewBox="0 0 1080 1080" style="enable-background:new 0 0 1080 1080" xml:space="preserve"><switch><g><path d="M810.7 390.2 557 141.2c-9.5-9.3-24.7-9.3-34.1 0l-253.6 249c-9.6 9.4-9.7 24.9-.3 34.5 4.6 4.6 10.8 7.3 17.3 7.3H387l-11.6 54.7c-30.8-18.2-70.5-8.1-88.7 22.7-6 10.2-9.2 21.8-9.1 33.6v63c-1.8 43.8 15.7 86.2 47.7 116.1l-24.8 116.5c-10.3 48.4 20.6 96 69 106.3 6.1 1.3 12.4 2 18.7 2h303.6c49.5 0 89.6-40.1 89.6-89.6 0-6.3-.7-12.5-2-18.6l-24.8-116.8c32-29.8 49.4-72.1 47.8-115.7v-63c.3-35.8-28.4-65-64.2-65.3-11.8-.1-23.4 3-33.6 9L693 432h100.6c13.5 0 24.4-10.9 24.4-24.4-.1-6.5-2.7-12.8-7.3-17.4zm-403 385.1c-.1 1.2.1-6.7-3.5 122.7h-16c-22.6 0-40.9-18.3-40.9-40.9 0-2.9.3-5.7.9-8.5l20.8-97.9c9.6 4.4 19.5 8.1 29.6 11 5.9 1.7 9.8 7.5 9.1 13.6zM691.8 898h-16c-3.7-129.6-3.4-121.7-3.5-122.9-.6-6.1 3.1-11.8 9-13.5 10.2-3 20.1-6.7 29.7-11.1l20.9 98.1c4.7 22.1-9.3 43.8-31.4 48.5-2.9.6-5.8.9-8.7.9zm30-292.1v-64c.1-8.6 7-15.7 15.6-15.9 9.1.2 16.3 7.7 16.2 16.8v63c0 57.5-31.2 92.8-86.2 108.9-28 8.3-46.2 35.1-43.8 64.2l3.3 119h-174l3.3-118.9c2.5-29.2-16-56-44.1-64.2-57-16.6-85.9-53.2-85.9-109v-63c-.1-9.1 7.2-16.6 16.2-16.8 8.6.2 15.5 7.3 15.6 15.9v63.9c.1 44.9 36.4 81.2 81.3 81.3h44.2c10.4 0 19.6-6.6 23-16.4 3.4-9.8.2-20.7-8-27.1-14.6-11.4-23.1-28.9-23.1-47.4 0-33.2 26.9-60.2 60.1-60.2 1.6 0 3.1.1 4.7.2 30.2 2.6 53.9 27 55.6 57.3 1 19.5-7.6 38.2-23 50.1-8.2 6.4-11.4 17.3-8 27.1 3.4 9.8 12.6 16.4 23 16.4h52.7c44.9 0 81.2-36.3 81.3-81.2zm-58.9-222.6c-13.5 0-24.4 10.9-24.4 24.4 0 1.7.2 3.4.5 5l34 160V606c0 18-14.6 32.5-32.5 32.5h-4.4c6.3-14.9 9.2-30.9 8.5-47.1-2.4-55-45.6-99.6-100.6-103.7-60-4.5-112.3 40.4-116.9 100.4-.2 2.7-.3 5.4-.3 8.2 0 14.4 2.8 28.6 8.3 41.9-16.1-2.2-28.2-15.9-28.3-32.2 0-43-5.2-9 34-193.2 2.8-13.2-5.6-26.1-18.8-28.9-1.7-.4-3.3-.5-5-.5h-71l194-190.5 194 190.5-71.1-.1z" style="enable-background:new"/></g></switch></svg>