<svg xmlns="http://www.w3.org/2000/svg" viewBox="0 0 1080 1080" style="enable-background:new 0 0 1080 1080" xml:space="preserve"><switch><g><path d="M388.747 780.546c14.5-17.5 22.5-39.6 22.4-62.3-.1-54.1-43.9-98-98-98-54.1.1-98 43.9-98 98 0 22.8 7.9 44.8 22.4 62.3-41.1 18.1-67.6 58.7-67.7 103.6v30.2c0 12.5 10.1 22.6 22.6 22.6h241.3c12.5 0 22.6-10.1 22.6-22.6v-30.2c0-44.9-26.6-85.5-67.6-103.6zm-75.6-115.1c29.1 0 52.7 23.6 52.8 52.8 0 29.1-23.6 52.8-52.8 52.8-29.1 0-52.7-23.6-52.8-52.8 0-29.2 23.6-52.8 52.8-52.8zm98 226.2h-196.1v-7.5c0-37.5 30.4-67.8 67.9-67.9h60.3c37.5 0 67.8 30.4 67.9 67.9v7.5zM874.347 780.546c14.5-17.5 22.5-39.6 22.4-62.3-.1-54.1-43.9-98-98-98-54.1.1-98 43.9-98 98 0 22.8 7.9 44.8 22.4 62.3-41.1 18.1-67.6 58.7-67.7 103.6v30.2c0 12.5 10.1 22.6 22.6 22.6h241.3c12.5 0 22.6-10.1 22.6-22.6v-30.2c0-44.9-26.5-85.5-67.6-103.6zm-75.6-115.1c29.1 0 52.7 23.6 52.8 52.8 0 29.1-23.6 52.8-52.8 52.8-29.1 0-52.7-23.6-52.8-52.8 0-29.2 23.7-52.8 52.8-52.8zm98.1 226.2h-196.1v-7.5c0-37.5 30.4-67.8 67.9-67.9h60.3c37.5 0 67.8 30.4 67.9 67.9v7.5zM874.147 255.146h-159.9v-22.6c0-37.5-30.4-67.8-67.9-67.9h-407.2c-37.5 0-67.8 30.4-67.9 67.9v181c0 32.2 22.7 60 54.3 66.5v69.2c0 8.8 5.2 16.9 13.2 20.6 3 1.4 6.2 2.1 9.5 2.1 5.4 0 10.6-1.9 14.7-5.4l99.2-85.1h36.9v22.6c0 37.5 30.4 67.8 67.9 67.9h42.9l99.2 85.1c4.1 3.5 9.3 5.5 14.7 5.4 3.3 0 6.5-.7 9.4-2.1 8-3.7 13.2-11.7 13.2-20.6v-67.9h227.8c37.5 0 67.8-30.4 67.9-67.9v-181c-.1-37.4-30.4-67.8-67.9-67.8zm-520.3 181c-5.4 0-10.6 1.9-14.7 5.4l-68.2 58.5v-41.3c0-12.5-10.1-22.6-22.6-22.6h-9c-12.5 0-22.6-10.1-22.6-22.6v-181c0-12.5 10.1-22.6 22.6-22.6h407.2c12.5 0 22.6 10.1 22.6 22.6v22.6h-202.2c-37.5 0-67.8 30.4-67.9 67.9v113.1h-45.2zm315.2-135.8v113.1c0 12.5-10.1 22.6-22.6 22.6h-202.2v-113.1c0-12.5 10.1-22.6 22.6-22.6h202.2zm227.7 203.7c0 12.5-10.1 22.6-22.6 22.6h-250.4c-12.5 0-22.6 10.1-22.6 22.6v41.3l-68.2-58.5c-4.1-3.5-9.3-5.4-14.7-5.4h-51.3c-12.5 0-22.6-10.1-22.6-22.6v-22.6h202.1c37.5-.1 67.8-30.4 67.9-67.9v-113.1h159.9c12.5 0 22.6 10.1 22.6 22.6l-.1 181z"/></g></switch></svg>