<svg xmlns="http://www.w3.org/2000/svg" viewBox="0 0 1080 1080" style="enable-background:new 0 0 1080 1080" xml:space="preserve"><switch><g><path d="M283.1 434c.1-70.9 57.5-128.4 128.4-128.4v-51.4c-99.3.1-179.7 80.6-179.8 179.8.1 99.3 80.6 179.7 179.9 179.8v-51.4c-70.9 0-128.4-57.5-128.5-128.4z"/><path d="M411.6 356.9c-42.5.1-77 34.5-77.1 77.1.1 42.5 34.5 77 77.1 77.1 42.5-.1 77-34.5 77.1-77.1-.1-42.6-34.6-77.1-77.1-77.1zm0 102.8c-14.2 0-25.7-11.5-25.7-25.7s11.5-25.7 25.7-25.7 25.7 11.5 25.7 25.7c-.1 14.2-11.6 25.7-25.7 25.7z"/><path d="M951 279.8c-.1-99.3-80.6-179.7-179.8-179.8v51.4c70.9.1 128.4 57.5 128.5 128.5-.1 61.5-43.7 114.3-104 126.1-14.8-172.9-159.3-305.8-332.8-306-184.3.2-333.7 149.6-333.9 334 .2 90.8 37.3 177.6 102.8 240.5v302.4h359.6V870.7h205.5V665.2h118.6L810.6 455.3c82-18.5 140.3-91.4 140.4-175.5zm-205.5 334v205.5H540v106.2H283.1V651.7l-8.5-7.6c-59.8-53.5-94-129.9-94.2-210.2.2-156 126.6-282.4 282.6-282.6 146 .2 267.9 111.5 281.4 257H602l33.2-33.2-36.3-36.3-95.2 95.2 95.2 95.2 36.3-36.3-33.2-33.2h153.3l77.1 154.1h-86.9z"/></g></switch></svg>