<svg xmlns="http://www.w3.org/2000/svg" viewBox="0 0 1080 1080" style="enable-background:new 0 0 1080 1080" xml:space="preserve"><switch><g><path d="m938.2 848.401-63.3-63.3c-9.3-9.2-24.3-9.2-33.6 0-9.3 9.3-9.3 24.3 0 33.6l22.8 22.8H713.6c24.4-14.6 46.9-32.1 67-52.2 64-63.7 99.9-150.3 99.7-240.6.2-90.3-35.7-176.9-99.7-240.6-49.3-49.5-112.7-82.6-181.5-94.6l24.7-20.7c10-8.4 11.3-23.4 2.9-33.5-8.4-10-23.4-11.3-33.5-2.9l-68.6 57.6c-10 8.4-11.3 23.4-2.9 33.5l57.6 68.6c8.4 10 23.4 11.3 33.5 2.9 10-8.4 11.3-23.4 2.9-33.5l-20.4-24.5c57.6 10.9 110.5 39 151.8 80.6 55.2 54.9 86.1 129.6 85.8 207.4-.1 77.5-30.9 151.9-85.8 206.7-114.4 114.2-299.7 114.2-414.1 0-54.8-54.8-85.6-129.1-85.7-206.7-.3-77.8 30.6-152.6 85.8-207.4 30.4-30.4 67.1-53.6 107.6-68.1 10.9-3.7 17.6-14.7 16-26.1-2-13-14.1-21.9-27.1-19.9-1.5.2-3 .6-4.4 1.1-47.3 16.8-90.3 43.9-125.7 79.4-64 63.7-99.9 150.3-99.7 240.6-.2 90.3 35.6 176.9 99.7 240.6 20.1 20.1 42.6 37.6 67 52.2H159.2c-12.8-.1-23.5 9.8-24.4 22.6-.6 13.1 9.5 24.3 22.6 24.9h706.7l-22.8 22.8c-9.2 9.3-9.2 24.3 0 33.6 9.3 9.2 24.3 9.2 33.6 0l63.3-63.3c9.3-9.4 9.3-24.4 0-33.6"/><path d="M540.031 414.046c74.3.1 134.4 60.3 134.5 134.5-.1 74.3-60.3 134.5-134.5 134.5-74.3-.1-134.5-60.3-134.5-134.5 0-74.3 60.2-134.5 134.5-134.5m-182.1 134.5c.1 100.5 81.5 181.9 182 182.1 100.5-.1 181.9-81.6 182-182-.1-100.5-81.5-181.9-182-182-100.4 0-181.8 81.5-182 181.9"/><path d="M487.329 610.128c9.3 9.3 24.3 9.3 33.6 0l89.5-89.5c9.3-9.3 9.2-24.4-.1-33.6-.3-.3-.5-.5-.8-.7-9.7-8.5-24.2-7.9-33.2 1.3l-72.3 72.3-16.3-16.3c-9-9.2-23.6-9.7-33.2-1.3-9.7 8.8-10.4 23.9-1.6 33.6.2.3.5.5.7.8l33.7 33.4z"/></g></switch></svg>