<svg xmlns="http://www.w3.org/2000/svg" viewBox="0 0 1080 1080" style="enable-background:new 0 0 1080 1080" xml:space="preserve"><switch><g><path d="M371.388 571.586c-53.9 0-97.7 43.7-97.7 97.7 0 53.9 43.7 97.6 97.7 97.6s97.7-43.7 97.7-97.7-43.8-97.6-97.7-97.6zm0 152.7c-30 0-54.2-24.3-54.2-54.2 0-30 24.3-54.2 54.2-54.2 30 0 54.2 24.3 54.2 54.2s-24.3 54.2-54.2 54.2z"/><path d="M621.688 162.286c-180.9.2-329 144.1-334.3 324.9l-30.3-21.7c-10.3-7.4-24.5-6.3-33.5 2.7l-53.3 53.3c-9 9-10.1 23.2-2.7 33.5l26 37-2.9 7-45.1 7.5c-12.7 2.1-21.9 13.2-21.7 26v75.1c-.2 12.8 9 23.9 21.7 26l45.1 7.5 2.9 7-26 37c-7.4 10.3-6.3 24.5 2.7 33.5l53.3 53.3c9 9 23.2 10.1 33.5 2.7l37.2-26 6.9 2.9 7.5 45.2c2.1 12.7 13.2 21.9 26 21.7h75.1c12.8.2 23.9-9 26-21.7l7.5-45.2 6.9-2.9 37.2 26c10.3 7.4 24.5 6.3 33.5-2.7l44.1-45.7c18.7 3.2 37.7 4.9 56.7 4.9 184.7 0 334.5-149.8 334.5-334.6-.1-184.4-149.8-334.1-334.5-334.2zm-123.3 602.8 22.7 31.8-22 22-31.8-22.8c-8.1-5.9-18.9-6.6-27.7-1.8-8.8 4.9-18.1 8.8-27.8 11.7-9.4 2.9-16.3 10.9-17.9 20.5l-6.5 39h-31l-6.5-39c-1.6-9.6-8.3-17.5-17.5-20.5-9.7-2.9-19-6.8-27.8-11.7-8.8-4.8-19.6-4.1-27.7 1.8l-32.3 22.9-22-22 22.7-31.8c5.9-8.2 6.6-19 1.7-27.8-4.7-8.8-8.6-18-11.4-27.5-2.8-9.4-10.6-16.4-20.3-18.2l-39-6.5v-31l39-6.5c9.5-1.6 17.3-8.4 20.3-17.5 2.8-9.5 6.6-18.7 11.4-27.4 4.9-8.8 4.2-19.7-1.7-27.8l-22.7-32.5 22-22 31.8 22.7c8.2 5.9 19 6.6 27.8 1.7 8.9-4.9 18.3-8.7 28.1-11.4 9.2-3 15.9-10.8 17.5-20.3l6.5-39h30.9l6.5 39c1.6 9.8 8.7 17.8 18.2 20.7 9.5 2.8 18.7 6.6 27.4 11.4 8.8 4.9 19.7 4.2 27.8-1.7l31.8-22.7 22 22-22.7 31.5c-5.9 8.1-6.6 18.9-1.8 27.7 4.9 8.8 8.8 18.1 11.7 27.8 2.9 9.4 10.8 16.3 20.5 17.9l39 6.5v30.9l-39 6.5c-9.7 1.6-17.6 8.6-20.5 17.9-2.9 9.7-6.8 19-11.7 27.8-4.6 8.8-3.9 19.6 2 27.7zm123.3 14.3c-17.7-.1-35.4-1.8-52.8-5.1l-19.3-27.1c1-2.2 1.9-4.6 2.9-6.9l45.2-7.5c12.7-2.1 21.9-13.2 21.7-26v-74.6c.2-12.8-9.1-23.9-21.7-26l-45.2-7.5c-.9-2.3-1.8-4.7-2.9-6.9l26-37.2c7.4-10.3 6.3-24.5-2.7-33.5l-53.3-53.3c-9-9-23.2-10.2-33.5-2.7l-37 26-7-2.9-7.5-45.1c-2.1-12.7-13.1-21.9-26-21.7h-59.4c41.2-150.5 196.6-239.1 347.1-197.9 150.5 41.2 239.1 196.6 198 347.1-33.6 122.7-144.9 207.8-272.1 208l-.5.8z"/><path d="M650.088 480.386v-203c0-12.9-10.5-23.4-23.4-23.4-12.9 0-23.4 10.5-23.4 23.4v212.7c0 6.2 2.5 12.1 6.9 16.5l90.4 90.4c9.3 9.1 24.1 9 33.3-.2 9.1-9.2 9-24.1-.2-33.3l-83.6-83.1z"/></g></switch></svg>