<svg xmlns="http://www.w3.org/2000/svg" viewBox="0 0 1080 1080" style="enable-background:new 0 0 1080 1080" xml:space="preserve"><switch><g><path d="M417.206 499.312h245.4c13.3 0 25.8-6.1 33.9-16.5 8.2-10.4 11.1-24.1 7.8-36.9l-18.3-73.5c-8.6-34.5-34.4-62-68.3-72.7 10.2-15.3 15.6-33.3 15.6-51.6-.1-51.6-41.9-93.4-93.4-93.4-51.6.1-93.4 41.9-93.4 93.4 0 18.4 5.4 36.3 15.6 51.6-33.9 10.7-59.7 38.3-68.3 72.7l-18.3 73.5c-3.2 12.9-.3 26.5 7.8 36.9 8.2 10.5 20.7 16.6 33.9 16.5zm122.8-298.1c25.9 0 46.8 21 46.9 46.8 0 25.9-21 46.8-46.9 46.8s-46.8-21-46.9-46.8c0-25.8 21-46.8 46.9-46.8zm-101 182.4c6.2-24.8 28.4-42.2 54-42.2h93.9c25.5 0 47.8 17.4 54 42.2l17.2 69.1h-236.3l17.2-69.1z"/><path d="M936.906 390.912c-.2-35.6-26.6-65.6-61.9-70.3-20.3-2.6-40.7 3.6-56.1 17.1a70.902 70.902 0 0 0-24.2 53.4v113.2c-1.5-.1-2.9-.1-4.4-.1-18.3 0-35.8 7.2-48.7 20.2l-61.1 61.1c-.6.6-1.4.9-2.3.8-.4-.1-.8-.1-1.3-.1l-27.4-1.7c-22.6-2.4-45.1 5.5-61.2 21.7l-37.8 37.8c-3.9 3.9-7.5 8.1-10.8 12.5-3.3-4.4-6.9-8.6-10.8-12.5l-37.8-37.8a75.444 75.444 0 0 0-61.3-21.7l-27.4 1.7c-.4 0-.8.1-1.3.1-.8.1-1.7-.2-2.3-.8l-61.1-61.1c-12.9-13-30.4-20.2-48.7-20.2-1.5 0-3 0-4.4.1v-113.3c0-20.4-8.8-39.9-24.2-53.4-15.4-13.5-35.8-19.7-56.1-17.1-35.3 4.7-61.7 34.7-61.9 70.3l-.6 256.7c0 27 10.7 52.8 29.7 71.9l148.9 148.9v42.4c.1 21.4 17.4 38.7 38.8 38.8h164.6c5.3 0 10.6-1.1 15.5-3.3 4.9 2.2 10.2 3.3 15.5 3.3h164.7c21.4 0 38.8-17.3 38.8-38.8v-42.4l148.9-148.9c19-19.1 29.7-45 29.7-71.9v-256.6zm-62.1 295.7-155.7 155.7c-4.4 4.4-6.8 10.3-6.8 16.5v44.3h-149.1v-176.9c-.1-18.5 7.3-36.3 20.5-49.4l37.8-37.8c6.2-6.2 14.9-9.3 23.6-8.2l1.3.1 27.4 1.6c14.7 1.5 29.3-3.7 39.8-14.2l61.1-61.1c8.7-8.7 22.8-8.7 31.5 0s8.7 22.8 0 31.5l-87 87c-9.1 9.1-9.1 23.8 0 32.9 9.1 9.1 23.8 9.1 32.9 0l87-87c13-12.9 20.2-30.4 20.2-48.7 0-17.1-6.3-33.6-17.8-46.3v-135.5c0-7 3-13.7 8.3-18.4 5.3-4.7 12.3-6.8 19.3-5.9 12.1 1.6 21.2 11.9 21.3 24.2l.6 256.7c-.1 14.6-5.9 28.6-16.2 38.9zm-669.7 0a55.025 55.025 0 0 1-16.1-38.9l.6-256.7c0-12.2 9.1-22.6 21.3-24.2 7-.9 14 1.2 19.3 5.9 5.3 4.6 8.4 11.3 8.3 18.4v135.6c-11.5 12.6-17.9 29.2-17.8 46.3-.1 18.3 7.2 35.8 20.2 48.7l87 87c9.1 9.1 23.8 9.1 32.9 0 9.1-9.1 9.1-23.8 0-32.9l-87-87c-8.7-8.7-8.7-22.8 0-31.5s22.8-8.7 31.5 0l61.1 61.1c10.4 10.5 25.1 15.7 39.8 14.2l27.4-1.6 1.3-.1c8.7-1 17.4 2 23.6 8.2l37.8 37.8c13.2 13.1 20.5 30.9 20.5 49.4v176.9h-149.2v-44.3c0-6.2-2.5-12.1-6.8-16.5l-155.7-155.8z"/></g></switch></svg>