<svg version="1.1" id="Apaptabilidade" xmlns="http://www.w3.org/2000/svg" x="0" y="0" viewBox="0 0 1080 1080" style="enable-background:new 0 0 1080 1080" xml:space="preserve"><style>.st1{stroke:#000;stroke-width:2;stroke-miterlimit:10}</style><switch><g><g id="Group_1800" transform="translate(-110.513 443.712)"><g id="Group_1799" transform="translate(111.161 -443.212)"><path id="Path_866" d="M394.5 979.5h418.2V684.9c67.4-64.7 105.3-154.2 104.8-247.7-.4-90.7-37.4-177.4-102.5-240.6-64.7-63.8-152.3-98.8-243.1-97.1-162.9 2.7-301.1 120.6-329.3 281.1-9.7 55.1-23.5 109.3-41.5 162.2l-39.9 117.9 97.6 24 18.6 182.6h117.2l-.1 112.2zm366.6-51.6h-315V816H324l-17.6-172.5-78.4-19.3 21.9-64.8c18.8-55.4 33.3-112.2 43.4-169.9 24-136.2 141.2-236.2 279.4-238.4 77-1.4 151.4 28.3 206.2 82.5 55.3 53.5 86.6 127.1 87 204.1.5 82.7-34.5 161.7-96.1 216.9l-8.6 7.7-.1 265.6z" style="stroke:#000"/></g><path id="Path_867" class="st1" d="M879.6-60.5c-54.6-.1-98.9-44.3-99-99 0-5.7-4.7-10.4-10.4-10.4-5.8 0-10.4 4.7-10.4 10.4-.1 54.6-44.3 98.9-99 99-5.8 0-10.4 4.7-10.4 10.4s4.7 10.4 10.4 10.4c54.6.1 98.9 44.3 99 99 0 5.8 4.7 10.4 10.4 10.4 5.8 0 10.4-4.7 10.4-10.4.1-54.6 44.3-98.9 99-99 5.8 0 10.4-4.7 10.4-10.4.1-5.7-4.6-10.4-10.4-10.4.1 0 .1 0 0 0zm-109.3 71C758.2-16.4 736.7-38 709.8-50c26.9-12.1 48.5-33.6 60.5-60.5C782.4-83.6 803.9-62 830.8-50c-26.9 12-48.5 33.6-60.5 60.5z"/><path id="Path_868" class="st1" d="M653.3 38.7C613 38.6 580.4 6 580.4-34.2c0-5.8-4.7-10.4-10.4-10.4-5.8 0-10.4 4.7-10.4 10.4-.1 40.3-32.7 72.9-72.9 72.9-5.7 0-10.4 4.7-10.4 10.4 0 5.8 4.7 10.4 10.4 10.4 40.3 0 72.9 32.7 72.9 72.9 0 5.7 4.7 10.4 10.4 10.4s10.4-4.7 10.4-10.4c0-40.3 32.7-72.9 72.9-72.9 5.8 0 10.4-4.7 10.4-10.4s-4.6-10.4-10.4-10.4zM570 89.6a94.9 94.9 0 0 0-40.4-40.4A94.9 94.9 0 0 0 570 8.8a94.9 94.9 0 0 0 40.4 40.4C593 58.1 578.9 72.3 570 89.6z"/></g></g></switch></svg>