<svg xmlns="http://www.w3.org/2000/svg" viewBox="0 0 1080 1080" style="enable-background:new 0 0 1080 1080" xml:space="preserve"><switch><g><path d="M399.9 332.7c51.7-.1 93.7-42 93.7-93.7-.1-51.7-42-93.7-93.7-93.7-51.7.1-93.7 42-93.7 93.7s41.9 93.6 93.7 93.7zm0-140.6c25.9.1 46.8 21 46.9 46.9 0 25.9-21 46.8-46.9 46.9-25.9 0-46.8-21-46.9-46.9 0-25.9 21-46.9 46.9-46.9zM681.1 332.7c51.7-.1 93.7-42 93.7-93.7-.1-51.7-42-93.7-93.7-93.7-51.7.1-93.7 42-93.7 93.7s42 93.6 93.7 93.7zm0-140.6c25.9.1 46.8 21 46.9 46.9 0 25.9-21 46.8-46.9 46.9-25.9 0-46.8-21-46.9-46.9.1-25.9 21-46.9 46.9-46.9zM891.5 380.7c-31-30.8-73-48-116.7-47.9H587.4c-16.3 0-32 2.4-46.8 6.8-15.2-4.5-31-6.9-46.9-6.8H306.1c-43.7-.1-85.6 17.2-116.7 47.9-31.3 30.5-49 72.4-49 116.1 0 43.7 17.6 85.6 49 116.1 25.4 25.2 58.2 41.3 93.2 46.3v286H517V659.1c8-1.2 15.8-2.9 23.3-5.1 7.7 2.3 15.6 4 23.5 5.2v286h234.4v-286c35.1-5 67.8-21.1 93.3-46.3 31.3-30.5 49-72.4 49-116.1 0-43.7-17.7-85.6-49-116.1zm-704.1 116c.5-65.1 53.6-117.5 118.7-117.1h166.6c-13.7 13.4-25.1 29.3-33.5 46.8H306.1c-38.8 0-70.3 31.5-70.3 70.3s31.5 70.3 70.3 70.3h187.5c38.8 0 70.3-31.5 70.3-70.3 0-12.9 10.5-23.4 23.4-23.4h21.1c1.6 7.7 2.4 15.5 2.4 23.4-.1 64.7-52.5 117.1-117.1 117.1H306.1c-65.1.5-118.2-51.9-118.7-117.1zM425 520.2H306.1c-12.9 0-23.4-10.5-23.4-23.4 0-12.9 10.5-23.4 23.4-23.4H425c-1.1 7.7-1.7 15.5-1.7 23.5 0 7.7.6 15.6 1.7 23.3zm231-46.9h118.9c12.9 0 23.4 10.5 23.4 23.4 0 12.9-10.5 23.4-23.4 23.4h-119c1.1-7.7 1.7-15.5 1.7-23.4 0-7.8-.5-15.6-1.6-23.4zM329.6 660.8h46.9v237.5h-46.9V660.8zm93.7 237.5V660.8h46.9v237.5h-46.9zm187.5-237.5h46.9v237.5h-46.9V660.8zm93.7 237.5V660.8h46.8v237.5h-46.8zM774.8 614H608.3c13.7-13.5 25.1-29.3 33.5-46.9h133.1c38.8 0 70.3-31.5 70.3-70.3s-31.5-70.3-70.3-70.3H587.4c-38.8.1-70.3 31.5-70.3 70.3 0 12.9-10.5 23.4-23.4 23.4h-21.1c-1.6-7.7-2.4-15.5-2.4-23.4.1-64.7 52.5-117.1 117.1-117.1h187.5c65.1-.4 118.2 52 118.7 117.1-.5 65.1-53.6 117.5-118.7 117.2z"/></g></switch></svg>