<svg xmlns="http://www.w3.org/2000/svg" viewBox="0 0 1080 1080" style="enable-background:new 0 0 1080 1080" xml:space="preserve"><switch><g><path d="M268.8 318.3c56 0 101.3-45.4 101.3-101.3s-45.4-101.3-101.3-101.3S167.5 161 167.5 216.9c.1 56 45.4 101.3 101.3 101.4zm0-135.1c18.7 0 33.8 15.1 33.8 33.8s-15.1 33.8-33.8 33.8S235 235.7 235 217c.1-18.7 15.2-33.8 33.8-33.8zm526.8 135.1c56 0 101.3-45.4 101.3-101.3s-45.4-101.3-101.3-101.3c-56 0-101.3 45.4-101.3 101.3s45.3 101.2 101.3 101.3zm0-135.1c18.7 0 33.8 15.1 33.8 33.8 0 18.7-15.1 33.8-33.8 33.8-18.7 0-33.8-15.1-33.8-33.8 0-18.7 15.1-33.8 33.8-33.8zM492 733.5h269.8V980h-67.5V801.1H490.4l42.5 42-47.4 48.1-124.6-123 125.6-124 47.4 48.1-41.9 41.2zm-324.5-65.8H235V980h-67.5V735.2H100V451.5c0-55.9 45.4-101.3 101.3-101.3h135.1c55.9 0 101.3 45.4 101.3 101.3V487h133.5l-42.5-41.9 47.5-48.1 125.6 124-124.6 123-47.5-48.1 42.1-41.5H370.1v-103c0-18.6-15.1-33.7-33.8-33.8h-135c-18.6 0-33.7 15.1-33.8 33.8v216.3zm135.1 137.7 67.5 66.7V980h-67.5V805.4zm661.8-353.8v283.7h-67.5V980h-67.5V667.7h67.5V451.6c0-18.6-15.1-33.7-33.8-33.8H728c-9.2 0-17.9 3.7-24.3 10.3l-48-47.4c19-19.5 45.1-30.4 72.3-30.4h135.1c55.9.1 101.2 45.4 101.3 101.3z"/></g></switch></svg>