<svg xmlns="http://www.w3.org/2000/svg" viewBox="0 0 1080 1080" style="enable-background:new 0 0 1080 1080" xml:space="preserve"><switch><g><path d="M940.3 487.1h-66.6c-2 0-4 .1-6 .2-14.8-13.2-31.4-24.3-49.2-32.9 41.9-29.6 66.8-77.7 66.8-129-.1-87.3-70.8-158-158.1-158.1-87.3.1-158 70.8-158.1 158.1 0 40.3 15.4 79.1 43.1 108.4H495.6c27.7-29.3 43.1-68.1 43.1-108.4-.1-87.3-70.8-158-158.1-158.1-87.3.1-158 70.8-158.1 158.1 0 47.1 21 91.7 57.3 121.7-24.4 9.1-47 22.8-66.4 40.2-2-.1-4-.2-6-.2h-66.6c-13.7 0-24.9 11.1-24.9 24.9v133.3c0 13.7 11.1 24.9 24.9 24.9h1.8v188.4c0 13.7 11.1 24.9 24.9 24.9h746.2c13.7 0 24.9-11.1 24.9-24.9V670.1h1.8c13.7 0 24.9-11.1 24.9-24.9V512c-.2-13.8-11.3-24.9-25-24.9zm-24.9 133.3h-41.8c-23 0-41.7-18.7-41.7-41.8 0-23.1 18.7-41.8 41.7-41.8h41.8v83.6zm-296.7-295c.1-59.8 48.5-108.3 108.4-108.4 59.8.1 108.3 48.5 108.4 108.4-.1 59.8-48.5 108.3-108.4 108.4-59.9-.1-108.4-48.5-108.4-108.4zM380.6 217.1c59.8.1 108.3 48.5 108.4 108.4-.1 59.8-48.5 108.3-108.4 108.4-59.8-.1-108.3-48.5-108.4-108.4.1-59.9 48.5-108.3 108.4-108.4zM165.5 536.8h41.8c23 0 41.7 18.7 41.7 41.8 0 23-18.7 41.7-41.7 41.7h-41.8v-83.5zm26.7 133.3h15.1c50.5-.1 91.5-41 91.5-91.5 0-26.9-11.9-52.4-32.4-69.8h.6c25.9-16.6 56.1-25.3 86.9-25.2h237c-47.8 40.1-75.4 99.3-75.3 161.7v188.3H298.8V725.2c0-13.7-11.1-24.9-24.9-24.9-13.7 0-24.9 11.1-24.9 24.9v108.4h-56.8V670.1zm696.5 163.5h-56.8V725.2c0-13.7-11.1-24.9-24.9-24.9-13.7 0-24.9 11.1-24.9 24.9v108.4H565.4V645.2c.1-89.3 72.4-161.6 161.7-161.7 30.9-.1 61.2 8.7 87.2 25.4-20.4 17.4-32.2 42.8-32.2 69.6.1 50.5 41 91.5 91.5 91.5h15.1v163.6z" style="stroke:#000;stroke-miterlimit:10;enable-background:new"/></g></switch></svg>