<svg xmlns="http://www.w3.org/2000/svg" viewBox="0 0 1080 1080" style="enable-background:new 0 0 1080 1080" xml:space="preserve"><switch><g><path d="M907.6 673.2h-43.8v-87.6H732.3v87.6h-49.8V523.1c-.1-59-34.5-110-84.3-134 13.4-15.2 21.6-35.1 21.6-57v-56.4h-.1V166.6H531c-46.1 0-83.4 37.4-83.4 83.5v82c0 21.9 8.2 41.8 21.6 57-49.9 24-84.3 75-84.3 134.1v150.1h-49.8v-87.6H203.7v87.6h-43.8V717h43.8v87.6h131.4V717H446v197.4h175.4V717h110.9v87.6h131.4V717h43.8v-43.8zm-616.3 87.6h-43.8V629.4h43.8v131.4zm200.2-510.7c0-21.9 17.7-39.6 39.6-39.7H576v43.4h-84.5v-3.7zm0 82v-34.5h84.6v34.5c0 23-18.4 41.7-41.2 42.3h-2.2c-22.9-.6-41.2-19.3-41.2-42.3zm-62.7 191c.1-57.9 47-104.9 104.9-105 57.9.1 104.9 47 104.9 105v150.1H428.8V523.1zm148.8 347.5h-87.8V717h87.8v153.6zM820 760.8h-43.8V629.4H820v131.4z"/></g></switch></svg>