<svg xmlns="http://www.w3.org/2000/svg" viewBox="0 0 1080 1080" style="enable-background:new 0 0 1080 1080" xml:space="preserve"><switch><g><path d="m923.717 609.97-20.6-10.3c-56.8-28.4-125.9-5.5-154.3 51.3l-.1.2-35 69.9c-21.1-33.3-57.7-53.6-97.2-53.6h-105.8c-70.6-63.6-177.9-63.6-248.5 0h-106v276.2h138.1v-40.7h482.9l146.5-293zm-675.5 287.8h-46v-184.1h46v184.1zm46-40.8v-156.4c25.4-22.4 58.2-34.7 92.1-34.6 40.4.3 78.8 17.6 105.7 47.8h124.6c29.3 0 55.3 18.5 65.1 46h-249.3v46h290.4l67-133.9c13.1-26.2 41.2-41.3 70.3-37.7l-111.5 223-454.4-.2z"/><path d="M478.417 503.27v46c0 38.1 30.9 69 69.1 69 38.1 0 69-30.9 69-69v-46c0-10.7 14.8-28.6 29-45.8 26.6-32.2 63.1-76.1 63.1-138.4 0-89-72.1-161.1-161.1-161.1s-161.1 72.1-161.1 161.1c0 62.2 36.5 106.2 63.1 138.4 14.2 17.3 28.9 35.1 28.9 45.8zm69.1 69.1c-12.7 0-23-10.3-23-23v-23h46v23c0 12.7-10.3 23-23 23zm0-368.3c63.5.1 115 51.6 115.1 115.1 0 45.6-27.9 79.3-52.5 109-14.4 15.4-26.2 33-35.1 52.2h-55c-8.9-19.1-20.7-36.7-35.1-52.2-24.6-29.7-52.5-63.3-52.5-109 .2-63.6 51.6-115 115.1-115.1z"/><path d="M524.517 434.27h46v-59.5l39.3-39.3-32.6-32.6-29.8 29.8-29.8-29.8-32.6 32.6 39.3 39.3.2 59.5zM248.317 305.27h92.1v46h-92.1v-46zM754.717 305.27h92.1v46h-92.1v-46zM276.917 458.07l79.7-46 23 39.9-79.7 46-23-39.9zM715.317 204.87l79.7-46.9 23.4 39.8-79.7 46.9-23.4-39.8zM276.717 197.77l23.4-39.7 79.7 46.9-23.3 39.7-79.8-46.9zM715.517 451.87l23-39.9 79.7 46-23 39.9-79.7-46z"/></g></switch></svg>