<svg xmlns="http://www.w3.org/2000/svg" viewBox="0 0 1080 1080" style="enable-background:new 0 0 1080 1080" xml:space="preserve"><switch><g><path d="M937.1 703.7c0-46.5-14-91.8-40.4-130.1-18.8-27.5-43.3-50.6-71.8-67.8 34.6-32.6 54.2-78.1 54.2-125.7-.1-95.6-77.6-173.1-173.2-173.2-56.5.1-109.5 27.7-141.9 74-8.3-1.2-16.7-1.8-25.1-1.8-8.4 0-16.8.6-25.1 1.8-32.5-46.3-85.4-73.9-141.9-74-95.6.1-173.1 77.6-173.2 173.2 0 47.6 19.6 93.1 54.2 125.7-28.5 17.2-53 40.3-71.8 67.8-26.3 38.3-40.4 83.6-40.4 130.1V800h167v72.2h462.2V800h167l.2-96.3zM706 249.5c72 .1 130.4 58.5 130.5 130.5-.1 72-58.5 130.4-130.5 130.5-1.3 0-2.6 0-3.9-.1.1-.3.2-.6.3-.8 2.2-6.4 4.1-12.8 5.6-19.4.1-.5.2-.9.3-1.4.4-1.8.7-3.6 1.1-5.4.2-.9.3-1.7.5-2.6.3-1.6.5-3.2.7-4.8.2-1.1.3-2.3.4-3.4.2-1.4.3-2.9.5-4.3.1-1.5.2-3 .3-4.4.1-1.2.2-2.3.2-3.5.1-2.5.2-5 .2-7.6v-.9c0-2.6-.1-5.1-.2-7.7 0-.7-.1-1.5-.1-2.2-.1-2.2-.3-4.3-.5-6.5 0-.5-.1-1-.1-1.4-6.3-62-45.6-115.8-102.8-140.6 24.7-27.9 60.2-43.9 97.5-44zm-212.1 80.2 1.2-.4c1.3-.5 2.6-.9 3.9-1.3l3-.9c.7-.2 1.5-.4 2.2-.6 1.3-.4 2.6-.7 4-1 10.1-2.4 20.4-3.7 30.8-3.7 10.4 0 20.7 1.3 30.8 3.7 1.3.3 2.6.7 4 1l2.2.6 3 .9c1.3.4 2.7.9 4 1.3l1.2.4c44.3 16.4 76.3 55.5 83.8 102.1l.2 1.1.6 4.8c.1.6.1 1.2.2 1.8.1 1.5.2 3 .3 4.4 0 .6.1 1.3.1 1.9.1 1.9.1 3.8.1 5.8v.7c0 1.9 0 3.7-.1 5.6l-.1 1.7c-.1 1.8-.2 3.6-.4 5.3-.1.7-.1 1.3-.2 2-.1 1.1-.3 2.3-.4 3.4l-.4 2.6c-.2 1.3-.5 2.7-.7 4-.3 1.3-.5 2.3-.7 3.5-.1.7-.3 1.4-.5 2.1-.4 1.7-.9 3.5-1.4 5.2-.2.7-.4 1.4-.6 2-.3 1-.6 1.9-.9 2.9-.3.8-.5 1.6-.8 2.3-.3.8-.6 1.8-.9 2.6-.6 1.5-1.1 2.9-1.7 4.4-.3.6-.6 1.3-.8 1.9-.5 1.2-1.1 2.4-1.6 3.6l-.2.4-.6 1.3c-.6 1.3-1.3 2.6-2 3.8-.3.5-.5 1-.8 1.5v.1c-.7 1.3-1.5 2.7-2.3 4-.3.5-.6 1.1-.9 1.6-.8 1.4-1.7 2.8-2.6 4.1-.6.8-1.2 1.7-1.7 2.5s-1 1.4-1.5 2.1c-.6.9-1.3 1.8-2 2.7-.5.6-.9 1.2-1.4 1.8-.7.9-1.4 1.8-2.2 2.7-.5.5-.9 1.1-1.4 1.6-.8.9-1.5 1.8-2.3 2.6-.5.5-1 1-1.4 1.5-1.3 1.3-2.6 2.7-4 4-.8.8-1.6 1.6-2.4 2.3-.6.5-1.2 1-1.7 1.5-.9.8-1.9 1.7-2.8 2.4l-1.5 1.2c-1.2.9-2.3 1.9-3.5 2.8l-1 .7c-22.4 16.7-49.7 25.7-77.7 25.7s-55.2-9-77.7-25.7l-1-.7c-1.2-.9-2.4-1.8-3.6-2.8l-1.5-1.2c-1-.8-1.9-1.6-2.9-2.4L451 548c-.8-.7-1.6-1.5-2.4-2.3-1.3-1.3-2.7-2.6-4-4-.5-.5-1-1-1.4-1.5-.8-.9-1.6-1.8-2.3-2.6-.5-.5-.9-1.1-1.4-1.6-.7-.9-1.5-1.8-2.2-2.7-.5-.6-.9-1.2-1.4-1.8-.7-.9-1.3-1.8-2-2.7l-1.5-2.1c-.5-.7-1.2-1.6-1.7-2.5-.9-1.4-1.8-2.7-2.7-4.1l-.9-1.5c-.8-1.3-1.6-2.7-2.3-4.1l-.8-1.5c-.7-1.3-1.3-2.5-2-3.8-.2-.5-.4-.9-.7-1.4l-.1-.2c-.6-1.2-1.2-2.5-1.7-3.8l-.8-1.8-1.8-4.5c-.3-.8-.6-1.6-.9-2.5-.3-.8-.6-1.7-.9-2.5s-.6-1.9-.9-2.8l-1.2-4.2c-.3-1-.5-2-.7-3-.2-.8-.4-1.6-.6-2.3-.2-.8-.4-1.9-.6-2.9-.3-1.5-.6-3-.8-4.5-.1-.8-.2-1.6-.4-2.4-.2-1.2-.3-2.4-.5-3.6-.1-.6-.1-1.2-.2-1.8-.2-1.8-.3-3.6-.4-5.4 0-.5-.1-1-.1-1.6-.1-1.9-.1-3.9-.1-5.9s0-4.2.2-6.3c0-.6.1-1.1.1-1.7.1-1.6.2-3.1.4-4.7 0-.6.1-1.1.2-1.6.2-1.7.4-3.4.6-5l.1-1c7.3-46.6 39.3-85.6 83.7-102.1zM241.5 380c.1-72 58.5-130.4 130.5-130.5 37.3.1 72.8 16 97.5 43.9-57.1 24.9-96.5 78.6-102.8 140.7 0 .4-.1.8-.1 1.3-.2 2.2-.4 4.5-.5 6.7 0 .7-.1 1.4-.1 2-.1 2.7-.2 5.4-.2 8.1 0 2.7.1 5.4.2 8.2 0 1.1.1 2.2.2 3.3.1 1.6.2 3.1.4 4.7.1 1.4.3 2.8.4 4.1.1 1.2.3 2.4.5 3.6.2 1.6.5 3.1.7 4.7.2.9.3 1.8.5 2.8.3 1.7.6 3.5 1 5.2l.4 1.7c1.4 6.4 3.2 12.7 5.4 18.8l.4 1.2c-1.3 0-2.6.1-3.9.1-72-.1-130.4-58.5-130.5-130.6zm102.3 272.6c-.5.7-.9 1.5-1.4 2.2-1 1.6-1.9 3.2-2.9 4.8-.5.9-1 1.8-1.6 2.7-.8 1.5-1.7 3-2.5 4.5-.5 1-1 1.9-1.5 2.8-.8 1.5-1.5 3-2.3 4.5-.5.9-.9 1.9-1.4 2.9-.8 1.6-1.5 3.2-2.2 4.8l-1.2 2.6c-.8 1.9-1.6 3.9-2.4 5.8-.2.6-.5 1.1-.7 1.7-1 2.5-1.9 5-2.8 7.6l-.6 1.8c-.7 2-1.3 3.9-1.9 5.9-.3.9-.5 1.8-.8 2.7l-1.5 5.1c-.3 1-.5 2-.8 3-.4 1.6-.8 3.2-1.2 4.9-.2 1-.5 2.1-.7 3.1-.4 1.6-.7 3.3-1 5l-.6 3-.9 5.4c-.1.9-.3 1.7-.4 2.5-.4 2.7-.7 5.4-1.1 8v.1c-.3 2.4-.5 4.9-.7 7.4h-125v-53.6c0-72.9 42.1-139.2 108-170.2 24.8 13 52.3 19.8 80.3 19.8 8.4 0 16.8-.6 25.1-1.8 1.3 1.8 2.6 3.7 4 5.5l1.4 1.8c1.3 1.7 2.7 3.4 4.1 5.1l1.8 2c1.3 1.5 2.7 3 4.1 4.5.7.8 1.5 1.5 2.2 2.3 1.2 1.3 2.5 2.6 3.8 3.8.5.5.9 1 1.4 1.4-1.9 1.1-3.7 2.3-5.5 3.5l-.9.6-5.4 3.6-1.9 1.3c-1.6 1.1-3.2 2.3-4.7 3.4l-1.5 1.1c-2 1.5-3.9 3-5.9 4.6l-1.2 1c-1.6 1.3-3.1 2.5-4.6 3.9l-1.8 1.5c-1.5 1.3-3 2.7-4.5 4.1l-1.2 1.1c-1.8 1.7-3.6 3.5-5.4 5.2l-1.4 1.4c-1.3 1.4-2.7 2.8-4 4.2l-1.6 1.7c-1.5 1.6-2.9 3.3-4.4 4.9l-.7.8c-1.6 1.9-3.2 3.9-4.8 5.8l-1.3 1.7c-1.2 1.5-2.4 3-3.5 4.6-.5.6-.9 1.2-1.3 1.8-1.5 2-3 4.1-4.4 6.2-1.2 1.9-2.8 4.3-4.2 6.6zm6.9 176.8v-53.6c0-2.4 0-4.7.1-7.1 0-.8.1-1.5.1-2.3.1-1.6.1-3.1.3-4.7.1-1 .2-1.9.3-2.8.1-1.4.2-2.8.4-4.1.1-1 .3-2 .4-3 .2-1.3.3-2.6.5-3.9.1-1 .3-2.1.5-3.1.2-1.2.4-2.5.6-3.8.2-1.1.4-2.1.6-3.1.2-1 .5-2.4.8-3.6.3-1.2.5-2.1.8-3.2s.6-2.4.9-3.5c.3-1.1.6-2.1.9-3.2.3-1.1.6-2.3 1-3.4.3-1.1.7-2.1 1-3.2.3-1 .7-2.2 1.1-3.4.4-1.1.8-2.1 1.1-3.1.4-1 .8-2.2 1.2-3.3s.8-2.1 1.2-3.1.9-2.2 1.3-3.2c.5-1.1.9-2 1.4-3.1.5-1 .9-2.1 1.4-3.1l1.5-3c.5-1 1-2.1 1.5-3.1s1.1-2 1.6-3 1.1-2 1.6-3c.6-1 1.1-1.9 1.7-2.9.6-1 1.2-2 1.7-2.9.5-1 1.2-1.9 1.8-2.9s1.2-1.9 1.8-2.9c.6-1 1.3-1.9 1.9-2.8.6-.9 1.3-1.9 1.9-2.8s1.3-1.8 2-2.8c.7-.9 1.3-1.8 2-2.7l2.1-2.7c.7-.9 1.4-1.8 2.1-2.6l2.2-2.6c.7-.9 1.5-1.7 2.2-2.5.8-.8 1.5-1.7 2.3-2.5.8-.8 1.6-1.7 2.3-2.5l2.4-2.4 2.4-2.4 2.5-2.3 2.5-2.3c.8-.8 1.7-1.5 2.6-2.3.9-.7 1.7-1.5 2.6-2.2s1.8-1.4 2.7-2.2 1.8-1.4 2.7-2.2l2.7-2.1c.9-.7 1.9-1.4 2.8-2.1.9-.7 1.9-1.3 2.8-1.9.9-.6 1.9-1.3 2.9-2 1-.6 1.9-1.2 2.9-1.9l3-1.9c1-.6 2-1.2 2.9-1.8 1-.6 2.1-1.2 3.1-1.8 1-.6 2-1.1 3-1.7 1-.5 2.1-1.1 3.2-1.7l3.1-1.6 2.4-1.2c24.8 13 52.3 19.8 80.3 19.8s55.5-6.8 80.3-19.8l2.4 1.2 3.1 1.6 3.2 1.7c1 .6 2 1.1 3 1.7 1 .6 2.1 1.2 3.1 1.8l3 1.8 3 1.8 2.9 1.9 2.9 1.9 2.8 2c.9.7 1.9 1.3 2.8 2 .9.7 1.9 1.4 2.8 2.1l2.7 2.1c.9.7 1.8 1.4 2.7 2.2.9.7 1.7 1.5 2.6 2.2l2.6 2.3 2.5 2.3c.8.8 1.7 1.6 2.5 2.4l2.4 2.4 2.4 2.4 2.3 2.4c.8.8 1.6 1.7 2.3 2.5l2.2 2.5c.8.9 1.5 1.7 2.2 2.6.7.9 1.4 1.7 2.1 2.6.7.9 1.4 1.8 2.2 2.7.7.9 1.3 1.8 2 2.7.7.9 1.4 1.8 2 2.8.7.9 1.3 1.8 1.9 2.8s1.3 1.9 1.9 2.8c.6.9 1.2 1.9 1.8 2.8s1.2 1.9 1.8 2.9c.6 1 1.2 1.9 1.7 2.9s1.2 1.9 1.7 2.9 1.1 2 1.6 3 1.1 2 1.6 3 1 2 1.5 3.1 1 2 1.5 3 1 2.1 1.4 3.1c.5 1 .9 2 1.4 3.1.4 1 .9 2.1 1.3 3.2s.9 2.1 1.3 3.1l1.2 3.3c.4 1.1.8 2.1 1.1 3.1.4 1.1.7 2.2 1.1 3.4s.7 2.1 1 3.2c.3 1.1.6 2.3 1 3.4.3 1.1.6 2.1.9 3.2.3 1.1.6 2.3.9 3.5.3 1.2.5 2.1.8 3.2.2 1.1.5 2.4.8 3.6.3 1.2.4 2.1.6 3.2.2 1.1.4 2.5.6 3.7.2 1 .4 2.1.5 3.1.2 1.3.3 2.6.5 3.9.1 1 .3 2 .4 3 .2 1.4.3 2.8.4 4.1.1 1 .2 1.9.3 2.8.1 1.6.2 3.1.3 4.7 0 .8.1 1.6.1 2.3.1 2.4.1 4.7.1 7.1V829l-375.6.4zm418.7-72.2c-.4-5.2-1-10.4-1.8-15.5-.1-.8-.3-1.6-.4-2.4-.3-1.9-.6-3.7-1-5.6-.2-1-.4-1.9-.6-2.9-.3-1.7-.7-3.4-1.1-5.1-.2-1-.5-2-.7-3-.4-1.7-.8-3.3-1.2-4.9-.3-1-.5-2-.8-3l-1.5-5.1c-.3-.9-.5-1.8-.8-2.7-.6-2-1.3-4-2-6-.2-.6-.4-1.1-.6-1.7-.9-2.6-1.8-5.1-2.8-7.6-.2-.6-.5-1.1-.7-1.6-.8-1.9-1.6-3.9-2.4-5.8-.4-.9-.8-1.7-1.2-2.6-.7-1.6-1.5-3.2-2.2-4.8-.4-.9-.9-1.9-1.4-2.8-.7-1.5-1.5-3-2.3-4.5-.5-1-1-1.9-1.5-2.8-.8-1.5-1.6-3-2.5-4.5l-1.5-2.7c-1-1.6-1.9-3.2-2.9-4.8-.5-.7-.9-1.5-1.4-2.2l-4.5-6.9c-1.4-2.1-2.9-4.2-4.4-6.2-.4-.6-.9-1.2-1.3-1.8-1.2-1.6-2.3-3.1-3.5-4.6l-1.3-1.6c-1.6-2-3.2-3.9-4.8-5.8l-.6-.7c-1.4-1.7-2.9-3.3-4.4-4.9l-1.6-1.7c-1.3-1.4-2.7-2.8-4-4.2-.4-.5-.9-.9-1.3-1.4-1.8-1.8-3.5-3.5-5.4-5.2-.4-.4-.8-.7-1.1-1-1.5-1.4-3-2.7-4.5-4.1l-1.7-1.5c-1.5-1.3-3-2.6-4.6-3.9l-1.2-1c-1.9-1.6-3.9-3.1-5.9-4.6-.5-.4-1-.7-1.5-1.1-1.6-1.2-3.1-2.3-4.7-3.4l-1.9-1.3-5.4-3.6-.9-.6c-1.8-1.2-3.6-2.3-5.5-3.4.5-.5.9-1 1.4-1.4l3.9-3.9c.7-.7 1.4-1.5 2.1-2.2 1.4-1.5 2.8-3 4.1-4.6l1.7-2c1.4-1.7 2.8-3.4 4.2-5.2.4-.6.9-1.1 1.3-1.7 1.4-1.8 2.7-3.6 4-5.5 8.3 1.2 16.7 1.8 25.1 1.8 28 0 55.6-6.8 80.3-19.8 66 31 108.1 97.3 108 170.2v53.6l-124.8-.2z" style="stroke:#000;stroke-width:2" transform="translate(1 1)"/></g></switch></svg>