<svg xmlns="http://www.w3.org/2000/svg" viewBox="0 0 1080 1080" style="enable-background:new 0 0 1080 1080" xml:space="preserve"><switch><g><path d="M332.2 945.2c-86-.1-155.7-69.8-155.8-155.8V359.9c0-24.9 8.1-49.1 23.1-68.9l-.2.3 70.6-94.2c29.5-39.1 75.6-62.2 124.7-62.3h290.9c48.9.1 94.9 23 124.4 62l.3.4 70.6 94.3c14.8 19.8 22.9 43.8 22.9 68.6v429.4c-.1 86-69.8 155.8-155.9 155.8H332.2v-.1zm-93.5-155.9c.1 51.6 41.9 93.4 93.5 93.5h415.5c51.6-.1 93.4-41.9 93.5-93.5V363.5H238.7v425.8zM810.1 301l-49.9-66.5c-17.7-23.5-45.4-37.3-74.8-37.4H394.5c-29.3.1-56.9 13.8-74.7 37.2l-.2.2-49.7 66.5h540.2zM384.2 456.8c0-17.2 13.9-31.1 31.1-31.1s31.1 13.9 31.1 31.1c0 51.6 41.8 93.5 93.5 93.5 51.6 0 93.5-41.8 93.5-93.5 0-17.2 13.9-31.1 31.1-31.1 17.2 0 31.1 13.9 31.1 31.1 0 86.1-69.8 155.8-155.8 155.9-86.1 0-155.9-69.8-155.9-155.9h.3z" style="enable-background:new"/></g></switch></svg>