<svg xmlns="http://www.w3.org/2000/svg" viewBox="0 0 1080 1080" style="enable-background:new 0 0 1080 1080" xml:space="preserve"><switch><g><path d="M859.352 239.366c-66.6.1-120.6 54-120.7 120.7.1 66.6 54.1 120.6 120.7 120.6 66.6-.1 120.6-54 120.6-120.6 0-66.7-54-120.7-120.6-120.7zm0 190.8c-38.7 0-70.1-31.4-70.2-70.1 0-38.7 31.4-70.1 70.2-70.2 38.7 0 70.1 31.4 70.1 70.2 0 38.6-31.4 70-70.1 70.1zM149.852 401.666c4.7 4.7 11.2 7.4 17.9 7.4 6.7 0 13.1-2.7 17.8-7.4l65.6-65.6 65.6 65.6c4.7 4.7 11.2 7.4 17.9 7.4 6.7 0 13.1-2.7 17.9-7.4 9.9-9.9 9.9-25.8 0-35.7l-65.6-65.6 65.6-65.6c9.8-9.9 9.8-25.8 0-35.7-9.9-9.9-25.8-9.9-35.7 0l-65.6 65.6-65.6-65.6c-9.8-9.9-25.8-9.9-35.7 0-9.9 9.9-9.9 25.8 0 35.7l65.6 65.6-65.7 65.6c-9.8 9.9-9.8 25.9 0 35.7zM686.452 699.866c-9.9-9.8-25.8-9.8-35.7 0l-65.6 65.6-65.6-65.6c-9.9-9.8-25.8-9.8-35.7 0-9.9 9.9-9.9 25.8 0 35.7l65.6 65.6-65.6 65.6c-9.9 9.8-9.9 25.8 0 35.7 4.7 4.7 11.1 7.4 17.8 7.4 6.7 0 13.1-2.7 17.9-7.4l65.6-65.6 65.6 65.6c4.7 4.7 11.2 7.4 17.9 7.4 6.7 0 13.1-2.7 17.9-7.4 9.8-9.9 9.8-25.8 0-35.7l-65.6-65.6 65.6-65.6c9.7-9.9 9.7-25.8-.1-35.7zM688.352 345.766l-101.8-88.5c-10.5-9.1-26.5-8-35.6 2.5-9.1 10.5-8 26.4 2.5 35.6l54 47a441.059 441.059 0 0 0-306.2 174.5c-34.2 46-59.9 97.6-76 152.6-60.7 7.2-106.5 58.6-106.5 119.8.1 66.6 54 120.6 120.6 120.7 66.6 0 120.6-54 120.7-120.6-.1-52.3-33.8-98.6-83.5-114.8 14.8-46.4 37.3-90 66.5-129.1 65.7-87.2 156.9-138.6 271.6-153.2l-50.3 57.9c-9.1 10.5-8 26.4 2.5 35.6 4.6 4 10.5 6.2 16.5 6.2 7.3 0 14.3-3.2 19.1-8.7l88.5-101.9c9.1-10.5 8-26.4-2.6-35.6zm-378.9 443.4c0 38.7-31.4 70.1-70.2 70.2-38.7-.1-70.1-31.4-70.1-70.2 0-38.7 31.4-70.1 70.1-70.1 38.8 0 70.2 31.4 70.2 70.1z"/></g></switch></svg>