<svg xmlns="http://www.w3.org/2000/svg" viewBox="0 0 1080 1080" style="enable-background:new 0 0 1080 1080" xml:space="preserve"><switch><g><path d="m836.518 357.757 54.2-85 42.5 27.1-54.3 85-42.4-27.1zM682.318 289.457l32.3-95.4 47.8 16.2-32.4 95.3-47.7-16.1zM514.718 167.957h50.4v100.8h-50.4v-100.8zM317.618 209.957l47.8-16.2 32.3 95.4-47.8 16.2-32.3-95.4zM146.518 299.957l42.5-27.1 54.2 85-42.5 27.1-54.2-85zM956.918 587.157l13.3-16.4-13.8-15.9c-35.9-39.3-76-74.5-119.7-105-97.8-69-200.5-105.5-296.8-105.5s-198.9 36.5-296.5 105.5c-43.6 30.5-83.6 65.7-119.4 105l-14.2 16.5 14.2 16.5c35.8 39.3 75.8 74.5 119.4 105 97.7 69 200.3 105.5 296.5 105.5 50.5-.4 100.5-9.4 147.9-26.5 3.4 6.1 7.6 11.7 12.5 16.6l124.8 124.8 107-107-105-105c48.3-32 92-70.3 129.8-114.1zm-327.8 22.9c-49.3 49.1-129 49.1-178.3 0-23.7-23.6-37-55.7-36.9-89.2-.1-33.4 13.2-65.5 36.9-89.1 23.6-23.7 55.7-36.9 89.1-36.9 33.4-.1 65.5 13.2 89.2 36.9 23.7 23.6 37 55.7 36.9 89.1.1 33.5-13.2 65.6-36.9 89.2zm-355.6 42.2c-34.3-24.2-66.3-51.3-95.9-81 29.5-29.7 61.6-56.8 95.9-81 36.7-26.1 76.3-47.8 117.9-64.9-18.3 28.4-28.1 61.6-28 95.4-.1 46.8 18.5 91.8 51.7 124.8 33.1 33.1 78 51.7 124.8 51.6 38.1 0 75.2-12.3 105.7-35.1l40 40c-2.9 6-4.9 12.4-6.1 18.9-44.6 17.1-91.8 26.2-139.6 26.7-108 .2-204.5-51.8-266.4-95.4zm551.6 189.5-89.2-89.1c-9.8-9.9-9.8-25.8 0-35.7 9.8-9.8 25.8-9.8 35.6 0l89.1 89.2-35.5 35.6zm-37.8-174.8c-20.8-10.2-45.1-10.4-66.1-.4l-40-40c22.9-30.5 35.2-67.6 35.1-105.7.1-33.9-9.6-67-28-95.5 41.8 17.1 81.4 38.8 118.2 64.9 34.5 24.3 66.8 51.5 96.5 81.4-34.6 36.3-73.5 68.3-115.7 95.3z"/><path d="M539.918 445.257c-41.7.1-75.6 33.9-75.6 75.6 0 41.8 33.9 75.6 75.6 75.6 41.8-.1 75.6-33.9 75.6-75.6 0-41.7-33.9-75.5-75.6-75.6zm0 100.9c-13.9 0-25.2-11.3-25.2-25.2 0-13.9 11.3-25.2 25.2-25.2 13.9 0 25.2 11.3 25.2 25.2 0 13.9-11.3 25.1-25.2 25.2z"/></g></switch></svg>