<svg xmlns="http://www.w3.org/2000/svg" viewBox="0 0 1080 1080" style="enable-background:new 0 0 1080 1080" xml:space="preserve"><switch><g><path d="M942.1 524.4h-33.6c15.6-31.1 23.7-65.4 23.6-100.2.2-59.2-23.4-116.1-65.4-157.9-87.2-87-228.5-87-315.7 0l-10.4 10.4-10.4-10.4c-41.8-42-98.6-65.6-157.9-65.4-59.2-.2-116.1 23.4-157.9 65.4-42 41.8-65.5 98.6-65.4 157.9-.1 34.8 8 69.1 23.6 100.2H139c-13.8 0-25 11.2-25 25s11.2 25 25 25h68.1c2.4 2.6 4.8 5.2 7.3 7.7L523 890.5c4.7 4.7 11 7.3 17.7 7.3 6.6 0 13-2.6 17.7-7.3l308.4-308.4c2.5-2.5 5-5.1 7.3-7.7h68c13.8 0 25-11.2 25-25s-11.2-25-25-25zm-743-100.2c-.1-46 18.1-90.1 50.8-122.6 32.4-32.6 76.6-50.9 122.6-50.8 46-.1 90.1 18.1 122.6 50.8l28 28c4.7 4.7 11 7.3 17.7 7.3 6.6 0 13-2.6 17.7-7.3l28-28c67.7-67.6 177.4-67.6 245.1 0 32.6 32.4 50.9 76.6 50.8 122.6.1 35.9-11 70.9-31.9 100.2h-131l-55.8-88.1-.1-.1-.1-.2-.3-.4c-.3-.5-.7-1-1.1-1.5-.2-.3-.4-.5-.6-.7-.2-.2-.6-.8-1-1.2l-.9-.9c-.3-.3-.5-.6-.8-.8s-.8-.7-1.3-1c-.2-.2-.4-.4-.6-.5-.5-.4-1.1-.7-1.7-1.1l-.4-.3h-.1l-1.8-.9-.5-.2c-.4-.2-.9-.4-1.3-.5-2.4-.9-4.9-1.4-7.4-1.6H640.6l-.6.1c-2.6.2-5.1.9-7.5 1.9-.4.2-.8.3-1.2.5l-.5.3c-.6.3-1.1.6-1.7 1h-.1l-.4.3c-.5.4-1.1.7-1.6 1.1l-.6.6c-.2.2-.8.7-1.2 1l-.8.8c-.2.2-.6.6-.8.9s-.6.8-1 1.2c-.3.4-.4.5-.5.7-.4.5-.7 1.1-1 1.6l-.3.5-.1.2-.1.1L538.7 580 433.1 371.4l-.1-.1c-.3-.5-.5-.9-.8-1.4-.1-.3-.3-.5-.4-.7-.2-.3-.6-.9-.9-1.3-.2-.2-.3-.5-.5-.7-.2-.2-.6-.7-1-1.1-.3-.4-.4-.5-.6-.7-.2-.2-.6-.5-.8-.8s-.6-.6-.9-.9c-.3-.3-.5-.4-.7-.6-.3-.2-.8-.6-1.2-.9l-.7-.4c-.5-.3-.9-.6-1.4-.9-.3-.1-.5-.3-.7-.4-.5-.3-1-.5-1.5-.7l-.2-.1c-.3-.1-.5-.2-.8-.3-.5-.2-.9-.4-1.4-.5s-.8-.2-1.2-.3l-1.2-.3-1.3-.2c-.4 0-.7-.1-1.1-.2-.4 0-.8-.1-1.3-.1H410l-1.3.1-1.1.1c-.4.1-.9.1-1.3.2s-.7.1-1 .2c-.3.1-.9.2-1.3.4l-1.1.4c-.4.1-.8.3-1.2.4l-1.2.5c-.3.1-.6.3-.8.4l-.2.1c-.4.2-.9.5-1.3.7-.4.3-.6.3-.8.5-.3.2-.8.6-1.2.8-.4.3-.6.4-.8.6-.3.2-.6.5-.9.8s-.6.5-.9.8l-.6.6c-.4.4-.7.7-1 1.1s-.3.4-.5.6c-.3.4-.7.9-1 1.3-.1.2-.3.4-.4.7-.3.5-.6.9-.9 1.4l-.4.7c-.3.5-.5 1-.7 1.5l-.1.2-63.5 151.3h-93.3c-21.1-29.1-32.2-64.1-32.1-100zm341.5 413.3L277.5 574.3h63.3c.8 0 1.6 0 2.3-.1h.5c.6-.1 1.2-.2 1.7-.3l.6-.1c.7-.1 1.3-.3 2-.5l.8-.3c.4-.1.8-.3 1.2-.4l.9-.4c.4-.2.8-.4 1.3-.6l.6-.3c.6-.3 1.2-.7 1.8-1.1l.4-.3c.5-.3.9-.7 1.4-1l.4-.3c.5-.4 1-.9 1.5-1.3l.1-.1c.5-.5 1.1-1.1 1.6-1.7l.1-.1c.4-.5.8-1 1.2-1.6l.4-.5.8-1.3.4-.7c.2-.4.4-.9.6-1.3.1-.2.2-.5.3-.7l49-116.7L514.8 644l.1.2c.3.6.6 1.2.9 1.7l.4.6c.3.4.6.8.9 1.3l.4.6c.4.5.8 1 1.2 1.4l.2.2c.5.5 1 1 1.6 1.5l.4.3c.5.4 1 .9 1.6 1.3l.2.2c.6.4 1.3.9 2 1.3l.1.1.4.2.8.4c.3.1.5.3.8.4l.6.3c.4.1.7.3 1.1.4l.4.2c.4.1.8.3 1.3.4l.3.1c.5.1.9.3 1.4.4h.2l1.5.3h.1l1.6.2H538.7l1.6-.1h.1c.5 0 .9-.1 1.4-.2h.2l1.3-.3.3-.1c.4-.1.8-.2 1.1-.3l.5-.1.9-.4.6-.2.8-.4.7-.3.2-.1.2-.1c.6-.3 1.3-.7 1.9-1.1l.2-.1c.6-.4 1.3-.8 1.8-1.3l.4-.3c.5-.4 1-.8 1.5-1.3l.3-.2c.5-.5 1-1 1.4-1.6l.4-.5.9-1.3.4-.5c.4-.5.7-1.1 1-1.6l.1-.2 84.2-147 41.1 64.9.2.3.4.5c.4.5.7 1 1.1 1.5l.1.1c.5.6 1 1.1 1.5 1.7l.2.2c1.1 1.1 2.2 2 3.5 2.8l.3.2c.6.4 1.2.8 1.8 1.1h.1c.6.3 1.2.6 1.9.9l.6.3c.6.3 1.2.5 1.9.7l.5.2 1.6.4.6.1c.7.1 1.3.2 2.1.3h.4c.8.1 1.6.1 2.3.1h98.2L540.6 837.5z"/></g></switch></svg>