<svg id="Grupo_139" data-name="Grupo 139" xmlns="http://www.w3.org/2000/svg" xmlns:xlink="http://www.w3.org/1999/xlink" width="41.546" height="41.622" viewBox="0 0 41.546 41.622">
  <defs>
    <clipPath id="clip-path">
      <rect id="Retângulo_81" data-name="Retângulo 81" width="41.546" height="41.622"/>
    </clipPath>
  </defs>
  <g id="Grupo_138" data-name="Grupo 138" transform="translate(0 0)" clip-path="url(#clip-path)">
    <path id="Caminho_90" data-name="Caminho 90" d="M14.542,0H26.986c.972.054,1.944.1,2.915.162a13.869,13.869,0,0,1,4.925,1.1A10.853,10.853,0,0,1,41.3,10.113c.111.719.166,1.445.248,2.169V29.038c-.025.186-.051.372-.074.558-.11.913-.154,1.84-.341,2.738a10.685,10.685,0,0,1-6.9,8.292,15.993,15.993,0,0,1-5.7.928c-4.4.045-8.81.086-13.214.062a27.829,27.829,0,0,1-6.467-.537A10.666,10.666,0,0,1,1.319,35.06a14.884,14.884,0,0,1-1.245-6.29c-.047-4.5-.1-9-.062-13.5A41.127,41.127,0,0,1,.418,9.6a10.553,10.553,0,0,1,4.217-7.12A12.638,12.638,0,0,1,11.544.166c1-.071,2-.111,3-.166m6.277,37.964c0-.021,0-.043,0-.064,1.1,0,2.2.033,3.293-.007,2.355-.085,4.727-.058,7.057-.349a6.784,6.784,0,0,0,6.161-5.426,18.027,18.027,0,0,0,.451-3.984q.108-6.281.062-12.564a42.214,42.214,0,0,0-.3-5.067A6.929,6.929,0,0,0,31.728,4.24a24.458,24.458,0,0,0-4.36-.394c-3.645-.061-7.292-.05-10.938-.038a36.545,36.545,0,0,0-6.243.344,6.971,6.971,0,0,0-5.965,5.7,23.209,23.209,0,0,0-.4,4.155c-.071,3.333-.1,6.669-.061,10,.026,2.355.088,4.718.314,7.06A6.887,6.887,0,0,0,7.383,36.5a8.89,8.89,0,0,0,4.454,1.235c2.993.107,5.988.157,8.982.231" transform="translate(0 0)"/>
    <path id="Caminho_91" data-name="Caminho 91" d="M23.869,34.63a10.7,10.7,0,1,1,10.7,10.708,10.7,10.7,0,0,1-10.7-10.708m3.769,0a6.931,6.931,0,1,0,6.929-6.923,6.912,6.912,0,0,0-6.929,6.923" transform="translate(-13.769 -13.814)"/>
    <path id="Caminho_92" data-name="Caminho 92" d="M72.087,17.058a2.491,2.491,0,0,1-.1,4.981,2.491,2.491,0,1,1,.1-4.981" transform="translate(-40.115 -9.84)"/>
  </g>
</svg>
