<svg id="Grupo_141" data-name="Grupo 141" xmlns="http://www.w3.org/2000/svg" xmlns:xlink="http://www.w3.org/1999/xlink" width="41.652" height="41.653" viewBox="0 0 41.652 41.653">
  <defs>
    <clipPath id="clip-path">
      <rect id="Retângulo_82" data-name="Retângulo 82" width="41.652" height="41.653"/>
    </clipPath>
  </defs>
  <g id="Grupo_140" data-name="Grupo 140" transform="translate(0)" clip-path="url(#clip-path)">
    <path id="Caminho_93" data-name="Caminho 93" d="M0,24.076c0-2.2.052-6.905.063-7.064.222-3.213.4-6.43.673-9.638A7.339,7.339,0,0,1,6.812.838C9.34.479,11.9.368,14.452.167,15.489.085,16.53.054,17.569,0h6.507c.16.021.319.05.479.061,3.257.224,6.517.4,9.769.679a7.463,7.463,0,0,1,6.57,6.49c.281,2.857.514,5.723.643,8.59a121.681,121.681,0,0,1-.616,18.469A7.547,7.547,0,0,1,34.409,40.9c-2.844.279-5.7.512-8.55.641A120.911,120.911,0,0,1,7.39,40.923,7.419,7.419,0,0,1,.834,34.8c-.36-2.516-.467-5.069-.667-7.607C.085,26.157.054,25.115,0,24.076m17.741-6.492h-.487c-.759,0-1.518-.007-2.277,0a.663.663,0,0,0-.744.683q-.014,1.81.007,3.619c.005.451.284.7.768.706.623.01,1.247,0,1.87,0h.863v.541q0,5,0,10c0,.552.146.7.7.7q1.667,0,3.334,0c.632,0,.756-.125.757-.761q.006-4.981.011-9.961V22.6h.485c1.057,0,2.114,0,3.171,0,.48,0,.75-.209.8-.631.143-1.156.281-2.312.4-3.471.066-.626-.2-.906-.837-.908-1.193,0-2.385,0-3.578,0h-.425a1.187,1.187,0,0,1-.032-.169c0-1.043-.012-2.087.006-3.13a1.793,1.793,0,0,1,1.972-2.016c.649-.031,1.3-.011,1.951-.023.564-.01.8-.24.807-.786q.011-1.443,0-2.887a.67.67,0,0,0-.746-.76c-1.084-.006-2.169-.028-3.252.011A5.277,5.277,0,0,0,18.1,11.666a10.777,10.777,0,0,0-.349,2.44c-.057,1.134-.014,2.274-.014,3.477" transform="translate(0 0)"/>
  </g>
</svg>
