<svg id="Grupo_143" data-name="Grupo 143" xmlns="http://www.w3.org/2000/svg" xmlns:xlink="http://www.w3.org/1999/xlink" width="41.645" height="41.645" viewBox="0 0 41.645 41.645">
  <defs>
    <clipPath id="clip-path">
      <rect id="Retângulo_83" data-name="Retângulo 83" width="41.645" height="41.645"/>
    </clipPath>
  </defs>
  <g id="Grupo_142" data-name="Grupo 142" transform="translate(0 0)" clip-path="url(#clip-path)">
    <path id="Caminho_94" data-name="Caminho 94" d="M0,38.065V3.579A.989.989,0,0,0,.074,3.4,4.233,4.233,0,0,1,1.55.948,5.182,5.182,0,0,1,3.579,0H38.066a.636.636,0,0,0,.139.069,4.185,4.185,0,0,1,3.438,4.226q0,16.529,0,33.058a4.647,4.647,0,0,1-.129,1.124,4.186,4.186,0,0,1-4.2,3.166q-16.489,0-32.977,0c-.122,0-.244,0-.366-.006a4.169,4.169,0,0,1-2.915-1.418A4.983,4.983,0,0,1,0,38.065m35.375-2.689c.007-.122.015-.2.015-.281,0-3.849.018-7.7-.006-11.548a7.048,7.048,0,0,0-3.187-6,6.305,6.305,0,0,0-7.451-.179,21.463,21.463,0,0,0-1.831,1.573V16.688H16.7V35.369h6.21v-.5q0-5.042,0-10.084c0-.27.008-.542.034-.812a3.137,3.137,0,0,1,3.911-2.6,3.18,3.18,0,0,1,2.29,3.224q.007,5.144,0,10.288v.487ZM12.468,16.694H6.282V35.376h6.186Zm.639-7.327a3.742,3.742,0,1,0-3.745,3.739,3.749,3.749,0,0,0,3.745-3.739" transform="translate(0 0)"/>
  </g>
</svg>
