<svg id="Grupo_137" data-name="Grupo 137" xmlns="http://www.w3.org/2000/svg" xmlns:xlink="http://www.w3.org/1999/xlink" width="214.667" height="41.561" viewBox="0 0 214.667 41.561">
  <defs>
    <clipPath id="clip-path">
      <rect id="Ret창ngulo_10" data-name="Ret창ngulo 10" width="214.667" height="41.561"/>
    </clipPath>
  </defs>
  <g id="Grupo_8" data-name="Grupo 8" transform="translate(0 0)" clip-path="url(#clip-path)">
    <path fill="#FFFF00" id="Caminho_10" data-name="Caminho 10" d="M19.272.086C11.612.135,6.227,4.879,6.227,13.231V28.253c0,4.4-2.323,6.572-6.227,6.572V41.6c7.61,0,13-4.99,13-13.342V13.329c0-4.3,2.322-6.473,6.276-6.473Z" transform="translate(0 -0.035)"/>
    <path fill="#FFFF00" id="Caminho_11" data-name="Caminho 11" d="M48.82.086,32.781,41.6h7.262l2.27-6.1H62.388l2.219,6.1h7.112L56.083.086ZM44.533,29.591,52.451,8.256l7.767,21.335Z" transform="translate(-13.509 -0.035)"/>
    <rect fill="#FFFF00" id="Ret창ngulo_9" data-name="Ret창ngulo 9" width="6.96" height="41.509" transform="translate(64.06 0.051)"/>
    <path fill="#FFFF00" id="Caminho_12" data-name="Caminho 12" d="M153,19.353c3.077-1.362,4.943-4.237,4.943-8.272,0-7.515-4.64-11-13.921-11H133.282V41.6h10.39c11.348,0,16.594-4.388,16.594-12.508A9.578,9.578,0,0,0,153,19.353M139.838,6.037h4.338c4.791,0,7.263,1.463,7.263,5.7,0,3.934-2.572,5.448-7.263,5.448h-4.338Zm3.682,29.2h-3.682V22.732h4.338c6.053,0,9.079,1.866,9.079,6.3,0,4.691-3.077,6.2-9.735,6.2" transform="translate(-54.924 -0.035)"/>
    <path fill="#FFFF00" id="Caminho_13" data-name="Caminho 13" d="M199.946.086,183.907,41.6h7.263l2.269-6.1h20.074l2.219,6.1h7.112L207.209.086Zm-4.287,29.505,7.919-21.335,7.767,21.335Z" transform="translate(-75.786 -0.035)"/>
    <path fill="#FFFF00" id="Caminho_14" data-name="Caminho 14" d="M265.064,0h-6.91V41.56h20.78V34.953h-13.87Z" transform="translate(-106.383 0)"/>
    <path fill="#FFFF00" id="Caminho_15" data-name="Caminho 15" d="M324.282,5.595h3.309V.086H314.944L298.905,41.6h7.263l2.269-6.1h20.074l2.219,6.1h7.111Zm-13.625,24,7.919-21.335,7.767,21.335Z" transform="translate(-123.176 -0.035)"/>
  </g>
</svg>
