<svg xmlns="http://www.w3.org/2000/svg" width="1385.173" height="452.66" viewBox="0 0 1385.173 452.66">
  <g id="Grupo_1539" data-name="Grupo 1539" transform="translate(366.725 -549.34)">
    <path id="Caminho_702" data-name="Caminho 702" d="M4411.135,1294.007l-.048-227.137c0-20.538-13.247-32.205-32.084-32.327l-1321.785-3.122v16.649L4379,1051.193c9.723,0,15.435,5.347,15.435,15.92l.048,226.894Z" transform="translate(-3423.942 -482.081)"/>
    <path id="Caminho_703" data-name="Caminho 703" d="M4411.135,1294.007l.017-173.969h-16.684l.017,173.969Z" transform="translate(-3423.942 -308.081)" fill="#fff"/>
    <g id="Grupo_1535" data-name="Grupo 1535" transform="translate(-2813.767 -7259.511)">
      <g id="Grupo_1532" data-name="Grupo 1532" transform="translate(3754.643 8261.511) rotate(-90)">
        <path id="Caminho_701" data-name="Caminho 701" d="M4189.472,8440.07l32.31-32.31,10.31,10.31L4203.56,8446.6l28.422,28.422-10.309,10.31-32.2-32.2A9.235,9.235,0,0,1,4189.472,8440.07Z" transform="translate(-4186.767 -8407.761)" fill="#fff"/>
      </g>
    </g>
  </g>
</svg>
