<svg xmlns="http://www.w3.org/2000/svg" xmlns:xlink="http://www.w3.org/1999/xlink" width="110" height="95" viewBox="0 0 110 95">
  <defs>
    <clipPath id="clip-path">
      <rect id="Ret칙ngulo_618" data-name="Ret칙ngulo 618" width="110" height="95" transform="translate(0 1519)" fill="none"/>
    </clipPath>
  </defs>
  <g id="Grupo_de_m치scara_77" data-name="Grupo de m치scara 77" transform="translate(0 -1519)" clip-path="url(#clip-path)">
    <g id="Grupo_1534" data-name="Grupo 1534" transform="translate(-282 1521.753)">
      <path id="Caminho_700" data-name="Caminho 700" d="M4573.745,8084.548v-.037c5.678,0,9.013-3.123,9.013-9.3v-21.432c0-11.994,7.735-19.161,18.664-19.161s18.664,7.167,18.664,19.161v21.432c0,6.174,3.336,9.3,9.013,9.3s9.013-3.123,9.013-9.3v-21.432c0-11.994,7.735-19.161,18.665-19.161s18.664,7.167,18.664,19.161v21.432c0,5.67,2.813,8.766,7.671,9.234,4.857-.468,7.67-3.564,7.67-9.234v-21.432c0-11.994,7.735-19.161,18.665-19.161s18.664,7.167,18.664,19.161v21.432c0,5.9,3.046,9.013,8.271,9.278v-.015l44.8-.2v9.792l-44.8.188v-.045c-10.6-.367-17.993-7.14-17.993-18.861v-21.574c0-6.316-3.336-9.438-8.941-9.438s-8.942,3.122-8.942,9.438v21.574c0,10.992-6.5,17.631-16.051,18.718v.159c-.454,0-.9-.019-1.342-.044-.442.026-.889.042-1.342.044v-.159c-9.553-1.087-16.051-7.726-16.051-18.718v-21.574c0-6.316-3.336-9.438-8.941-9.438s-8.942,3.122-8.942,9.438v21.574c0,11.994-7.735,18.806-18.735,18.877-11-.071-18.735-6.884-18.735-18.877v-21.574c0-6.316-3.335-9.438-8.942-9.438s-8.942,3.122-8.942,9.438v21.574c0,11.994-7.735,18.806-18.735,18.877v.036H4400.856v-9.722Z" transform="translate(-4400.856 -8034.622)" fill="#fff"/>
      <g id="Grupo_1532" data-name="Grupo 1532" transform="translate(359.912 31.215)">
        <path id="Caminho_701" data-name="Caminho 701" d="M4212.629,8427.367l-19.606-19.606-6.256,6.256,17.313,17.313-17.248,17.247,6.255,6.256,19.541-19.541A5.6,5.6,0,0,0,4212.629,8427.367Z" transform="translate(-4186.767 -8407.761)" fill="#fff"/>
      </g>
    </g>
  </g>
</svg>
