<svg xmlns="http://www.w3.org/2000/svg" width="1163.795" height="363.11" viewBox="0 0 1163.795 363.11">
  <g id="Grupo_1527" data-name="Grupo 1527" transform="translate(-5503.951 -7119.218)">
    <path id="Caminho_694" data-name="Caminho 694" d="M6119.631,7394.6c-12.066,0-19.156-6.637-19.156-19.759v-214.9c0-25.478-16.424-40.708-39.635-40.723H5766.233c-25.426,0-40.646,16.358-40.722,39.494h-.132l.044,308.253h20.812l-.044-308.253h-.016c.064-11.81,6.7-18.83,20.058-18.83h294.575c11.915,0,19,6.637,19,20.06v215.2c0,25.49,16.44,39.97,39.819,40.121h729.625V7394.6Z" transform="translate(-181.51)" fill="#3196ff"/>
    <g id="Grupo_1526" data-name="Grupo 1526" transform="translate(5503.951 7446.872)">
      <path id="Caminho_695" data-name="Caminho 695" d="M5754.623,8579.688l-41.672-41.672,13.3-13.3,36.8,36.8,36.658-36.657,13.3,13.3-41.531,41.53A11.911,11.911,0,0,1,5754.623,8579.688Z" transform="translate(-5712.951 -8547.721)" fill="#3196ff"/>
    </g>
  </g>
</svg>
