<svg xmlns="http://www.w3.org/2000/svg" xmlns:xlink="http://www.w3.org/1999/xlink" width="360" height="145" viewBox="0 0 360 145">
  <defs>
    <clipPath id="clip-path">
      <rect id="Ret칙ngulo_620" data-name="Ret칙ngulo 620" width="360" height="145" transform="translate(15 3406)" fill="none" stroke="#707070" stroke-width="1"/>
    </clipPath>
  </defs>
  <g id="Grupo_de_m치scara_78" data-name="Grupo de m치scara 78" transform="translate(-15 -3406)" clip-path="url(#clip-path)">
    <path id="Caminho_694" data-name="Caminho 694" d="M5944.135,7402.581c-10.241,0-16.259-5.634-16.259-16.771v-59.193c0-21.626-13.941-34.554-33.643-34.566H5759.847c-21.582,0-34.5,13.885-34.565,33.522h-.111l.247,88.817h17.665l-.247-88.817h-.014c.055-10.024,5.688-15.982,17.025-15.982h134.358c10.114,0,16.132,5.633,16.132,17.026v59.449c0,21.637,13.954,33.927,33.8,34.055h161.9v-17.539Z" transform="translate(-5676.496 -3885.831)" fill="#3196ff"/>
    <g id="Grupo_1526" data-name="Grupo 1526" transform="translate(15 3491.981)">
      <path id="Caminho_695" data-name="Caminho 695" d="M5748.323,8571.378l-35.371-35.372,11.286-11.285,31.234,31.234,31.116-31.114,11.285,11.286-35.251,35.251A10.111,10.111,0,0,1,5748.323,8571.378Z" transform="translate(-5712.952 -8524.721)" fill="#3196ff"/>
    </g>
  </g>
</svg>
