<?xml version="1.0" encoding="utf-8"?>
<!-- Generator: Adobe Illustrator 26.3.1, SVG Export Plug-In . SVG Version: 6.00 Build 0)  -->
<svg version="1.1" id="Camada_1" xmlns="http://www.w3.org/2000/svg" xmlns:xlink="http://www.w3.org/1999/xlink" x="0px" y="0px"
	 viewBox="0 0 1728 206.6" style="enable-background:new 0 0 1728 206.6;" xml:space="preserve">
<style type="text/css">
	.st0{fill:#FFFFFF;}
</style>
<g id="Group_1533" transform="translate(-4116.767 -8034.622)">
	<path id="Path_700" class="st0" d="M4688.5,8147.1L4688.5,8147.1c-9.4-0.1-14.9-5.2-14.9-15.4v-35.3c0-19.8-12.7-31.6-30.8-31.6
		s-30.8,11.8-30.8,31.6v35.3c0,10.2-5.5,15.3-14.9,15.3s-14.9-5.1-14.9-15.3v-35.3c0-19.8-12.7-31.6-30.8-31.6s-30.8,11.8-30.8,31.6
		v35.3c0,9.3-4.6,14.4-12.6,15.2c-8-0.8-12.6-5.9-12.6-15.2v-35.3c0-19.8-12.7-31.6-30.8-31.6s-30.8,11.8-30.8,31.6v35.3
		c0,9.7-5,14.9-13.6,15.3l0,0l-254.8-0.3v16.1l254.8,0.3v-0.1c17.5-0.6,29.7-11.8,29.7-31.1v-35.6c0-10.4,5.5-15.6,14.7-15.6
		s14.7,5.1,14.7,15.6v35.6c0,18.1,10.7,29.1,26.5,30.8v0.3c0.7,0,1.5,0,2.2-0.1c0.7,0,1.5,0.1,2.2,0.1v-0.3
		c15.7-1.8,26.5-12.7,26.5-30.8v-35.6c0-10.4,5.5-15.6,14.7-15.6s14.7,5.1,14.7,15.6v35.6c0,19.8,12.7,31,30.9,31.1
		c18.1-0.1,30.9-11.3,30.9-31.1v-35.6c0-10.4,5.5-15.6,14.7-15.6s14.7,5.1,14.7,15.6v35.6c0,19.8,12.7,31,30.9,31.1v0.1H5776v-16
		H4688.5z"/>
	<g id="Group_1532" transform="translate(4116.767 8086.063)">
		<path id="Path_701" class="st0" d="M44.9,62.5l32.3-32.3l10.3,10.3L59,69l28.4,28.4l-10.3,10.3L44.9,75.6
			C41.8,72.1,42.2,66.4,44.9,62.5z"/>
	</g>
</g>
</svg>
