<svg xmlns="http://www.w3.org/2000/svg" width="467.186" height="288.731" viewBox="0 0 467.186 288.731">
  <g id="Grupo_1540" data-name="Grupo 1540" transform="translate(137.163 -689.214)">
    <path id="Caminho_704" data-name="Caminho 704" d="M4021.869,1156.643l.052-102.827c0-12.56-8.1-19.694-19.62-19.768l-428.513-.191v10.181l428.513.191c5.945,0,9.438,3.27,9.438,9.735l-.053,102.678Z" transform="translate(-3710.951 -344.643)"/>
    <path id="Caminho_705" data-name="Caminho 705" d="M4404.636,1226.178l.011-156.139h-10.179l.011,156.139Z" transform="translate(-4093.682 -258.039)" fill="#fff"/>
    <g id="Grupo_1536" data-name="Grupo 1536" transform="translate(282.696 950.293)">
      <g id="Grupo_1532" data-name="Grupo 1532" transform="translate(0 27.652) rotate(-90)">
        <path id="Caminho_701" data-name="Caminho 701" d="M1.65,19.712,21.362,0l6.29,6.29L10.245,23.7,27.586,41.037,21.3,47.327,1.65,27.68A5.635,5.635,0,0,1,1.65,19.712Z" transform="translate(0)" fill="#fff"/>
      </g>
    </g>
  </g>
</svg>
