<svg xmlns="http://www.w3.org/2000/svg" width="342.688" height="377.946" viewBox="0 0 342.688 377.946">
  <g id="Grupo_1539" data-name="Grupo 1539" transform="translate(0 -599.999)">
    <path id="Caminho_704" data-name="Caminho 704" d="M4022,1246.051l-.081-192.235c0-12.56-8.1-19.694-19.62-19.768l-304.015.336v10.181l304.015-.336c5.945,0,9.438,3.27,9.438,9.735l.081,192.087Z" transform="translate(-3698.286 -434.049)"/>
    <path id="Caminho_705" data-name="Caminho 705" d="M4404.636,1226.178l.011-156.139h-10.179l.011,156.139Z" transform="translate(-4081.018 -258.039)" fill="#fff"/>
    <g id="Grupo_1536" data-name="Grupo 1536" transform="translate(295.361 950.293)">
      <g id="Grupo_1532" data-name="Grupo 1532" transform="translate(0 27.652) rotate(-90)">
        <path id="Caminho_701" data-name="Caminho 701" d="M1.65,19.712,21.362,0l6.29,6.29L10.245,23.7,27.586,41.037,21.3,47.327,1.65,27.68A5.635,5.635,0,0,1,1.65,19.712Z" transform="translate(0)" fill="#fff"/>
      </g>
    </g>
  </g>
</svg>
