<?xml version="1.0" encoding="utf-8"?>
<!-- Generator: Adobe Illustrator 26.3.1, SVG Export Plug-In . SVG Version: 6.00 Build 0)  -->
<svg version="1.1" id="Camada_1" xmlns="http://www.w3.org/2000/svg" xmlns:xlink="http://www.w3.org/1999/xlink" x="0px" y="0px"
	 viewBox="0 0 2037.9 422.6" style="enable-background:new 0 0 2037.9 422.6;" xml:space="preserve">
<style type="text/css">
	.st0{fill:#FFFFFF;}
	.st1{fill:#3196FF;}
</style>
<path id="Path_702_00000098943094087122807440000011159893031525417867_" d="M1659.4-308.7v-227.1c0-20.5-13.2-32.2-32.1-32.3
	L46.1-568.5v16.6l1581.2,0.4c9.7,0,15.4,5.3,15.4,15.9v226.9H1659.4z"/>
<g id="Group_1533" transform="translate(-4116.767 -8034.622)">
	<path id="Path_700" class="st0" d="M4688.5,7896.7L4688.5,7896.7c-9.4-0.1-14.9-5.2-14.9-15.4V7846c0-19.8-12.7-31.6-30.8-31.6
		s-30.8,11.8-30.8,31.6v35.3c0,10.2-5.5,15.3-14.9,15.3s-14.9-5.1-14.9-15.3V7846c0-19.8-12.7-31.6-30.8-31.6s-30.8,11.8-30.8,31.6
		v35.3c0,9.3-4.6,14.4-12.6,15.2c-8-0.8-12.6-5.9-12.6-15.2V7846c0-19.8-12.7-31.6-30.8-31.6s-30.8,11.8-30.8,31.6v35.3
		c0,9.7-5,14.9-13.6,15.3l0,0l-254.8-0.3v16.1l254.8,0.3v-0.1c17.5-0.6,29.7-11.8,29.7-31.1v-35.6c0-10.4,5.5-15.6,14.7-15.6
		s14.7,5.1,14.7,15.6v35.6c0,18.1,10.7,29.1,26.5,30.8v0.3c0.7,0,1.5,0,2.2-0.1c0.7,0,1.5,0.1,2.2,0.1v-0.3
		c15.7-1.8,26.5-12.7,26.5-30.8v-35.6c0-10.4,5.5-15.6,14.7-15.6s14.7,5.1,14.7,15.6v35.6c0,19.8,12.7,31,30.9,31.1
		c18.1-0.1,30.9-11.3,30.9-31.1v-35.6c0-10.4,5.5-15.6,14.7-15.6s14.7,5.1,14.7,15.6v35.6c0,19.8,12.7,31,30.9,31.1v0.1H5776v-16
		H4688.5z"/>
	<g id="Group_1532" transform="translate(4116.767 8086.063)">
		<path id="Path_701" class="st0" d="M44.9-187.9l32.3-32.3l10.3,10.3L59-181.4L87.4-153l-10.3,10.3l-32.2-32.1
			C41.8-178.3,42.2-184,44.9-187.9z"/>
	</g>
</g>
<g id="Group_1527_00000163043917691389020320000016713943275035903414_" transform="translate(-5503.951 -7119.218)">
	<path id="Path_694_00000173869180896710280040000000152372904841591470_" class="st1" d="M5974.4,7412.3
		c-12.1,0-19.2-6.6-19.2-19.8v-214.9c0-25.5-16.4-40.7-39.6-40.7H5621c-25.4,0-40.6,16.4-40.7,39.5h-0.1v308.3h20.8v-308.3l0,0
		c0.1-11.8,6.7-18.8,20.1-18.8h294.6c11.9,0,19,6.6,19,20.1v215.2c0,25.5,16.4,40,39.8,40.1h1511.8v-20.7L5974.4,7412.3
		L5974.4,7412.3z"/>
	<g id="Group_1526_00000008828242042684312270000006574365410590690197_" transform="translate(5503.951 7446.872)">
		<path id="Path_695_00000161626226025888570080000004628975930661175992_" class="st1" d="M78,49.7L36.3,8L49.6-5.3l36.8,36.8
			l36.7-36.7l13.3,13.3L94.9,49.6C90.2,54.3,82.6,54.3,78,49.7L78,49.7z"/>
	</g>
</g>
<path id="Path_706" class="st0" d="M252.5,576.9h-174v16.7h174V576.9z"/>
<g id="Group_1537" transform="translate(-8071.469 3832.215) rotate(-90)">
	<g id="Group_1532_00000152974826256432842210000015768667964424464290_" transform="translate(3754.643 8261.511) rotate(-90)">
		<path id="Path_701_00000137093823002225597100000015012218691832701586_" class="st0" d="M-75.8-513.6l32.3-32.3l10.3,10.3
			l-28.5,28.5l28.4,28.4l-10.3,10.4l-32.2-32.2C-78.9-504.1-78.5-509.7-75.8-513.6z"/>
	</g>
</g>
</svg>
